<svg xmlns="http://www.w3.org/2000/svg" viewBox="0 0 123.5 160.63"><defs><style>.cls-1{fill:#878039;}.cls-1,.cls-5,.cls-6{stroke:#7b7325;stroke-miterlimit:10;}.cls-1,.cls-6{stroke-width:0.74px;}.cls-2{fill:#e0b75e;}.cls-3{fill:#7b7325;}.cls-4{fill:#b5944c;}.cls-5,.cls-6{fill:none;}.cls-5{stroke-width:1.32px;}</style></defs><g id="Layer_2" data-name="Layer 2"><g id="Layer_1-2" data-name="Layer 1"><path class="cls-1" d="M76.45,147.22h0a54.62,54.62,0,0,0,12.92-9.86c8.13-8.35,13-18.55,15.92-28,.78-2.51,1.41-5,1.93-7.33a95.47,95.47,0,0,0,2.37-22.37c-.27.72-.51,1.38-.75,2-3.75,9.68-4.33,6.86-16.89,26.13a112.55,112.55,0,0,0-15,35,0,0,0,0,1,0,0L76.58,146Z"/><path class="cls-2" d="M92.46,62.59a1,1,0,0,1,.07.15,2.26,2.26,0,0,1,.19.42c1.26-.4,2.15-1.85,3-2.8,1-1.21,2.08-2.44,3.1-3.65q3.09-3.68,6.11-7.4l2.7-3.37C111.68,40.83,116,35.81,119.13,30c1.63-3,7.32-15.15,2.41-17.36a3.76,3.76,0,0,0-3.09.41c-9.53,4.53-14.36,14.14-19.65,22.74-1,1.63-2,3.23-3.06,4.84a27.83,27.83,0,0,0-2.56,4.82q-.84,2-1.65,3.93L91,50.69c3-4.64,7.18-9.79,7.18-9.79,5.23-4.67,7.73-1,7.54,2.28s-2.82,7.1-2.82,7.1l-7.43,9.85A28,28,0,0,1,92.46,62.59Z"/><path class="cls-2" d="M79.09,58.72l.78.16A7.33,7.33,0,0,1,79.58,57a62,62,0,0,1,.79-10c.67-4.72,1.51-8.82,1.51-8.82,1.9-8.29,8.57-7.55,11-4.27s.7,8.39.7,8.39c-.4.89-1.38,3.32-2.45,6-1.71,4.24-3.64,9-3.64,9A6.93,6.93,0,0,1,87,58.66a6.51,6.51,0,0,1-.58,1,1,1,0,0,1,.18,0l.27,0,.15,0,.39-.88c1-2.23,2.2-5,3.56-8.19h0l.57-1.3c.53-1.26,1.09-2.57,1.65-3.93.08-.21.17-.43.26-.64.18-.47.37-.94.56-1.42a125.72,125.72,0,0,0,6.15-19,40.46,40.46,0,0,0,.83-5.66c.48-5.83-.22-12.37-3.74-16.58a5.87,5.87,0,0,0-3-2A5.94,5.94,0,0,0,88.85,2a13.49,13.49,0,0,0-2.32,3.16c-2.46,4.51-3.07,10.51-4,15.16A145.46,145.46,0,0,0,80,37.57v0c-.06.69-.12,1.36-.17,2-.37,5-.56,10-.55,14.92C79.28,55.39,79,57.29,79.09,58.72Z"/><path class="cls-2" d="M61.93,17.12c-.1,19,8.66,37,11.72,42.73l0-.09a1.37,1.37,0,0,1,.2-.26,8.94,8.94,0,0,1-.76-1.3c-2.84-5.71-5.2-16.8-5.2-16.8-2.6-10.19,2.7-12.72,6.78-9.34a12.79,12.79,0,0,1,4.22,8.73s.28,10.72.12,14.74a8.89,8.89,0,0,1-.68,3.09c.24,0,.48.06.71.11-.08-1.44.19-3.34.19-4.16,0-5,.18-10,.55-14.91,0-.69.11-1.36.17-2,0,0,0,0,0,0a127.72,127.72,0,0,0-3.68-23.34C73.29.79,62-5.88,61.93,17.12Z"/><path class="cls-3" d="M73.42,62.62c0,.2.08.41.11.61a69.23,69.23,0,0,0,2.16,8.88c.45,1.46,1,2.9,1.49,4.32a25.63,25.63,0,0,0,1.73,4c.48.8,1.26,1.86,2.32,1.66s1.74-1.48,2.28-2.28C86,76.19,88.24,72.36,91,68.89c1.28-1.62,2.49-3.57,1.72-5.7,0,0,0,0,0,0a2.26,2.26,0,0,0-.19-.42,1,1,0,0,0-.07-.15,3.08,3.08,0,0,0-.34-.49,1.94,1.94,0,0,0-.4-.41,6.72,6.72,0,0,0-3.06-1.56L88.18,60c-.18,0-.36-.08-.55-.12l-.21,0L87,59.77h-.14a1.28,1.28,0,0,0-.27,0l-.19,0c-1.17-.16-2.39-.24-3.57-.35l-.09,0L81,59.05l-.81-.12h0l-.13,0-.12,0-.78-.15c-.23,0-.47-.08-.71-.11a7,7,0,0,0-1-.1,3.75,3.75,0,0,0-.45,0h-.43l-.48.05-.47.07a2.81,2.81,0,0,0-1.23.55.78.78,0,0,0-.2.16l-.19.19a1.37,1.37,0,0,0-.2.26l0,.09A4,4,0,0,0,73.42,62.62Z"/><path class="cls-4" d="M87,59.77l.41.07.21,0c.19,0,.37.07.55.12l.48.13a6.72,6.72,0,0,1,3.06,1.56,1.94,1.94,0,0,1,.4.41,3.08,3.08,0,0,1,.34.49,28,28,0,0,0,3-2.46l7.43-9.85s2.64-3.81,2.82-7.1-2.31-7-7.54-2.28c0,0-4.17,5.15-7.18,9.79v0c-1.35,3.15-2.6,5.95-3.55,8.18C87.27,59.19,87.14,59.5,87,59.77Z"/><path class="cls-4" d="M79.58,57a7.33,7.33,0,0,0,.29,1.86l.12,0,.13,0h0l.81.12,1.8.25.09,0c1.18.11,2.4.19,3.57.35a6.12,6.12,0,0,0,.59-1,7.78,7.78,0,0,0,.49-1.34s1.92-4.81,3.64-9c1.07-2.63,2.05-5.06,2.45-6,0,0,1.72-5.12-.71-8.39s-9.09-4-11,4.27c0,0-.85,4.1-1.51,8.83A61.82,61.82,0,0,0,79.58,57Z"/><path class="cls-4" d="M67.94,41.4s2.36,11.09,5.2,16.8a8.94,8.94,0,0,0,.76,1.3l.19-.19a.78.78,0,0,1,.2-.16,2.81,2.81,0,0,1,1.23-.55,1.53,1.53,0,0,1,.47-.07,2.61,2.61,0,0,1,.48-.05h.43a3.75,3.75,0,0,1,.45,0,7,7,0,0,1,1,.1,8.89,8.89,0,0,0,.68-3.09c.16-4-.12-14.74-.12-14.74a12.79,12.79,0,0,0-4.22-8.73C70.64,28.68,65.34,31.21,67.94,41.4Z"/><path class="cls-2" d="M47,68.64c.44,1.86.82,3.73,1.22,5.6a27.69,27.69,0,0,0,1.57,5.21l1.59,4q.26.68.51,1.32c-1.13-5.42-1.77-12-1.77-12,.43-7,4.77-6.16,7-3.68s3,7,3,7L61.67,88.3c0,.62-.06,1.2-.11,1.73a20.78,20.78,0,0,1-.28,2.12.53.53,0,0,1,.15,0,2,2,0,0,1,.43.17,4.07,4.07,0,0,0,.33-2.13c0-.68-.14-1.37-.18-1.95-.11-1.6-.23-3.2-.36-4.78q-.37-4.79-.86-9.56c-.14-1.43-.3-2.86-.44-4.29-.69-6.5-1.14-13.12-3-19.43-1-3.27-5.44-15.92-10.49-14A3.79,3.79,0,0,0,45,38.65C41.36,48.57,44.69,58.81,47,68.64Z"/><path class="cls-2" d="M16.15,51.61c-.06,6.33,5.1,12.47,8.34,17.51,2.13,3.31,4.42,6.5,6.82,9.6Q33,81,34.83,83.11l0,0c.44.53.87,1,1.32,1.57,3.22,3.79,6.59,7.47,10.09,11,.58.59,1.72,2.13,2.79,3.09.21-.15.44-.29.66-.44a7.22,7.22,0,0,1-1.52-1.11,61.6,61.6,0,0,1-6.46-7.67c-2.85-3.82-5.13-7.34-5.13-7.34a12.91,12.91,0,0,1-.9-1.71c-2.73-6.17,2-9.63,5.72-9,4,.62,6.4,5.47,6.4,5.47.35.92,1.36,3.33,2.45,6,.52,1.26,1.07,2.57,1.58,3.79l2.19,5.21a8.13,8.13,0,0,1,.59,1.29,7.23,7.23,0,0,1,.29,1.13.65.65,0,0,1,.15-.1,1.6,1.6,0,0,1,.23-.16l.12-.09c-.11-.29-.22-.6-.34-.9-.68-1.71-1.46-3.77-2.34-6.06-.29-.73-.58-1.49-.89-2.27h0q-.26-.65-.51-1.32l-1.59-4c-.29-.67-.57-1.35-.86-2a127,127,0,0,0-9-17.83c-3.68-5.8-10.37-13.08-17.71-13.77a5.87,5.87,0,0,0-3.6.66A5.94,5.94,0,0,0,16.15,51.61Z"/><path class="cls-2" d="M7.6,81.26c.92.94,1.87,1.85,2.84,2.72,13,11.76,29.76,17.65,35.53,19.44,0,0,0-.07,0-.1a1,1,0,0,1,0-.33,8.43,8.43,0,0,1-1.46-.39c-6-2.06-15.51-8.29-15.51-8.29-9-5.42-7-11-1.74-11.41a12.76,12.76,0,0,1,9.14,3.25s7.74,7.42,10.45,10.39a9.23,9.23,0,0,1,1.69,2.67l.58-.42c-1.07-1-2.21-2.5-2.79-3.09-3.5-3.52-6.87-7.2-10.09-11-.45-.52-.88-1-1.32-1.57l0,0c-2.61-2.29-5.1-4.3-7.37-6a111,111,0,0,0-11.65-8,27,27,0,0,0-4.44-2.32C1.43,62.69-6.42,66.92,7.6,81.26Z"/><path class="cls-3" d="M47.76,105.55c.17.12.34.23.5.36a70.71,70.71,0,0,0,7.78,4.8c1.35.72,2.72,1.38,4.1,2a25.36,25.36,0,0,0,4.06,1.64c.89.24,2.19.44,2.81-.45s.19-2.27,0-3.22c-.78-4.35-1.89-8.64-2.36-13-.22-2.05-.73-4.29-2.78-5.27h0a3.2,3.2,0,0,0-.43-.17l-.15,0a3.62,3.62,0,0,0-.59-.12,2.7,2.7,0,0,0-.57,0,6.73,6.73,0,0,0-3.27,1c-.15.08-.29.15-.43.24l-.49.31-.17.11a4.15,4.15,0,0,0-.34.24l-.11.09a1.88,1.88,0,0,0-.23.16,1,1,0,0,0-.16.1c-1,.71-1.87,1.51-2.79,2.26l-.07.06L50.6,97.71c-.2.16-.43.31-.66.49l0,0-.1.08a.3.3,0,0,0-.11.06c-.21.15-.44.29-.66.44s-.38.27-.57.42a7.31,7.31,0,0,0-.82.65l-.34.29q-.16.15-.3.3c-.11.12-.21.25-.32.38a3.18,3.18,0,0,0-.27.37,2.77,2.77,0,0,0-.49,1.26.77.77,0,0,0,0,.25,2.43,2.43,0,0,1,0,.27,2,2,0,0,0,0,.33l0,.1A4,4,0,0,0,47.76,105.55Z"/><path class="cls-4" d="M55.42,94a4.15,4.15,0,0,1,.34-.24l.17-.11.49-.31c.14-.09.28-.16.43-.24a6.73,6.73,0,0,1,3.27-1,2.7,2.7,0,0,1,.57,0,3.62,3.62,0,0,1,.59.12,27.42,27.42,0,0,0,.38-3.85L60,76.07s-.8-4.56-3-7-6.52-3.32-7,3.68c0,0,.65,6.59,1.77,12v0c1.26,3.19,2.33,6.06,3.22,8.32C55.2,93.38,55.32,93.68,55.42,94Z"/><path class="cls-4" d="M48.2,97.24a7.63,7.63,0,0,0,1.51,1.12.3.3,0,0,1,.11-.06l.1-.08,0,0c.23-.18.46-.33.66-.49l1.46-1.07.07-.06c.92-.75,1.84-1.55,2.79-2.26a5.29,5.29,0,0,0-.29-1.12A6.48,6.48,0,0,0,54,91.9s-2-4.78-3.77-9c-1.08-2.62-2.1-5-2.44-6,0,0-2.38-4.85-6.4-5.47S32.13,75,36.61,82.24c0,0,2.28,3.51,5.13,7.33A61.6,61.6,0,0,0,48.2,97.24Z"/><path class="cls-4" d="M28.94,94.31s9.48,6.23,15.51,8.29a8.58,8.58,0,0,0,1.45.39,2.43,2.43,0,0,0,0-.27.77.77,0,0,1,0-.25,2.77,2.77,0,0,1,.49-1.26,1.41,1.41,0,0,1,.27-.37,4,4,0,0,1,.32-.38q.13-.15.3-.3l.34-.29a7.31,7.31,0,0,1,.82-.65,9.18,9.18,0,0,0-1.7-2.68c-2.71-3-10.44-10.39-10.44-10.39A12.76,12.76,0,0,0,27.2,82.9C21.93,83.36,19.93,88.89,28.94,94.31Z"/><path class="cls-5" d="M80.75,79.2a702,702,0,0,1-5.29,76.42c-.2,1.63-.42,3.27-.65,4.92"/><path class="cls-5" d="M65.4,112.35s10.8,18.77,9.42,48.19"/><path class="cls-6" d="M76.58,146.05v0c15.61-15.88,28.09-52.77,28.09-52.77"/></g></g></svg>