<svg xmlns="http://www.w3.org/2000/svg" viewBox="0 0 1080 275.75"><defs><style>.cls-1{fill:#aba77e;}.cls-2{fill:#a39e69;}</style></defs><g id="Layer_2" data-name="Layer 2"><g id="Layer_1-2" data-name="Layer 1"><rect class="cls-1" width="1080" height="275.75"/><path class="cls-2" d="M1080,0V184.89c-.77,0-1.54,0-2.31,0-23.23-.34-43.16-15.43-63.22-27.15-23.54-13.75-49.25-23.44-75.67-30-38.35-9.47-76.95-11.75-96.92-12.69-5.82-.27-2.8,0-18.88-.62-53.17-1.91-62-3.55-80.23-.41A250.74,250.74,0,0,0,715,120.71c-16.72,5.05-18.13,7.46-26.73,9.27-11.71,2.47-37.15,3.83-47.52-10.87-9.65-13.67-4.43-33.38,6.31-46.2a84.84,84.84,0,0,1,11.28-11c17.22-14.14,35.08-22.44,55.3-31.5,19-8.51,36.8-19.27,54.35-30.43Z"/><path class="cls-2" d="M452.12,198c-1.91,22.15-12.71,44.57-32.1,55.44-20.26,11.35-45.07,8.29-68.3,8.21-27.27-.1-54.37,4.41-80.51,12q-3.43,1-6.84,2.07H44.67c20.64-35.58,36.24-74.15,61-107.34A246.92,246.92,0,0,1,129.7,140.7a255.78,255.78,0,0,1,46.53-36.5c41.43-25.37,88.43-34.11,134.29-48,15.19-4.59,30.51-10,46.38-9.82,22.44.26,41.93,12.17,55.88,29.18,13.57,16.55,21.73,36.84,28.48,57.16C448.27,153.81,454,175.89,452.12,198Z"/><path class="cls-2" d="M664.62,275.75H525.5c-1-31.19-1.11-39.81-4.78-54.4A253.25,253.25,0,0,0,512,194.17c-6.31-16.28-8.82-17.5-11.29-25.94-3.36-11.49-6.66-36.74,7.21-48.21,12.89-10.66,32.93-7,46.54,2.75a84.13,84.13,0,0,1,11.81,10.42c15.42,16.09,25.06,33.25,35.64,52.72C619.37,218.13,643.48,246,664.62,275.75Z"/><path class="cls-2" d="M902.77,184.26c-3.4,8.05-9.87,14.33-14.79,21.55a84.16,84.16,0,0,0-8.16,15.63c-2.16,5.28-3.35,11.23-5.8,16.36a2,2,0,0,0-.1.21c-4.37,9-12.18,17.53-21.33,21.67-9.34,4.23-20.19,4.06-30.14,1.57s-19.18-7.18-28.33-11.82l-46.91-23.82c-8.74-4.43-17.57-8.92-25.14-15.14s-13.92-14.39-16.17-23.94c-.78-3.29-1-7,1-9.79,1.63-2.33,4.45-3.49,7.15-4.41,45.16-15.38,97.76,3.85,141.2-15.88,11.34-5.16,23.36-13,35.22-9.2C905.11,152,908.08,171.7,902.77,184.26Z"/><path class="cls-2" d="M21.17,132.89c-1.36-8.63.81-17.38,1.17-26.11A84.23,84.23,0,0,0,21,89.2c-1-5.63-3.09-11.31-3.72-17a1.79,1.79,0,0,1,0-.23c-1-9.92,1.08-21.32,6.66-29.67,5.7-8.52,15-14.12,24.76-17.25s20.08-4,30.3-4.93l52.41-4.56c9.77-.85,19.63-1.7,29.35-.42S180.18,20.05,187.13,27c2.4,2.38,4.55,5.45,4.36,8.83-.16,2.84-2,5.32-3.75,7.52-30.22,36.92-85,48.37-111.5,88.08-6.91,10.37-12.95,23.41-25,26.41C36.23,161.53,23.3,146.36,21.17,132.89Z"/><path class="cls-2" d="M501.37,49.69c-30.17,10.43-66.29.52-86.9-23.87-6.11-7.23-11.12-15.35-17.5-22.37-.51-.55-1-1.11-1.55-1.64L395,1.33c-.24-.25-.48-.49-.73-.73s-.42-.41-.63-.6h98a43.14,43.14,0,0,0,7.81,8.29c7.77,6.21,19,10.67,20.4,20.53S510.89,46.4,501.37,49.69Z"/><path class="cls-2" d="M1080,246.1v29.65H995c-4.86-5.95-10.14-11.34-16.94-14.87-8.84-4.58-20.77-6.75-24-16.16s5.27-19,14-24.05c27.56-16.12,64.92-13.44,89.89,6.46,7.4,5.9,13.9,12.89,21.53,18.53Z"/></g></g></svg>