<svg xmlns="http://www.w3.org/2000/svg" viewBox="0 0 1080 819.84"><defs><style>.cls-1{fill:#aba77e;}.cls-2{fill:#a39e69;}</style></defs><g id="Layer_2" data-name="Layer 2"><g id="Layer_1-2" data-name="Layer 1"><rect class="cls-1" width="1080" height="819.84"/><path class="cls-2" d="M1080,0V184.89c-.77,0-1.54,0-2.31,0-23.23-.34-43.16-15.43-63.22-27.15-23.54-13.75-49.25-23.44-75.67-30-38.35-9.47-76.95-11.75-96.92-12.69-5.82-.27-2.8,0-18.88-.62-53.17-1.91-62-3.55-80.23-.41A250.74,250.74,0,0,0,715,120.71c-16.72,5.05-18.13,7.46-26.73,9.27-11.71,2.47-37.15,3.83-47.52-10.87-9.65-13.67-4.43-33.38,6.31-46.2a84.84,84.84,0,0,1,11.28-11c17.22-14.14,35.08-22.44,55.3-31.5,19-8.51,36.8-19.27,54.35-30.43Z"/><path class="cls-2" d="M872.83,184.26c-3.4,8.05-9.86,14.33-14.79,21.55a84.16,84.16,0,0,0-8.16,15.63c-2.16,5.28-3.35,11.23-5.8,16.36a2,2,0,0,1-.1.21c-4.36,9-12.18,17.53-21.33,21.67-9.34,4.23-20.19,4.06-30.14,1.57s-19.18-7.18-28.33-11.82l-46.91-23.82c-8.74-4.43-17.56-8.92-25.14-15.14S678.21,196.08,676,186.53c-.78-3.29-1-7,1-9.79,1.63-2.33,4.46-3.49,7.15-4.41,45.16-15.38,97.76,3.85,141.2-15.88,11.35-5.16,23.37-13,35.22-9.2C875.17,152,878.14,171.7,872.83,184.26Z"/><path class="cls-2" d="M21.17,132.89c-1.36-8.63.81-17.38,1.18-26.11A83.57,83.57,0,0,0,21,89.2c-1-5.63-3.09-11.31-3.72-17,0-.08,0-.15,0-.23-1-9.92,1.08-21.32,6.66-29.67,5.7-8.52,15-14.12,24.77-17.25s20.07-4,30.29-4.93l52.41-4.56c9.77-.85,19.63-1.7,29.35-.42S180.18,20.05,187.14,27c2.39,2.38,4.54,5.45,4.35,8.83-.16,2.84-1.94,5.32-3.75,7.52-30.22,36.92-85,48.37-111.5,88.08-6.91,10.37-12.95,23.41-25,26.41C36.24,161.53,23.3,146.36,21.17,132.89Z"/><path class="cls-2" d="M501.37,49.69c-30.17,10.43-66.29.52-86.9-23.87-6.11-7.23-11.12-15.35-17.5-22.37-.51-.55-1-1.11-1.55-1.64L395,1.33c-.24-.25-.48-.49-.73-.73s-.42-.41-.63-.6h98a43.14,43.14,0,0,0,7.81,8.29c7.77,6.21,19,10.67,20.4,20.53S510.89,46.4,501.37,49.69Z"/><path class="cls-2" d="M433.76,255.55c-19.45,16.21-46.67,17.87-71.59,22.42-29.25,5.33-57.41,15.57-83.92,28.92-38.47,19.4-72,44.91-89.23,58.32-5,3.91-2.35,2-16.06,12.89-45.37,36.18-53.82,41.07-66.71,56.63A276.73,276.73,0,0,0,88,459.94C77.72,476,78.27,479,72.44,486.6c-7.94,10.36-28,29.55-47,24.74-12.95-3.26-21.6-14.86-25.39-28V448.06C4.43,425.68,13,407,22.75,386.19c24.14-51.16,32-108.28,57-159.17A269.36,269.36,0,0,1,100,192.51a278.47,278.47,0,0,1,42.62-48.4c39.36-35.47,88-54.19,134.42-78.22,15.36-8,30.72-16.79,47.76-19.77,24.12-4.19,47.38,4.69,65.73,20.15,17.86,15,30.65,35.16,41.93,55.61,11.71,21.21,22.29,43.73,24.65,67.84S452.39,240,433.76,255.55Z"/><path class="cls-2" d="M1080,274.07V386.84h-.3s0,0,0,0a0,0,0,0,1,0,0h-.05a0,0,0,0,1,0,0h0a0,0,0,0,1,0,0h0a0,0,0,0,1,0,0h0a0,0,0,0,1,0,0h-6.11l-1.43,0c-.54,0-1.08,0-1.62,0h-.74c-1.82,0-3.64-.09-5.46-.16-6.6-.26-13.19-.76-19.73-1.62-1.64-.21-3.27-.45-4.9-.7l-2.45-.41c-23.19-4-46.11-13.52-62.29-30.62-20-21.13-28.75-52.55-53-68.56-13.13-8.66-31.54-14.05-35.08-29.38-3.59-15.52,11.42-29,25.94-35.52,46-20.8,104.31-10.4,140.28,25C1062.32,254.18,1070.53,264.73,1080,274.07Z"/><path class="cls-2" d="M476.05,157.89c-3.92-15.74-6.16-33.72,3.08-47,9.67-14,28.86-17.88,45.75-16.2a99.12,99.12,0,0,1,63.94,32.88c24.77,28.23,31.28,67.75,48.86,100.94,18.73,35.37,50.09,63,85.4,81.89s74.53,29.38,114,36c33.77,5.68,71.32,10.33,93.79,36.17,20,23,21.68,58.59,7.75,85.64s-41.36,45.65-70.81,53.31-60.78,5.3-90.37-1.8a285.08,285.08,0,0,1-85.39-36.32A300.76,300.76,0,0,1,622,422c-19.14-22.91-32.59-48.63-47-74.57-15.08-27.2-34.44-51.89-50.45-78.56-18.57-30.92-34.76-63.52-45-98.2C478.28,166.44,477.12,162.17,476.05,157.89Z"/><path class="cls-2" d="M297.4,349.11c34.17-18.05,71.93-30.4,110.57-31.22s78.2,10.61,107.67,35.6c17,14.39,30.87,34.76,30.18,57-1,31.91-31.54,55.76-62.47,63.69-38.69,9.91-79.65,2.37-118.15-8.29s-76.58-24.52-116.43-27.36c-9.17-.65-20.11-.88-27.22-7.59C216,425.66,213.68,415,217.1,408c3.52-7.19,11.44-11.9,17.56-16.6,9.3-7.15,18.32-14.56,28-21.23A348.14,348.14,0,0,1,297.4,349.11Z"/><path class="cls-2" d="M568.91,484.59c-1.15-14.19,7.38-29.51,21.14-33.16,10.31-2.73,21.41,1.3,30,7.67s15.21,14.92,22.43,22.78a193.53,193.53,0,0,0,116.82,60.45c8.8,1.12,17.85,1.68,26,5.18s15.41,10.76,15.89,19.62c.43,8-4.9,15.55-11.76,19.76s-15,5.64-23,6.44c-33.69,3.37-68.16-3.75-98.18-19.25-24.62-12.72-45.55-31.72-68.28-47.42C585.07,516.41,570.48,503.91,568.91,484.59Z"/><path class="cls-2" d="M990.54,483.13c9.31-14.45,19.94-32.95,37.1-31.89,9.63.59,17.8,7.94,22.13,16.56s5.52,18.43,6.64,28c1.84,15.66,3.68,31.51,1.54,47.13s-8.73,31.23-21,41.08c-18.05,14.47-43.55,13.62-66.63,12.06l-54.95-3.71c-10-.68-20.32-1.43-29.31-5.89s-16.44-13.6-15.76-23.61c.64-9.37,9.81-16,18.63-16.52a102.33,102.33,0,0,0,27-5.36,146.55,146.55,0,0,0,52.35-31.34A139.56,139.56,0,0,0,990.54,483.13Z"/><path class="cls-2" d="M298.11,670.65c6.71,16,5.13,33.19-3.22,48.51-11.28,20.66-33.26,30.69-55.85,33.12-19.7,2.12-39.56-.94-59.14-4L0,720.23V584c3.36-1.83,6.66-3.57,9.6-5.35l43.74-26.46,24.31-14.7L90.1,530l6.08-3.67c1.25-.76,4.34-3.49,5.77-3.49,26.35-15.94,53.18-32.08,83-39.73,45.32-11.63,99.26,2,115.71,50.35a79.83,79.83,0,0,1-5.47,63.15c-5.45,10-13.23,19.27-14.22,30.57C279.51,643.74,292.1,656.35,298.11,670.65Z"/><path class="cls-2" d="M340.84,596c-4.28-14.61-7.08-30.6-1.67-44.84,7.17-18.85,27.24-30,47.1-33.56,47.4-8.43,94,17.73,131.6,47.75s72.67,65.7,118,81.91c17.7,6.33,38.67,11.14,47.33,27.83,8.52,16.41-.06,37.59-14.63,49s-33.5,15.26-51.77,18.21a909.36,909.36,0,0,1-93.73,10.1c-34.1,1.9-69.66,1.66-100.53-13-20.39-9.66-37.86-26.8-46.37-47.85-3.55-8.77-5.72-17.77-7.84-27-2.21-9.57-6.26-18.12-10.74-26.82A236,236,0,0,1,340.84,596Z"/><path class="cls-2" d="M429.25,819.84H336.6a209,209,0,0,1-10.66-66.59c0-5.48.39-11.37,3.77-15.7,9.58-12.29,28.87,1.37,37.07,8.41,12,10.28,19.63,24.44,27.52,37.85,7.59,12.92,16.45,25.85,29.52,33.18C425.55,818,427.4,818.89,429.25,819.84Z"/><path class="cls-2" d="M137.72,800.17a530,530,0,0,0-74.87,19.67H0V775.27a226,226,0,0,1,32,.82c32.56,2.94,65.83,9.64,97.52,1.57,5.25-1.33,10.56-3.08,16-2.59s11,4,11.81,9.38C158.71,793.66,146.88,798.47,137.72,800.17Z"/><path class="cls-2" d="M832.3,819.84H609.67c2.24-1,4.48-1.91,6.7-2.9a282.71,282.71,0,0,0,34.82-18.16c27.17-16.89,51.24-40.48,63-70.23,7.33-18.53,9.62-38.65,15.44-57.71S746,632.67,763.9,623.93a47.05,47.05,0,0,1,67.67,42.65c-.17,22.9-16.77,43.06-17.92,65.93-.86,17.07,7,33.19,12.88,49.23C831,793.85,834.38,807.41,832.3,819.84Z"/><path class="cls-2" d="M1080,730.51v89.33H920.39a83.64,83.64,0,0,1-15.19-44.75c-.81-24.31,9-49,2.88-72.51-3.23-12.37-10.83-24.44-8.28-37,3.79-18.65,26.41-25.49,45.16-28.77,18.35-3.2,39.75-5.56,53.25,7.28,7.3,7,10.57,17,14.86,26.09a113.89,113.89,0,0,0,46.88,50.5C1066.37,724.33,1073.23,727.38,1080,730.51Z"/></g></g></svg>