<svg xmlns="http://www.w3.org/2000/svg" viewBox="0 0 180.49 195.74"><defs><style>.cls-1{fill:#faf4e7;}.cls-2{fill:#878039;}.cls-2,.cls-6{stroke:#7b7325;stroke-miterlimit:10;stroke-width:1.52px;}.cls-3{fill:#e0b75e;}.cls-4{fill:#7b7325;}.cls-5{fill:#b5944c;}.cls-6{fill:none;}</style></defs><g id="Layer_2" data-name="Layer 2"><g id="Layer_1-2" data-name="Layer 1"><path class="cls-1" d="M180.49,96a90.28,90.28,0,0,1-68.67,87.64q-.22-7-.37-14.09c0-.25,0-.49,0-.73a9.26,9.26,0,0,0,2.34-2.8,51.77,51.77,0,0,0,3.57-8.3c1.11-2.94,2.15-5.91,3.09-8.92a145.27,145.27,0,0,0,4.45-18.33c.06-.41.14-.84.22-1.26.31-1.85.59-4-.46-5.71l-.1-.18a3.63,3.63,0,0,0-.43-.55c-.13-.12-.26-.27-.38-.39a1.81,1.81,0,0,0-.43-.33,5.66,5.66,0,0,0-2.54-1.13,9.42,9.42,0,0,0-1-.15,4.78,4.78,0,0,0-.75-.08h-.25a8.61,8.61,0,0,0-.88,0c-.3,0-.6,0-.93.06a15.37,15.37,0,0,0-2.14.22c-.49.07-1,.13-1.46.22l-1.6.32a.93.93,0,0,0-.24,0l-.27,0h-.06c-.59.07-1.16.17-1.67.24-1.27.19-2.43.37-3.7.53l-.19,0c-2.44.23-5,.39-7.38.73h0l-.19,0-.17,0-.22,0-.35.07-.3,0h0a7.81,7.81,0,0,0-.82.14c-.14,0-.29.06-.43.08-.4.08-.78.15-1.15.26a9.34,9.34,0,0,0-1,.26,14,14,0,0,0-6.32,3.21,5.06,5.06,0,0,0-.83.84,7.12,7.12,0,0,0-.69,1,1.61,1.61,0,0,0-.15.29,4.92,4.92,0,0,0-.39.88s0,0,0,0c-1.6,4.42.9,8.44,3.55,11.78,5.71,7.15,10.3,15.05,15.47,22.58,1.06,1.56,2.43,4.05,4.4,4.62v.24l0,2c.07,4.24.18,8.48.3,12.72-.64.14-1.29.27-1.94.39-2.37.45-4.78.81-7.22,1.06a89.91,89.91,0,0,1-9.62.51c-1.34,0-2.66,0-4-.09h0A90.24,90.24,0,0,1,21.94,37h0A90.74,90.74,0,0,1,32.15,27,90.09,90.09,0,0,1,90.24,5.76c1.54,0,3.07,0,4.58.12A90.26,90.26,0,0,1,180.49,96Z"/><path class="cls-2" d="M110.75,194.59c-.48-.1-1-.21-1.42-.33-3.54-.82-7-1.8-10.28-2.91a109.19,109.19,0,0,1-12.79-5.19h0c-2.08-1-4.1-2-6.08-3.13C59.12,171.39,43.37,154.18,32,137.2c-3.06-4.48-5.76-9-8.21-13.32A196,196,0,0,1,5.69,81.12c.95,1.26,1.81,2.42,2.66,3.47,13.21,16.88,12.65,11,49,41.5a232.25,232.25,0,0,1,49.74,58.59c.31.51.59,1,.87,1.49a.06.06,0,0,0,0,0l1.19,2.79h0l1.49,3.49h0v0Z"/><path class="cls-3" d="M58.51,89.1c.39,6.79,5.83,14.67,5.83,14.67l15.34,20.31a57.4,57.4,0,0,0,6.15,5.09,1.61,1.61,0,0,0-.15.29,4.92,4.92,0,0,0-.39.88c-2.6-.82-4.45-3.83-6.13-5.78-2.16-2.5-4.3-5-6.41-7.53q-6.37-7.59-12.61-15.28c-1.86-2.32-3.7-4.64-5.56-7C46.15,84.26,37.21,73.89,30.77,61.94,28.61,58,23,46.16,21.94,37h0c-.58-5.05.26-9.28,3.86-10.91,2-.92,4.34-.1,6.35.84l0,0C51.85,36.3,61.83,56.16,72.75,73.91c2,3.36,4.18,6.66,6.31,10a61.28,61.28,0,0,1,4.73,8.61l.27.66c.1.22.18.44.27.66.29.7.58,1.39.86,2.08.57,1.38,1.14,2.73,1.71,4.06l.84,2c.39.91.78,1.8,1.17,2.68l0,0C82.67,95,74.07,84.4,74.07,84.4,63.29,74.77,58.13,82.27,58.51,89.1Z"/><path class="cls-3" d="M113.42,121.18h0c-.54.1-1.06.23-1.6.33a15.09,15.09,0,0,0,.6-3.85c0-1.23,0-2.57,0-4,0-.72-.06-1.45-.1-2.21,0-.38,0-.77-.07-1.15q-.08-1.16-.18-2.34c0-.4-.07-.81-.11-1.21-.19-2-.42-4.06-.68-6.09-.15-1.22-.32-2.44-.49-3.64-.13-.92-.26-1.82-.4-2.7-1.29-8.56-2.72-15.51-2.72-15.51C104,62.62,91.4,63.14,85.83,69c-.16.16-.3.32-.45.5A5.3,5.3,0,0,0,85,70a11.29,11.29,0,0,0-.78,1.21l-.23.42A14.41,14.41,0,0,0,83,74c-.15.51-.27,1-.37,1.54a23.26,23.26,0,0,0-.08,7.57l.06.37c.06.42.13.82.21,1.18,0,.14,0,.27.08.39l.09.41c0,.19.08.36.12.52l.14.54c.15.54.25.84.25.84.2.46.48,1.12.82,1.94.17.41.36.85.55,1.33.29.72.62,1.52,1,2.37.15.35.29.72.45,1.09.46,1.12.94,2.32,1.44,3.56l.82,2,.33.83c.23.55.45,1.1.67,1.65h0l.63,1.56c1.15,2.85,2.27,5.65,3.23,8l.74,1.84c.16.41.32.8.47,1.17,0,.14.11.27.16.4l.44,1.09c.12.3.23.56.32.8s.18.45.25.63l.06.16c.13.34.21.52.21.52.13.51.29,1,.45,1.44a13.11,13.11,0,0,0,.57,1.32,11.47,11.47,0,0,0,.88,1.59c.1.17.2.32.31.48l-.19,0-.18,0-.21,0-.35.07-.3,0h0c-.06-.14-.12-.29-.19-.44s-.13-.29-.2-.45l-.41-.93c-2-4.61-4.55-10.38-7.34-16.89h0v0l0,0c-.38-.87-.77-1.75-1.15-2.63-.28-.65-.55-1.31-.83-2-.57-1.33-1.14-2.68-1.71-4.06l-.87-2.08c-.08-.22-.17-.44-.26-.66l-.27-.66c-.38-1-.77-1.94-1.16-2.94-5-12.56-9.87-26.35-12.69-39.19a82.64,82.64,0,0,1-1.72-11.68c-.89-10.82.19-22.82,5.71-31.45a25.94,25.94,0,0,1,2-2.76A12.07,12.07,0,0,1,82.2.25c4-1,8.15,1.05,11.08,3.94.54.54,1,1.1,1.54,1.69a28.55,28.55,0,0,1,3.25,4.83C103.14,20,104.4,32.4,106.42,42a299,299,0,0,1,5.14,35.53h0s0,0,0,.08c.13,1.41.25,2.8.35,4.21.09,1.25.18,2.5.26,3.75s.16,2.5.23,3.75q.42,7.38.57,14.75.09,4.26.08,8.54C113,114.31,113.59,118.23,113.42,121.18Z"/><path class="cls-3" d="M148.83,35.33C149,74.52,131,111.7,124.65,123.51l-.1-.18a3.63,3.63,0,0,0-.43-.55,18.26,18.26,0,0,0,1.58-2.68c5.85-11.77,10.73-34.67,10.73-34.67,5.37-21-5.58-26.24-14-19.27s-8.7,18-8.7,18-.59,22.12-.26,30.41a19,19,0,0,0,1.4,6.38c-.49.07-1,.13-1.46.22h0c.17-3-.39-6.87-.39-8.57,0-2.84,0-5.68-.07-8.53q-.15-7.36-.57-14.75c-.07-1.25-.14-2.5-.23-3.75s-.17-2.5-.26-3.75c-.1-1.41-.22-2.8-.35-4.21,0,0,0-.06,0-.08h0c2.07-28.68,7.59-48.16,7.59-48.16A52.84,52.84,0,0,1,125.67,13c8.45-13.27,20.76-14.12,22.85,14.13C148.71,29.62,148.82,32.35,148.83,35.33Z"/><path class="cls-4" d="M125.11,129.22c-.08.42-.16.85-.22,1.26a145.27,145.27,0,0,1-4.45,18.33c-.94,3-2,6-3.09,8.92a51.77,51.77,0,0,1-3.57,8.3,9.26,9.26,0,0,1-2.34,2.8c0,.24,0,.48,0,.73q.15,7,.37,14.09.15,5.17.33,10.35a2.76,2.76,0,0,1-.07.91c-.2.61-1.24.85-1.79.82a1.07,1.07,0,0,1-.78-.38,1,1,0,0,1-.08-.14,1.32,1.32,0,0,1-.09-.56c0-.13,0-.26,0-.39.47.12.94.23,1.42.33l-.08-2.07v0h0L109.16,189h0c0-1.57-.09-3.13-.14-4.71-.12-4.24-.23-8.48-.3-12.72l0-2v-.24c-2-.57-3.34-3.06-4.4-4.62-5.17-7.53-9.76-15.43-15.47-22.58-2.65-3.34-5.15-7.36-3.55-11.78,0,0,0,0,0,0a4.92,4.92,0,0,1,.39-.88,1.61,1.61,0,0,1,.15-.29,7.12,7.12,0,0,1,.69-1,5.06,5.06,0,0,1,.83-.84,14,14,0,0,1,6.32-3.21,9.34,9.34,0,0,1,1-.26c.37-.11.75-.18,1.15-.26.14,0,.29-.07.43-.08a7.81,7.81,0,0,1,.82-.14h0l.3,0,.35-.07.22,0,.17,0,.19,0h0c2.43-.34,4.94-.5,7.38-.73l.19,0c1.27-.16,2.43-.34,3.7-.53.51-.07,1.08-.17,1.67-.24h.06l.27,0a.93.93,0,0,1,.24,0l1.6-.32c.49-.09,1-.15,1.46-.22a15.37,15.37,0,0,1,2.14-.22c.33,0,.63,0,.93-.06a8.61,8.61,0,0,1,.88,0h.25l.75.08a9.42,9.42,0,0,1,1,.15,5.66,5.66,0,0,1,2.54,1.13,1.81,1.81,0,0,1,.43.33c.12.12.25.27.38.39a3.63,3.63,0,0,1,.43.55l.1.18C125.7,125.21,125.42,127.37,125.11,129.22Z"/><path class="cls-5" d="M97.06,123.35h0a7.81,7.81,0,0,0-.82.14c-.14,0-.29.06-.43.08-.4.08-.78.15-1.15.26a9.34,9.34,0,0,0-1,.26,14,14,0,0,0-6.32,3.21,5.06,5.06,0,0,0-.83.84,7.12,7.12,0,0,0-.69,1,57.4,57.4,0,0,1-6.15-5.09L64.34,103.77S58.9,95.89,58.51,89.1s4.78-14.33,15.56-4.7c0,0,8.6,10.58,14.81,20.16l0,0v0c2.79,6.51,5.37,12.28,7.34,16.89l.41.93c.07.16.14.3.2.45Z"/><path class="cls-5" d="M112.41,117.66a15.09,15.09,0,0,1-.6,3.85.93.93,0,0,0-.24,0l-.27,0h-.06c-.59.07-1.16.17-1.67.24-1.27.19-2.43.37-3.7.53l-.19,0c-2.44.23-5,.39-7.38.73-.11-.16-.22-.32-.32-.48a11.47,11.47,0,0,1-.88-1.59,13.11,13.11,0,0,1-.57-1.32c-.16-.46-.31-.94-.44-1.44h0c0-.06-.09-.23-.21-.52l-.06-.16c-.07-.18-.15-.39-.25-.63s-.2-.5-.32-.8l-.44-1.09c0-.13-.11-.26-.16-.4-.14-.37-.3-.76-.47-1.17l-.74-1.84c-1-2.38-2.07-5.17-3.23-8l-.63-1.56h0c-.22-.55-.44-1.1-.67-1.65l-.33-.83-.82-2-1.44-3.56c-.16-.37-.3-.74-.45-1.09-.35-.85-.68-1.65-1-2.37l-.55-1.33c-.34-.82-.62-1.48-.82-1.94,0,0-.1-.3-.25-.84L83.13,86c0-.16-.08-.33-.12-.52L82.92,85c0-.12,0-.25-.08-.39-.08-.36-.15-.76-.21-1.18l-.06-.37a23.26,23.26,0,0,1,.08-7.57c.1-.51.22-1,.37-1.54A14.41,14.41,0,0,1,84,71.65l.23-.42A13.19,13.19,0,0,1,85,70c.13-.18.27-.36.41-.52s.29-.34.45-.5c5.57-5.86,18.13-6.38,21.83,9.83,0,0,1.43,7,2.72,15.51q.2,1.32.39,2.7c.17,1.2.34,2.42.5,3.64.26,2,.49,4.08.68,6.09,0,.4.08.81.11,1.21q.1,1.18.18,2.34c0,.38.05.77.07,1.15,0,.76.07,1.49.1,2.21C112.45,115.09,112.46,116.43,112.41,117.66Z"/><path class="cls-5" d="M136.43,85.43s-4.88,22.9-10.73,34.67a18.26,18.26,0,0,1-1.58,2.68c-.13-.12-.26-.27-.38-.39a1.81,1.81,0,0,0-.43-.33,5.66,5.66,0,0,0-2.54-1.13,3.37,3.37,0,0,0-1-.15,4.78,4.78,0,0,0-.75-.08h-.25a8.61,8.61,0,0,0-.88,0c-.3,0-.6,0-.93.06a15.37,15.37,0,0,0-2.14.22,19,19,0,0,1-1.4-6.38c-.33-8.29.26-30.41.26-30.41s.28-11.06,8.7-18S141.8,64.4,136.43,85.43Z"/><path class="cls-4" d="M110.75,194.59c-.48-.1-1-.21-1.42-.33,0-.84,0-1.69-.08-2.53s0-1.81-.09-2.72l1.49,3.49h0v0Z"/><path class="cls-6" d="M110.68,192.53l0,0c-40.34-22-87.07-87.41-87.07-87.41"/></g></g></svg>