<svg xmlns="http://www.w3.org/2000/svg" viewBox="0 0 1297.52 182.23"><defs><style>.cls-1{fill:#cab1c6;}.cls-2{fill:#faf4e7;}.cls-3{fill:#e4eaed;}.cls-4{fill:#878039;}.cls-4,.cls-8,.cls-9{stroke:#7b7325;stroke-miterlimit:10;}.cls-4,.cls-9{stroke-width:0.74px;}.cls-5{fill:#e0b75e;}.cls-6{fill:#7b7325;}.cls-7{fill:#b5944c;}.cls-8,.cls-9{fill:none;}.cls-8{stroke-width:1.32px;}</style></defs><g id="Layer_2" data-name="Layer 2"><g id="Layer_1-2" data-name="Layer 1"><path class="cls-1" d="M170,122.49c-2.7-8.44-3.81-18.46-3.81-28.32a65.52,65.52,0,0,1,.55-6.65c-1.22-1-1.06-1-1.42-1.29-5.18-4.09-10.8-6.27-18.8-7.56a38.14,38.14,0,0,0,11-7.75,428.89,428.89,0,0,0-53.61,1.59A33.15,33.15,0,0,1,98.68,75a52.87,52.87,0,0,1-18.61,2.93h-2.7V75.65c-17.13,2.5-34.15,5.88-50.94,10q0,15.75-1.22,31.53c-1.95,26.19-10.38,41.11-25.21,45v5.42c15.69.1,29.43.21,41.22.21h96.63c9.08,0,17-2.06,23.7-6.06a39,39,0,0,0,14.92-15.26c1.63-3.13,1-1.83,1.95-5.41A109.24,109.24,0,0,1,170,122.49ZM126.16,137.2a44.74,44.74,0,0,1-5.74,12.44,26.68,26.68,0,0,1-10.59,9.2,36.78,36.78,0,0,1-15.91,3.35H77V117.72c0-9,.12-20.33.34-34.41H93.92a35.88,35.88,0,0,1,16,3.47,26.56,26.56,0,0,1,10.71,9.31,41.73,41.73,0,0,1,5.62,12.55A61.16,61.16,0,0,1,128,123,54.75,54.75,0,0,1,126.16,137.2Z"/><path class="cls-1" d="M788.26,45.79a19.85,19.85,0,0,1-1.77,8.42c-.11.22-.22.54-.33.76a22.13,22.13,0,0,1-7.9,9.3,21.18,21.18,0,0,1-12.55,3,3.88,3.88,0,0,1-1.07-.1,19.92,19.92,0,0,1-7.25-1.74A25.07,25.07,0,0,1,751.22,62c1.76,1.4,4.09-5.2,4.85-7.7A187.7,187.7,0,0,1,788.26,45.79Z"/><path class="cls-1" d="M788,131.25c-.64,5.73-3.79,11.25-9,16.44a30.42,30.42,0,0,1-3.45,2.93c-.44.42-.88.76-1.31,1.18-7.57,6.93-18.72,13-28.67,16.56a94.61,94.61,0,0,1-32.24,5.74,11.87,11.87,0,0,1-2.06-.12c-1.3.12-2.59.12-3.89.12A97.06,97.06,0,0,1,674,167.71a93,93,0,0,1-28.67-17.09A68.39,68.39,0,0,1,631,132.81a90.44,90.44,0,0,1-5.09-10.55c-.74-1.83-1.42-3.71-2-5.63-.41-1.25-.78-2.51-1.13-3.79l3.07-1,.63-.21c2.95-1,5.88-2,8.81-3l.89-.32q8.15-2.91,16.15-6.17,2.2-.89,4.4-1.8l3.85-1.64q3.52-1.5,7-3.08,4.59-2.07,9.1-4.21.13,7.24.9,14.19c.11,1,.24,2,.37,3.06.21,2,.54,4,.86,6,.11.64.21,1.4.33,2A123.61,123.61,0,0,0,684,135.25c.66,2.06,1.41,4.12,2.27,6.17,0,.1.12.22.12.32a50.48,50.48,0,0,0,9.3,14.72,47.07,47.07,0,0,0,4.11,3.68c5.63,4.54,10.39,5.62,18,5.62a33.91,33.91,0,0,0,4.66-.22c5.3-.32,10.81-1.51,14.71-4.54a33.18,33.18,0,0,0,4-3.67c7.68-6.29,11.57-16.13,13.74-25.65,1.51-6.81,3.35-15.15-3.68-19.58a25.4,25.4,0,0,1,6.17-3.46,19.31,19.31,0,0,1,7.25-1.73,3.26,3.26,0,0,1,1.07-.12,21.33,21.33,0,0,1,12.55,3,22.13,22.13,0,0,1,7.9,9.3A20.55,20.55,0,0,1,788,131.25Z"/><path class="cls-2" d="M756.3,53.46c.87-7.91-2.48-17.75-5.95-24.68a36.73,36.73,0,0,0-9.19-12,34.08,34.08,0,0,0-4-3.68c-3.9-3-9.41-4.21-14.71-4.54a33.91,33.91,0,0,0-4.66-.22c-7.57,0-12.33,1.09-18,5.63-1.4,1.2-2.81,2.38-4.11,3.69a51.25,51.25,0,0,0-9.42,15c-.86,2.06-1.61,4.11-2.27,6.16a123.31,123.31,0,0,0-5.08,19.91c0,.22-.11.54-.11.76-.32,2-.65,3.9-.86,5.95a153.61,153.61,0,0,0-1.3,22.73v.19a27,27,0,0,0-4.44,2.32,111,111,0,0,0-11.65,8l-3.85,1.64c2.4-3.1,4.69-6.29,6.82-9.6,3.24-5,8.4-11.18,8.34-17.51a5.94,5.94,0,0,0-2.47-5.14,5.87,5.87,0,0,0-3.6-.66c-7.34.69-14,8-17.71,13.77a127,127,0,0,0-9,17.83c-.29.69-.57,1.37-.86,2a27.69,27.69,0,0,0,1.57-5.21c.4-1.87.78-3.74,1.22-5.6,2.28-9.83,5.61-20.07,2-30a3.79,3.79,0,0,0-1.91-2.47c-5-1.87-9.54,10.78-10.49,14-1.85,6.31-2.3,12.93-3,19.43-.14,1.43-.3,2.86-.44,4.29q-.48,4.77-.86,9.56c-.13,1.58-.25,3.18-.36,4.78,0,.58-.14,1.27-.18,2l-3.07,1a91.11,91.11,0,0,1-2.81-17c0-.54-.1-1.19-.1-1.85a54.26,54.26,0,0,1-.33-6V86.13a54.44,54.44,0,0,1,.33-6.06,5.44,5.44,0,0,1,.1-1.84,87.3,87.3,0,0,1,6-26.4c4.76-11.68,11.13-21.1,19.36-28.35A93,93,0,0,1,674,6.39,97.06,97.06,0,0,1,707.4,0c1.3,0,2.59,0,3.89.11A12.93,12.93,0,0,1,713.35,0a94.61,94.61,0,0,1,32.24,5.74c9.95,3.57,21.1,9.63,28.67,16.55.43.44.87.76,1.31,1.19.64.54,1.29,1,1.93,1.62A8.68,8.68,0,0,1,779,26.41c5.19,5.19,8.34,10.71,9,16.45a17.15,17.15,0,0,1,.26,2.93,187.7,187.7,0,0,0-32.19,8.51C756.18,53.89,756.26,53.59,756.3,53.46Z"/><path class="cls-3" d="M663.55,90.72c-2.13,3.31-4.42,6.5-6.82,9.6q-2.19.92-4.4,1.8-8,3.25-16.15,6.17l-.89.32c-2.93,1-5.86,2-8.81,3l-.63.21c0-.68.14-1.37.18-2,.11-1.6.23-3.2.36-4.78q.38-4.78.86-9.56c.14-1.43.3-2.86.44-4.29.69-6.5,1.14-13.12,3-19.43,1-3.27,5.44-15.92,10.49-14a3.79,3.79,0,0,1,1.91,2.47c3.6,9.92.27,20.16-2,30-.44,1.86-.82,3.73-1.22,5.6a27.69,27.69,0,0,1-1.57,5.21c.29-.67.57-1.35.86-2a127,127,0,0,1,9-17.83c3.68-5.8,10.37-13.08,17.71-13.77a5.87,5.87,0,0,1,3.6.66,5.94,5.94,0,0,1,2.47,5.14C672,79.54,666.79,85.68,663.55,90.72Z"/><path class="cls-3" d="M676.7,91.39q-4.5,2.13-9.1,4.21-3.5,1.58-7,3.08a111,111,0,0,1,11.65-8,27,27,0,0,1,4.44-2.32C676.67,89.39,676.68,90.39,676.7,91.39Z"/><path class="cls-1" d="M891.76,55.66l-1.3,3.75-1.4,4.22c-8-6.93-17-11.05-24.45-11.05a20.33,20.33,0,0,0-6.28,1h-.11c-8.55,2.92-14.38,12.34-14.38,29.87v85.69H786.16v-.33H764.85v-5.4c8.77-2.39,15.36-8.45,19.58-18.29,0-.11.11-.11.11-.22,3.79-4.44,6.06-9.09,6.6-13.85a20.32,20.32,0,0,0-1.29-10.7,55.08,55.08,0,0,1,.44-6.19c1.2-14.93.85-24.66-.34-39.69-.54-7.79-.32-10-2.05-15.7,2.77-4.09,3.4-9.33,3.3-13.42a153.12,153.12,0,0,1,25.69-1.6q5.25.12,10.46.48c-9.85,24.91-.52,55.13,7.83,55.13,5.51,0,0-18.18,0-30.31,0-9.68,1.37-17.5,3.89-23.74C856.83,47.35,874.38,51.18,891.76,55.66Z"/><path class="cls-2" d="M840.81,25.1a47.93,47.93,0,0,0-13.46,19.11q-5.21-.36-10.46-.48a153.12,153.12,0,0,0-25.69,1.6,28.71,28.71,0,0,0-.38-4.21c-.65-5.73-2.71-9.41-7.9-14.61-.44-.43-.1-1.19-.66-1.51Z"/><path class="cls-2" d="M901.5,27.59l0,.08-1.59,4.58-8.12,23.41c-17.38-4.48-34.93-8.31-52.69-10.37,4.84-11.94,13.87-18,25.54-20.19h.1a58.35,58.35,0,0,1,10.83-1,100.92,100.92,0,0,1,20.22,2.13C897.64,26.65,899.56,27.1,901.5,27.59Z"/><path class="cls-2" d="M168.68,41.77a48.57,48.57,0,0,1-2.05,14.39,34.54,34.54,0,0,1-7.47,13c-.53.6-1.08,1.2-1.65,1.77a428.89,428.89,0,0,0-53.61,1.59,24.6,24.6,0,0,0,6.68-5.63,32.06,32.06,0,0,0,5.74-11,44.59,44.59,0,0,0,1.73-13,53.32,53.32,0,0,0-1.73-12.56A32.55,32.55,0,0,0,111,19.48c-2.49-3.46-6.38-6.17-11.58-8.11A57.37,57.37,0,0,0,80.28,8.55h-2.7l.22,22.94c-.11,2.81-.22,9.63-.33,20.34-.09,9.63-.1,17.53-.1,23.82-17.13,2.5-34.15,5.88-50.94,10q0-16-1.22-31.87C23.26,27.59,14.83,12.45,0,8.55V3.37c19.15-.22,35.82-.22,50.2-.22h74a56.32,56.32,0,0,1,19,3.13A36.5,36.5,0,0,1,157.11,15a52.3,52.3,0,0,1,8.44,12.34A34.56,34.56,0,0,1,168.68,41.77Z"/><path class="cls-2" d="M447.94,98.13a78.76,78.76,0,0,1-3.24,22.94.35.35,0,0,0-.12.22c-.52,1.53-1.06,3.1-1.65,4.63q-19.68-1.64-39.28-4.17a227.44,227.44,0,0,0-9.91-28.59c-.34-1.08-.88-2.16-1.3-3.36a287,287,0,0,0-13.52-27c-4.56-7.79-8.78-14-12.67-18.29-.75-.75-1.41-1.62-2.16-2.27a33.56,33.56,0,0,0-8.55-6.71c-3.35-1.73-5.84-2-7.9-.65-4.33,2.27-5.84,9.42-4.33,21.43q2.12,17.2,13.74,44.35l1,2.27q2.82,6.75,5.8,12.74-24-4.26-47.82-9.91c-19-4.5-37.09-10.65-55.48-16.43-.19-7.79-.67-15.05-1.4-21.77-1-9-2.37-16.34-4.22-21.86s-3.78-9.63-6.16-12.55-4.55-4.11-6.92-3.79c-4.88.32-9.09,6.28-12.55,17.86q-3.74,12.47-4.91,32.08a355.93,355.93,0,0,0-51.54-7.52,67.32,67.32,0,0,1,3.1-8.55,62.85,62.85,0,0,1,16.45-22.72,78,78,0,0,1,22.94-13.64,71.67,71.67,0,0,1,26.51-5,72.67,72.67,0,0,1,50,18.29c6.82,6.07,12.45,14.18,16.67,24.23,0,.12.1.22.1.34a7.69,7.69,0,0,1,.54-1.52,63,63,0,0,1,16.45-22.72,78,78,0,0,1,22.94-13.64,71.29,71.29,0,0,1,26.51-5,74.14,74.14,0,0,1,26.83,4.44,73,73,0,0,1,23,13.85c6.92,6.07,12.55,14.18,16.77,24.23a75.76,75.76,0,0,1,4.43,14.94v.11A93.85,93.85,0,0,1,447.94,98.13Z"/><path class="cls-1" d="M442.93,125.92c-.35,1-.74,1.92-1.16,2.84a61.23,61.23,0,0,1-16.55,22.6A77.07,77.07,0,0,1,402,164.9a82,82,0,0,1-26.62,4.86A84.44,84.44,0,0,1,353.91,167a66,66,0,0,1-19.68-9A72.93,72.93,0,0,1,318,143.15a62.59,62.59,0,0,1-8.88-15.69c-.22.42-.32.86-.54,1.3A61.12,61.12,0,0,1,292,151.36a77.19,77.19,0,0,1-23.26,13.54,82,82,0,0,1-26.62,4.86A84.44,84.44,0,0,1,220.72,167,66,66,0,0,1,201,158a72.93,72.93,0,0,1-16.23-14.82,41.52,41.52,0,0,1-4.44-6.71,68.38,68.38,0,0,1-6.49-14.71,89.72,89.72,0,0,1-4.11-27.49,17.54,17.54,0,0,1,.21-3.36,75,75,0,0,1,2.85-19.14,355.93,355.93,0,0,1,51.54,7.52c-.31,5.14-.47,10.64-.51,16.5A192.94,192.94,0,0,0,226.35,132c1.73,10.39,4,18,6.71,22.83s5.74,7.36,9.09,7.58c3.14.1,6-2.06,8.76-6.61s5-11.79,6.82-22a238.32,238.32,0,0,0,2.92-36.13q0-4.3-.12-8.42c18.39,5.78,36.5,11.93,55.48,16.43q23.76,5.66,47.82,9.91A172.32,172.32,0,0,0,374.9,135a89.24,89.24,0,0,0,11.8,15,31.37,31.37,0,0,0,3.57,3.14c4.54,3.35,8.23,4.44,11.36,3.25,2.92-1.2,4.65-4.33,5.31-9.52s-.12-12.88-2.71-22.84c-.18-.78-.38-1.56-.58-2.35Q423.23,124.3,442.93,125.92Z"/><path class="cls-3" d="M599.19,23.63a5.94,5.94,0,0,0-5.37-1.91,5.87,5.87,0,0,0-3,2.05c-3.52,4.21-4.22,10.75-3.74,16.58a11.13,11.13,0,0,1,1.44,4.23c5.08-2.92,8.76-6.7,10.81-11.14a24.38,24.38,0,0,0,2.21-6.65A13.49,13.49,0,0,0,599.19,23.63Zm-19.9,80.47c0-.29-.07-.59-.11-.89-.24-.61-.48-1.27-.75-2a95.47,95.47,0,0,0,2.37,22.37l.74-.14c-.07-.46-.13-.93-.2-1.4C580.48,115.67,579.83,109.72,579.29,104.1Z"/><path class="cls-2" d="M601.51,26.79a13.49,13.49,0,0,0-2.32-3.16,5.94,5.94,0,0,0-5.37-1.91,5.87,5.87,0,0,0-3,2.05c-3.52,4.21-4.22,10.75-3.74,16.58A15.11,15.11,0,0,0,583,35.93,14.82,14.82,0,0,0,572.91,33c-12.66,1.08-25.32,7.47-38,19a47.52,47.52,0,0,1,7.68-.32,33.13,33.13,0,0,1,16.66,5.84,34,34,0,0,1,10.61,12,81,81,0,0,1,6.06,16.56,134.71,134.71,0,0,1,3.24,17.08c-.24-.61-.48-1.27-.75-2a95.47,95.47,0,0,0,2.37,22.37,305.87,305.87,0,0,1-52.37,5.58c0-3.46,0-6.39,0-8.74a48.26,48.26,0,0,0-2-14,31.22,31.22,0,0,0-5.19-10.6c-2.17-2.71-4.44-4.44-6.93-5.09-3.89-1.18-7.79,1.09-11.46,6.71s-5.74,13.74-6.07,24.67v6.59l-9.19-.28q-20.08-.6-40.16-2.18c4.58-10.84,4.88-20.13,4.88-28.12a149.91,149.91,0,0,0-1.74-18.69,48.84,48.84,0,0,0-2.88-10.54l-2.3-5.8c0-4,.22-.92-.43-9.36q-2.92-39.6-25.21-45.23V3.15q42.69-.33,77.79,0V31.27c-.1.44-.22,8.34-.32,23.6s-.22,27.26-.44,36.13c.66-3.47,2.49-8.23,5.52-14.18s6.71-12.55,11.15-19.8a173.86,173.86,0,0,1,16-21.31,203.63,203.63,0,0,1,18.4-18.82A69.23,69.23,0,0,1,567.39,4.66C574.21,2,580.48,1.42,586,3.15a20.54,20.54,0,0,1,10.39,6.59,22.6,22.6,0,0,1,5.19,11A17.61,17.61,0,0,1,601.51,26.79Z"/><path class="cls-1" d="M606.23,162.19v5.42h-78c0-5.3.11-13.21.11-23.6,0-5.72.09-10.68.1-14.84a305.87,305.87,0,0,0,52.37-5.58l.74-.14c.39,2.76.78,5.25,1.19,7.47s.86,4.32,1.32,6.06q4.47,15.61,14.6,22A27.15,27.15,0,0,0,606.23,162.19Z"/><path class="cls-1" d="M496.84,128.75v38.86h-77v-5.74c14.05-4.36,18.42-15.5,23.72-26.43,0,0,3.43-8.08,3.53-8.19l.43-1q20.06,1.56,40.16,2.18Z"/><path class="cls-2" d="M1010.42,26.08V88c-17.17-4.41-34.29-9-51.4-13.77V26.08Z"/><path class="cls-2" d="M925.92,26.08V65l-4.24-1.18C912.84,61.32,904,58.85,895,56.51L903.19,33l1.58-4.52a21.69,21.69,0,0,1,1-2.25C916.14,26.13,916.47,26.08,925.92,26.08Z"/><path class="cls-1" d="M1035.85,164.36v5.4H995.6a35.74,35.74,0,0,1-23.27-8.22,19.8,19.8,0,0,1-1.52-1.52c-4.1-5-6.7-14.38-4.21-22.92,3.67-12.77,7-25.55,8-38.85.54-8.11-5.2-9.63-7.69-7.14-1.95,2-.32,8.33-1.08,14.06A109.47,109.47,0,0,1,959,130.49a4.17,4.17,0,0,0-.44,1,97.65,97.65,0,0,1-13.4,23.48c-5.3,6.6-10.61,11.26-16,13.85A32.31,32.31,0,0,1,912.6,172c-11.57-1.07-20.77-7.25-27.8-18.7s-10.28-25.75-9.74-42.86c-.22-16.11-.54-27.58-1-34.29a97.73,97.73,0,0,0-3.15-19.32c6.82,1.08,12.32,5.65,19.35,11.72l3.06-7.22L895,56.51c8.93,2.34,17.81,4.81,26.65,7.29L925.92,65V89.05c0,25.64,6.16,40.14,18.5,43.39,2.59.65,5-.54,7-3.79s3.57-7.57,4.54-13.1,1.73-10.38,2.27-14.6A114.93,114.93,0,0,0,959,89.26V74.2c17.11,4.73,34.23,9.36,51.4,13.77v2.27c0,2.17,0,12.23.22,30.09.1,11.25,2.27,20.87,6.37,28.77A28.36,28.36,0,0,0,1035.85,164.36Z"/><path class="cls-2" d="M1219.73,119.35q3.88-50.8-17.86-56.48a5,5,0,0,0-2.81.21,7.17,7.17,0,0,0-2.71,2,21.34,21.34,0,0,0-2.59,4,35.13,35.13,0,0,0-2.39,6.17c-.64,2.49-1.4,5.3-1.94,8.33s-1.09,6.93-1.52,11.15-.65,8.87-.86,13.84v12.57q-18-2-35.94-4.54a53.15,53.15,0,0,0-14.7-31.07c0-3.13,0-2.66-.15-5.8l2.46.41,10.22-49.87a110.18,110.18,0,0,0-22.49-10.63c-5.11-5.11-9.73-7.14-16.44-8.87V5.3c27.59-.21,52.58-.21,75.3,0a56.5,56.5,0,0,1-.1,24.46c-2.82,13-12.56,53.35-13.42,66.65-.65,8.22,5.2,9.62,7.57,7.14,2-2.06.44-8.33,1.09-14a110.68,110.68,0,0,1,6.92-25.55v.76q8.6-21.75,21.1-32.35t25.32-9.41c11.47,1,20.77,7.25,27.8,18.83s10.18,25.86,9.42,42.95c.43,16.23.76,27.81,1.29,34.52.21,2.89.5,5.63.86,8.25q-27-1.06-53.9-3.35C1219.44,122.67,1219.6,121,1219.73,119.35Z"/><path class="cls-1" d="M1297.52,164v5.73c-34.41.12-68.81.12-103,0V164c13.87-3.55,22.06-16.75,24.73-39.78h0q26.9,2.27,53.9,3.35C1276.08,148.57,1284.14,160.67,1297.52,164Z"/><path class="cls-1" d="M1187.05,121.09v48.67h-77v-1.29a104.39,104.39,0,0,0,10.38-3.47c9.2-3.78,16.57-9.3,21.87-16.65a44.33,44.33,0,0,0,9-23.26,46,46,0,0,0-.13-8.54Q1169,119.1,1187.05,121.09Z"/><path class="cls-1" d="M1147.65,124.11a45.12,45.12,0,0,1-9.09,23.26A48.51,48.51,0,0,1,1116.71,164c-21.56,8.62-48.14,9.55-70.23,2.28-8.53-2.81-16.76-7.26-22.49-14.17a41.24,41.24,0,0,1-8.94-24.58,30.93,30.93,0,0,1,5.7-19.43c4.72-6.32,12.17-10.24,19.91-11.74.77-.15,1.55-.28,2.33-.37h0q6.51,1.56,13,3h0a19.22,19.22,0,0,1,6,8.29,32.27,32.27,0,0,1,1.49,14.9c-9.51-3.13-22.6,2.18-24.56,12.76-1.41,7.56,3.32,17.41,8.73,22.57,11.39,10.91,30.75,5.09,40.19-5.56a24.25,24.25,0,0,0,6.39-16.55,32.19,32.19,0,0,0-3-13.21,48,48,0,0,0-6.81-11.25,53.64,53.64,0,0,0-7.61-7.42q19.11,4,38.4,7.35,16.11,2.78,32.3,5.11A45.23,45.23,0,0,1,1147.65,124.11Z"/><path class="cls-3" d="M1051.94,96.75a14.6,14.6,0,0,1,4.13,2.31q-6.54-1.49-13-3A19.29,19.29,0,0,1,1051.94,96.75Z"/><path class="cls-2" d="M1147.56,116.05q-16.2-2.34-32.3-5.11-19.3-3.31-38.4-7.35h0c-1.19-1-2.49-2-3.85-3.07q-7.63-5.83-12.34-8.77c-3.13-2-7.68-4.86-13.85-8.64a11.55,11.55,0,0,1-1.19-.66,6.47,6.47,0,0,1-1.08-.76,5.36,5.36,0,0,0-1.41-.53,103.41,103.41,0,0,1-14.93-11A29.63,29.63,0,0,1,1020,57.89c-2.16-5.09-2.28-10.93-.21-17.42s6.37-12,12.76-16.67c11.36-8,29-11.13,52.8-9.08s43.71,7.79,59.29,17.53l-8.65,43h-6.61c.34-17.09-2.81-29.85-9.4-38.19s-14.5-12.55-23.7-12.65c-8.44,0-14,2.27-16.77,6.69s-1.41,9.1,4.43,13.53c4.55,3.58,10.17,8,16.66,13.2s12,9.63,16.56,13.42l7.78,6.49a55.4,55.4,0,0,1,17.86,21.43A52.69,52.69,0,0,1,1147.56,116.05Z"/><path class="cls-4" d="M611.59,168.82h0A54.62,54.62,0,0,1,598.65,159c-8.13-8.35-13-18.55-15.92-28-.78-2.51-1.41-5-1.93-7.33a95.47,95.47,0,0,1-2.37-22.37c.27.72.51,1.38.75,2,3.75,9.68,4.33,6.86,16.89,26.13a112.55,112.55,0,0,1,15,35,0,0,0,0,0,0,0l.37,3.31Z"/><path class="cls-5" d="M595.58,84.19a.91.91,0,0,0-.07.14,2.35,2.35,0,0,0-.19.43c-1.26-.4-2.16-1.86-3-2.8-1.05-1.21-2.09-2.44-3.11-3.65q-3.09-3.68-6.11-7.41l-2.69-3.36c-4.08-5.11-8.42-10.13-11.54-15.92-1.62-3-7.32-15.15-2.41-17.37a3.8,3.8,0,0,1,3.09.42c9.54,4.52,14.37,14.14,19.66,22.74,1,1.63,2,3.23,3.06,4.84a27.37,27.37,0,0,1,2.55,4.81c.56,1.36,1.12,2.67,1.65,3.93l.57,1.3c-3-4.64-7.19-9.79-7.19-9.79-5.22-4.67-7.72-1-7.54,2.27s2.83,7.11,2.83,7.11l7.43,9.84A26.13,26.13,0,0,0,595.58,84.19Z"/><path class="cls-5" d="M609,80.32l-.78.16a7.33,7.33,0,0,0,.29-1.86,62,62,0,0,0-.79-10c-.67-4.72-1.51-8.82-1.51-8.82-1.9-8.29-8.57-7.55-11-4.27s-.7,8.39-.7,8.39c.4.89,1.38,3.32,2.45,6,1.71,4.24,3.64,9.05,3.64,9.05a6.93,6.93,0,0,0,.49,1.33,6.51,6.51,0,0,0,.58,1,1,1,0,0,0-.18,0l-.27,0-.15,0-.39-.88c-1-2.23-2.2-5-3.56-8.19h0L596.5,71c-.53-1.26-1.09-2.57-1.65-3.93-.08-.21-.17-.43-.26-.64-.18-.47-.37-.94-.56-1.42a125.72,125.72,0,0,1-6.15-19,40.46,40.46,0,0,1-.83-5.66c-.48-5.83.22-12.37,3.74-16.58a5.87,5.87,0,0,1,3-2.05,5.94,5.94,0,0,1,5.37,1.91,13.49,13.49,0,0,1,2.32,3.16c2.46,4.51,3.07,10.51,4,15.16a145.46,145.46,0,0,1,2.49,17.22v0c.06.69.12,1.36.17,2,.37,5,.56,10,.55,14.92C608.76,77,609,78.89,609,80.32Z"/><path class="cls-5" d="M626.11,38.72c.1,19-8.66,37-11.72,42.73a.26.26,0,0,0,0-.09,1.15,1.15,0,0,0-.21-.27,8.29,8.29,0,0,0,.77-1.29c2.83-5.71,5.2-16.8,5.2-16.8,2.6-10.19-2.7-12.72-6.78-9.34a12.78,12.78,0,0,0-4.22,8.73s-.28,10.72-.13,14.73a9.36,9.36,0,0,0,.68,3.1l-.7.1c.08-1.43-.19-3.33-.19-4.15,0-5-.18-10-.55-14.92-.05-.68-.11-1.35-.17-2v0a128.32,128.32,0,0,1,3.67-23.34C614.75,22.39,626,15.72,626.11,38.72Z"/><path class="cls-6" d="M614.62,84.22c0,.2-.08.4-.11.61a70.94,70.94,0,0,1-2.16,8.88c-.45,1.46-1,2.89-1.49,4.32a24.77,24.77,0,0,1-1.74,4c-.47.79-1.25,1.85-2.31,1.66s-1.74-1.48-2.28-2.28C602,97.78,599.8,94,597,90.49c-1.29-1.62-2.5-3.57-1.72-5.71,0,0,0,0,0,0a2.35,2.35,0,0,1,.19-.43.91.91,0,0,1,.07-.14,3.69,3.69,0,0,1,.34-.5,2.56,2.56,0,0,1,.4-.41,6.72,6.72,0,0,1,3.06-1.55l.48-.13c.18,0,.36-.08.55-.12l.21,0,.4-.07.15,0,.27,0a1,1,0,0,1,.18,0c1.18-.17,2.4-.24,3.58-.36h.09c.62-.08,1.18-.16,1.79-.26l.81-.11h.16l.12,0,.78-.16.7-.1a7.34,7.34,0,0,1,1-.11l.45,0c.15,0,.29,0,.43,0l.48,0a3.4,3.4,0,0,1,.46.08,2.7,2.7,0,0,1,1.23.54,1.28,1.28,0,0,1,.21.16c.06.06.12.14.18.19a1.15,1.15,0,0,1,.21.27.26.26,0,0,1,0,.09A4,4,0,0,1,614.62,84.22Z"/><path class="cls-7" d="M601,81.37l-.4.07-.21,0c-.19,0-.37.07-.55.12l-.48.13a6.72,6.72,0,0,0-3.06,1.55,2.56,2.56,0,0,0-.4.41,3.69,3.69,0,0,0-.34.5,26.13,26.13,0,0,1-3-2.47l-7.43-9.84s-2.64-3.81-2.83-7.11,2.32-6.94,7.54-2.27c0,0,4.18,5.15,7.19,9.79h0c1.36,3.16,2.61,6,3.56,8.19Z"/><path class="cls-7" d="M608.46,78.62a7.33,7.33,0,0,1-.29,1.86l-.12,0h-.16l-.81.11c-.61.1-1.17.18-1.79.26h-.09c-1.18.12-2.4.19-3.58.36a6.51,6.51,0,0,1-.58-1,6.93,6.93,0,0,1-.49-1.33s-1.93-4.81-3.64-9.05c-1.07-2.64-2-5.07-2.45-6,0,0-1.72-5.12.7-8.39s9.1-4,11,4.27c0,0,.84,4.1,1.51,8.82A62,62,0,0,1,608.46,78.62Z"/><path class="cls-7" d="M620.1,63s-2.37,11.09-5.2,16.8a8.29,8.29,0,0,1-.77,1.29c-.06,0-.12-.13-.18-.19a1.28,1.28,0,0,0-.21-.16,2.7,2.7,0,0,0-1.23-.54,1.77,1.77,0,0,0-.46-.08,3.88,3.88,0,0,0-.48,0c-.14,0-.28,0-.43,0l-.45,0a7.34,7.34,0,0,0-1,.11,9.36,9.36,0,0,1-.68-3.1c-.15-4,.13-14.73.13-14.73a12.78,12.78,0,0,1,4.22-8.73C617.4,50.28,622.7,52.81,620.1,63Z"/><path class="cls-5" d="M641.07,90.24c-.44,1.86-.82,3.73-1.22,5.6a27.69,27.69,0,0,1-1.57,5.21l-1.59,4q-.26.67-.51,1.32c1.13-5.42,1.77-12,1.77-12-.43-7-4.77-6.16-7-3.68s-3,7-3,7l-1.63,12.23c0,.62.06,1.2.11,1.73a20.78,20.78,0,0,0,.28,2.12l-.15,0a2,2,0,0,0-.43.17,4.07,4.07,0,0,1-.33-2.13c0-.68.14-1.37.18-2,.11-1.6.23-3.2.36-4.78q.38-4.78.86-9.56c.14-1.43.3-2.86.44-4.29.69-6.5,1.14-13.12,3-19.43,1-3.27,5.44-15.92,10.49-14a3.79,3.79,0,0,1,1.91,2.47C646.68,70.17,643.35,80.41,641.07,90.24Z"/><path class="cls-5" d="M671.89,73.21c.06,6.33-5.1,12.47-8.34,17.51-2.13,3.31-4.42,6.5-6.82,9.6q-1.72,2.24-3.52,4.39l0,0c-.44.53-.87,1.05-1.32,1.57-3.22,3.79-6.59,7.47-10.09,11-.58.59-1.72,2.13-2.79,3.09l-.66-.44a7.22,7.22,0,0,0,1.52-1.11,61.6,61.6,0,0,0,6.46-7.67c2.85-3.82,5.13-7.34,5.13-7.34a12.91,12.91,0,0,0,.9-1.71c2.73-6.17-2-9.63-5.72-9.05-4,.62-6.4,5.47-6.4,5.47-.35.92-1.36,3.33-2.45,6-.52,1.26-1.07,2.57-1.58,3.79L634,113.5a8.13,8.13,0,0,0-.59,1.29,7.23,7.23,0,0,0-.29,1.13.65.65,0,0,0-.15-.1,1.6,1.6,0,0,0-.23-.16l-.12-.09c.11-.29.22-.6.34-.9.68-1.71,1.46-3.77,2.34-6.06.29-.73.58-1.49.89-2.27h0q.26-.64.51-1.32l1.59-4c.29-.67.57-1.35.86-2a127,127,0,0,1,9-17.83c3.68-5.8,10.37-13.08,17.71-13.77a5.87,5.87,0,0,1,3.6.66A5.94,5.94,0,0,1,671.89,73.21Z"/><path class="cls-5" d="M680.44,102.86c-.92.94-1.87,1.85-2.84,2.72-13,11.76-29.76,17.65-35.53,19.44,0,0,0-.07,0-.1a1,1,0,0,0,0-.33,8.43,8.43,0,0,0,1.46-.39c6-2.06,15.51-8.29,15.51-8.29,9-5.42,7-11,1.74-11.41a12.76,12.76,0,0,0-9.14,3.25s-7.74,7.42-10.45,10.39a9.23,9.23,0,0,0-1.69,2.67l-.58-.42c1.07-1,2.21-2.5,2.79-3.09,3.5-3.52,6.87-7.2,10.09-11,.45-.52.88-1,1.32-1.57l0,0c2.61-2.29,5.1-4.3,7.37-6a111,111,0,0,1,11.65-8,27,27,0,0,1,4.44-2.32C686.61,84.29,694.46,88.52,680.44,102.86Z"/><path class="cls-6" d="M640.28,127.15l-.51.36a71.16,71.16,0,0,1-7.77,4.8q-2,1.06-4.1,2a25.74,25.74,0,0,1-4.06,1.64c-.89.23-2.19.44-2.81-.45s-.2-2.27,0-3.22c.78-4.36,1.88-8.64,2.35-13.05.23-2.06.74-4.29,2.79-5.27h0a2,2,0,0,1,.43-.17l.15,0a3.42,3.42,0,0,1,.59-.12,2.69,2.69,0,0,1,.57,0,6.76,6.76,0,0,1,3.27,1,4.63,4.63,0,0,1,.43.24q.24.14.48.3l.18.12.33.24.12.09a1.6,1.6,0,0,1,.23.16.65.65,0,0,1,.15.1c1,.71,1.87,1.51,2.8,2.26l.07,0c.49.38.95.72,1.45,1.08l.66.49h0l.1.08.1.06.66.44.58.42a6.48,6.48,0,0,1,.81.66,3.37,3.37,0,0,1,.35.29l.3.3c.11.12.21.24.31.37a3.08,3.08,0,0,1,.28.38,2.78,2.78,0,0,1,.49,1.25.8.8,0,0,1,0,.26,2.43,2.43,0,0,1,0,.27,1,1,0,0,1,0,.33s0,.07,0,.1A4.06,4.06,0,0,1,640.28,127.15Z"/><path class="cls-7" d="M632.61,115.57l-.33-.24-.18-.12q-.24-.17-.48-.3a4.63,4.63,0,0,0-.43-.24,6.76,6.76,0,0,0-3.27-1,2.69,2.69,0,0,0-.57,0,3.42,3.42,0,0,0-.59.12,27.4,27.4,0,0,1-.39-3.85L628,97.67s.81-4.56,3-7,6.53-3.31,7,3.68c0,0-.64,6.6-1.77,12h0c-1.26,3.2-2.33,6.07-3.23,8.33C632.83,115,632.72,115.28,632.61,115.57Z"/><path class="cls-7" d="M639.84,118.84a7.22,7.22,0,0,1-1.52,1.11l-.1-.06-.1-.08h0l-.66-.49c-.5-.36-1-.7-1.45-1.08l-.07,0c-.93-.75-1.84-1.55-2.8-2.26a7.23,7.23,0,0,1,.29-1.13,8.13,8.13,0,0,1,.59-1.29s2-4.78,3.77-9c1.09-2.63,2.1-5,2.45-6,0,0,2.37-4.85,6.4-5.47s9.3,3.53,4.82,10.76c0,0-2.28,3.52-5.13,7.34A61.6,61.6,0,0,1,639.84,118.84Z"/><path class="cls-7" d="M659.1,115.91s-9.48,6.23-15.51,8.29a8.43,8.43,0,0,1-1.46.39,2.43,2.43,0,0,0,0-.27.8.8,0,0,0,0-.26,2.78,2.78,0,0,0-.49-1.25,1.69,1.69,0,0,0-.28-.38,2.76,2.76,0,0,0-.31-.37l-.3-.3a3.37,3.37,0,0,0-.35-.29,6.48,6.48,0,0,0-.81-.66,9.23,9.23,0,0,1,1.69-2.67c2.71-3,10.45-10.39,10.45-10.39a12.76,12.76,0,0,1,9.14-3.25C666.11,105,668.11,110.49,659.1,115.91Z"/><path class="cls-8" d="M607.28,100.8a703.59,703.59,0,0,0,5.3,76.42c.2,1.63.42,3.27.64,4.92"/><path class="cls-8" d="M622.64,134s-10.8,18.77-9.42,48.19"/><path class="cls-9" d="M611.46,167.64h0c-15.61-15.88-28.09-52.77-28.09-52.77"/></g></g></svg>