<svg xmlns="http://www.w3.org/2000/svg" viewBox="0 0 902.12 367.51"><defs><style>.cls-1{fill:#cab1c6;}.cls-2{fill:#faf4e7;}.cls-3{fill:#878039;}.cls-3,.cls-7{stroke:#7b7325;stroke-miterlimit:10;stroke-width:3.11px;}.cls-4{fill:#e0b75e;}.cls-5{fill:#7b7325;}.cls-6{fill:#b5944c;}.cls-7{fill:none;}</style></defs><g id="Layer_2" data-name="Layer 2"><g id="Layer_1-2" data-name="Layer 1"><rect class="cls-1" width="902.12" height="365.96"/><path class="cls-2" d="M795.29,366H779.61q-3.17-9.51-6.25-19c-.17-.49-.31-1-.45-1.43a18.79,18.79,0,0,0,2.93-6.86c1.52-5.89,1.65-12.3,2.11-18.38.44-6.42.73-12.85.79-19.31a296,296,0,0,0-2.08-38.55c-.13-.84-.22-1.73-.31-2.6-.49-3.81-1.21-8.21-4.27-10.92l-.31-.29a7.89,7.89,0,0,0-1.16-.83c-.33-.16-.67-.37-1-.54a3.61,3.61,0,0,0-1-.39,11.58,11.58,0,0,0-5.65-.72,19.41,19.41,0,0,0-2,.27,11,11,0,0,0-1.52.28c-.15.05-.34.08-.49.13a17.76,17.76,0,0,0-1.73.52c-.58.2-1.16.39-1.79.67a30.51,30.51,0,0,0-4.06,1.69c-.92.43-1.83.83-2.73,1.29l-1.47.78c-.5.27-1,.54-1.48.79a2.06,2.06,0,0,0-.44.24l-.51.24-.11,0c-1.11.49-2.17,1-3.13,1.46-2.38,1.12-4.55,2.16-6.94,3.22l-.36.17c-4.64,1.89-9.47,3.68-14,5.78h0l-.36.15c-.11.08-.22.13-.3.2l-.18.08-.24.11c-.22.11-.43.21-.64.34l-.57.26h0a16.57,16.57,0,0,0-1.52.76c-.27.1-.53.29-.8.41-.73.39-1.44.75-2.1,1.19a18.18,18.18,0,0,0-1.77,1.09c-5.32,3.24-8.63,6.68-10.49,10a10.51,10.51,0,0,0-1.13,2.14,14.69,14.69,0,0,0-.75,2.43,3.33,3.33,0,0,0-.12.65,10.12,10.12,0,0,0-.25,2s0,.07,0,.11c-.53,9.61,6.75,16,13.91,21,15.41,10.64,29.06,23.42,43.64,35.13,3,2.44,7.15,6.51,11.35,6.46l.14.47,1.21,3.83c1.44,4.51,2.9,9,4.38,13.5h-192a184.72,184.72,0,0,1-61.85-226v0A184.59,184.59,0,0,1,635.19,38.35c3-.91,6-1.73,9-2.47A184.75,184.75,0,0,1,795.29,366Z"/><path class="cls-3" d="M758.77,366H651.18a330.26,330.26,0,0,1-52.71-35.61c-8.64-7-16.59-14.2-24-21.27-39.17-37.61-60.62-73.16-60.62-73.16,2.61,1.91,5,3.68,7.26,5.23,35.85,25.3,31.26,14,120.5,52.46A478.56,478.56,0,0,1,758.77,366Z"/><path class="cls-4" d="M622.15,220.41c4.76,13.08,20.07,25.32,20.07,25.32l42,30.77a117.71,117.71,0,0,0,15.06,6.35,2.77,2.77,0,0,0-.13.65,10.1,10.1,0,0,0-.24,2c-5.58-.08-11-4.88-15.43-7.72-5.7-3.62-11.39-7.32-17-11q-17-11.11-33.73-22.51c-5-3.45-10-6.91-15-10.35-22.73-15.68-46.37-30.74-66-50.36-6.58-6.51-24.6-26.34-32-43.62v0c-4.11-9.56-5-18.35,1.14-23.67,3.41-3,8.44-2.75,12.94-2.09l.07,0c44.06,6.69,75.33,39.73,107.2,68.08,6,5.38,12.12,10.59,18.25,15.84a125.77,125.77,0,0,1,14.35,14.09l.92,1.14c.33.37.61.75.92,1.13,1,1.2,2,2.38,2.91,3.57q2.89,3.56,5.75,7c.94,1.13,1.87,2.26,2.81,3.37,1.3,1.55,2.59,3.06,3.87,4.56l-.09-.08C673,217.69,649.87,202,649.87,202,623.07,189.51,617.37,207.25,622.15,220.41Z"/><path class="cls-4" d="M748.69,250.92h0c-1,.52-1.94,1.08-2.94,1.59a30.77,30.77,0,0,0-1.09-7.9c-.63-2.44-1.44-5.06-2.35-7.8-.48-1.39-1-2.81-1.5-4.27-.26-.74-.53-1.49-.81-2.22q-.83-2.22-1.74-4.48c-.29-.76-.61-1.54-.92-2.3-1.56-3.83-3.22-7.71-4.93-11.54-1-2.3-2.06-4.59-3.11-6.84q-1.18-2.59-2.37-5.06c-7.58-16-14.48-28.8-14.48-28.8-16.81-29.59-41.12-21.16-48.59-6.39-.21.4-.39.8-.58,1.24a10.9,10.9,0,0,0-.52,1.27,21.05,21.05,0,0,0-.81,2.83c-.08.32-.13.64-.21,1a29.18,29.18,0,0,0-.45,5.09c0,1.09.08,2.18.18,3.24a47.43,47.43,0,0,0,4.31,14.89l.33.69c.37.78.74,1.53,1.11,2.19.14.25.26.5.39.71s.28.52.42.75.36.66.54.95.42.69.59,1c.61,1,1,1.5,1,1.5.66.78,1.6,1.91,2.75,3.32.57.7,1.2,1.45,1.86,2.28,1,1.24,2.11,2.61,3.3,4.07.5.6,1,1.24,1.52,1.87,1.56,1.93,3.21,4,4.92,6.13l2.8,3.46,1.13,1.43c.78.94,1.53,1.89,2.29,2.84v0c.71.9,1.43,1.79,2.15,2.69,3.94,4.9,7.78,9.73,11.06,13.81l2.54,3.17c.55.71,1.1,1.38,1.61,2,.18.24.37.46.55.69l1.5,1.87,1.1,1.38c.32.42.62.78.86,1.09.07.09.15.19.21.28.46.59.72.9.72.9.56.92,1.16,1.76,1.73,2.55a28.16,28.16,0,0,0,1.9,2.25,23.17,23.17,0,0,0,2.66,2.6c.3.28.58.51.89.76l-.36.15a1.69,1.69,0,0,0-.33.19,2.75,2.75,0,0,1-.38.2c-.23.11-.43.21-.65.34l-.56.26h0c-.2-.24-.41-.5-.64-.75s-.42-.49-.65-.76l-1.35-1.58c-6.58-7.88-15-17.67-24.35-28.78l0,0v0l-.07-.09c-1.26-1.48-2.54-3-3.8-4.48-.94-1.11-1.85-2.24-2.79-3.37q-2.85-3.41-5.75-7l-2.93-3.56q-.43-.58-.9-1.14l-.92-1.14c-1.31-1.68-2.65-3.35-4-5.08-17.29-21.64-34.89-45.83-48-69.33a170,170,0,0,1-10.26-21.88c-8.12-20.69-13.08-44.84-7.35-65a54.27,54.27,0,0,1,2.31-6.6c2.08-4.81,5.25-9.4,9.78-12,7.22-4.29,16.59-2.75,24,1.19,1.38.74,2.71,1.53,4,2.4a58.53,58.53,0,0,1,9.21,7.55c15.43,15.26,25.2,38.78,34.82,56.41a612.32,612.32,0,0,1,31,66.61v0s0,.11,0,.17c1.09,2.69,2.14,5.34,3.17,8.05.91,2.39,1.83,4.79,2.72,7.19s1.79,4.81,2.66,7.22q5.18,14.22,9.82,28.58,2.68,8.3,5.19,16.69C743.88,237.68,747.29,245,748.69,250.92Z"/><path class="cls-4" d="M767.48,61.76c23.52,76.69,10,160.23,4.6,187.1l-.3-.29a7.45,7.45,0,0,0-1.17-.83,37.74,37.74,0,0,0,1.52-6.18c4.52-26.52.59-74.29.59-74.29-1.88-44.39-26.42-48.14-38.81-29.51s-6.43,40.45-6.43,40.45,11.89,43.7,17.43,59.76a38.8,38.8,0,0,0,6.5,11.68c-.92.43-1.82.83-2.73,1.29v0c-1.41-5.9-4.81-13.23-5.81-16.57q-2.49-8.35-5.17-16.67-4.63-14.35-9.82-28.58c-.87-2.41-1.74-4.82-2.66-7.22s-1.81-4.8-2.72-7.19c-1-2.71-2.08-5.36-3.17-8.05,0-.06,0-.13,0-.17v0C706.45,109,705.79,67.58,705.79,67.58a108.21,108.21,0,0,1,3.11-36C717.64.61,741.27-8.31,762,45.83,763.88,50.64,765.7,55.92,767.48,61.76Z"/><path class="cls-5" d="M779.61,366h-6c-1.48-4.5-2.94-9-4.38-13.5L768,348.63l-.14-.47c-4.2,0-8.36-4-11.35-6.46-14.58-11.71-28.23-24.49-43.64-35.13-7.16-5-14.44-11.39-13.91-21,0,0,0-.08,0-.11a10.12,10.12,0,0,1,.25-2,3.33,3.33,0,0,1,.12-.65,14.69,14.69,0,0,1,.75-2.43,10.51,10.51,0,0,1,1.13-2.14c1.86-3.33,5.17-6.77,10.49-10a18.18,18.18,0,0,1,1.77-1.09c.66-.44,1.37-.8,2.1-1.19.27-.12.53-.31.8-.41a16.57,16.57,0,0,1,1.52-.76h0l.57-.26c.21-.13.42-.23.64-.34l.24-.11.18-.08c.08-.07.19-.12.3-.2l.36-.15h0c4.56-2.1,9.39-3.89,14-5.78l.36-.17c2.39-1.06,4.56-2.1,6.94-3.22,1-.44,2-1,3.13-1.46l.11,0,.51-.24a2.06,2.06,0,0,1,.44-.24c.49-.25,1-.52,1.48-.79l1.47-.78c.9-.46,1.81-.86,2.73-1.29a30.51,30.51,0,0,1,4.06-1.69c.63-.28,1.21-.47,1.79-.67a17.76,17.76,0,0,1,1.73-.52c.15-.05.34-.08.49-.13l1.52-.28a19.41,19.41,0,0,1,2-.27,11.58,11.58,0,0,1,5.65.72,3.61,3.61,0,0,1,1,.39c.31.17.65.38,1,.54a7.89,7.89,0,0,1,1.16.83l.31.29c3.06,2.71,3.78,7.11,4.27,10.92.09.87.18,1.76.31,2.6a296,296,0,0,1,2.08,38.55c-.06,6.46-.35,12.89-.79,19.31-.46,6.08-.59,12.49-2.11,18.38a18.79,18.79,0,0,1-2.93,6.86c.14.47.28.94.45,1.43Q776.45,356.45,779.61,366Z"/><path class="cls-6" d="M717.91,264.82h0a15.54,15.54,0,0,0-1.53.76c-.27.1-.53.29-.79.41a23.43,23.43,0,0,0-2.1,1.19,17.05,17.05,0,0,0-1.77,1.09c-5.33,3.24-8.64,6.68-10.5,10a10.51,10.51,0,0,0-1.13,2.14,13.74,13.74,0,0,0-.74,2.43,117.71,117.71,0,0,1-15.06-6.35l-42-30.77s-15.31-12.24-20.07-25.32.92-30.9,27.72-18.38c0,0,23.1,15.66,40.92,30.78l.09.08,0,.06c9.31,11.11,17.77,20.9,24.35,28.78l1.35,1.58c.23.27.45.5.65.76S717.68,264.56,717.91,264.82Z"/><path class="cls-6" d="M744.64,244.61a30.77,30.77,0,0,1,1.09,7.9,2.06,2.06,0,0,0-.44.24l-.5.24-.12,0c-1.11.49-2.17,1-3.13,1.46-2.37,1.12-4.54,2.16-6.94,3.22l-.35.17c-4.65,1.89-9.47,3.68-14,5.78-.31-.24-.62-.49-.91-.75a23.17,23.17,0,0,1-2.66-2.6,28.16,28.16,0,0,1-1.9-2.25c-.58-.8-1.16-1.66-1.71-2.56h0a9,9,0,0,0-.72-.9c-.06-.09-.14-.19-.21-.28-.24-.31-.52-.67-.86-1.09l-1.1-1.38-1.5-1.87c-.18-.23-.37-.45-.55-.69-.49-.64-1-1.31-1.61-2l-2.54-3.17c-3.26-4.1-7.11-8.91-11.06-13.81-.72-.9-1.44-1.79-2.15-2.69v0c-.76-.95-1.51-1.9-2.29-2.84l-1.13-1.43-2.8-3.46-4.92-6.13c-.53-.63-1-1.27-1.52-1.87-1.19-1.46-2.31-2.83-3.3-4.07-.68-.82-1.29-1.58-1.86-2.28-1.15-1.41-2.09-2.54-2.75-3.32,0,0-.38-.53-1-1.5-.17-.29-.38-.62-.59-1s-.35-.6-.54-.95-.28-.49-.42-.75-.25-.46-.39-.71c-.37-.66-.74-1.41-1.11-2.19l-.33-.69a47.43,47.43,0,0,1-4.31-14.89c-.1-1.06-.18-2.15-.18-3.24a29.18,29.18,0,0,1,.45-5.09c.08-.32.13-.64.21-1a24.75,24.75,0,0,1,.83-2.84c.15-.43.32-.86.5-1.26s.37-.84.58-1.24c7.47-14.77,31.78-23.2,48.59,6.39,0,0,6.9,12.78,14.48,28.8.77,1.65,1.56,3.33,2.35,5.06,1,2.25,2.1,4.54,3.13,6.84,1.71,3.83,3.37,7.71,4.93,11.54.31.76.63,1.54.92,2.3q.91,2.26,1.74,4.48c.28.73.55,1.48.81,2.22.53,1.46,1,2.88,1.5,4.27C743.2,239.55,744,242.17,744.64,244.61Z"/><path class="cls-6" d="M772.72,167.27s3.93,47.77-.59,74.29a37.74,37.74,0,0,1-1.52,6.18c-.32-.16-.67-.37-1-.54a3.8,3.8,0,0,0-1-.39,11.58,11.58,0,0,0-5.65-.72,6.9,6.9,0,0,0-2,.27,10.59,10.59,0,0,0-1.51.28l-.5.13c-.56.13-1.14.32-1.73.52s-1.16.39-1.78.67a30.1,30.1,0,0,0-4.07,1.69,38.8,38.8,0,0,1-6.5-11.68c-5.54-16.06-17.43-59.76-17.43-59.76s-6-21.85,6.43-40.45S770.84,122.88,772.72,167.27Z"/><path class="cls-7" d="M563.11,272.37S637,329.51,712.87,366"/></g></g></svg>