<svg xmlns="http://www.w3.org/2000/svg" viewBox="0 0 1020.83 1431.44"><defs><style>.cls-1{fill:#18203f;}.cls-2,.cls-3{fill:none;}.cls-3{stroke:#faf4e7;stroke-miterlimit:10;stroke-width:0.46px;}.cls-4{fill:#121b3b;}.cls-5{fill:#fdfaf4;}.cls-6{fill:#faf4e7;}.cls-7{fill:#faf9f5;}</style></defs><g id="Layer_2" data-name="Layer 2"><g id="Layer_1-2" data-name="Layer 1"><path class="cls-1" d="M187.09,801.51v0Z"/><path class="cls-1" d="M438.32,451.45s0,0,0,0v0Z"/><path class="cls-1" d="M439.06,455.78c0-.14,0-.29-.05-.43s0,0,0,0v0C439,455.49,439.05,455.64,439.06,455.78Z"/><path class="cls-2" d="M680.59,46.1c-.05.16-.11.31-.16.47l.15-.47Z"/><path class="cls-2" d="M680.59,46.1c-.05.16-.11.31-.16.47l.15-.47Z"/><path class="cls-2" d="M680.59,46.1c-.05.16-.11.31-.16.47l.15-.47Z"/><path class="cls-2" d="M439.06,455.78c0-.14,0-.29-.05-.43s0,0,0,0v0C439,455.49,439.05,455.64,439.06,455.78Z"/><path class="cls-2" d="M439.06,455.78c0-.14,0-.29-.05-.43s0,0,0,0v0C439,455.49,439.05,455.64,439.06,455.78Z"/><path class="cls-2" d="M439.06,455.78c0-.14,0-.29-.05-.43s0,0,0,0v0C439,455.49,439.05,455.64,439.06,455.78Z"/><path class="cls-2" d="M80.85,123.23c0-.32-.07-.65-.11-1,0,0,0,0,0,0v0C80.78,122.58,80.82,122.91,80.85,123.23Z"/><path class="cls-2" d="M80.85,123.23c0-.32-.07-.65-.11-1,0,0,0,0,0,0v0C80.78,122.58,80.82,122.91,80.85,123.23Z"/><path class="cls-2" d="M80.85,123.23c0-.32-.07-.65-.11-1,0,0,0,0,0,0v0C80.78,122.58,80.82,122.91,80.85,123.23Z"/><path class="cls-3" d="M187.88,806.35c0-.33-.07-.65-.11-1v0C187.81,805.71,187.85,806,187.88,806.35Z"/><path class="cls-3" d="M187.88,806.35c0-.33-.07-.65-.11-1v0C187.81,805.71,187.85,806,187.88,806.35Z"/><path class="cls-3" d="M187.88,806.35c0-.33-.07-.65-.11-1v0C187.81,805.71,187.85,806,187.88,806.35Z"/><path class="cls-2" d="M703.15,1054.77v0c0,.32,0,.65,0,1,0-.33,0-.66,0-1Z"/><path class="cls-2" d="M703.15,1054.77v0c0,.32,0,.65,0,1,0-.33,0-.66,0-1Z"/><path class="cls-2" d="M703.15,1054.77v0c0,.32,0,.65,0,1,0-.33,0-.66,0-1Z"/><path class="cls-2" d="M2.5,0C1.67.6.84,1.2,0,1.79V0Z"/><path class="cls-2" d="M680.59,46.1c-.05.16-.11.31-.16.47l.15-.47Z"/><path class="cls-2" d="M681.58,42.34l-.32.93c.11-.31.21-.62.31-.93Z"/><path class="cls-2" d="M681.61,42.28s0,0,0,0h0Z"/><path class="cls-4" d="M950.07,468.63c-2.24-.29-4.48-.62-6.72-1Q946.71,468.18,950.07,468.63Z"/><path class="cls-4" d="M998.13,471.13h0Z"/><path class="cls-4" d="M999.34,471.12h0Z"/><path class="cls-4" d="M898.86,508.58l-3.26-1-.59-.2Z"/><path class="cls-2" d="M80.06,118.39s0,0,0,0v-.06S80.06,118.38,80.06,118.39Z"/><path class="cls-2" d="M80.85,123.23c0-.32-.07-.65-.11-1,0,0,0,0,0,0v0C80.78,122.58,80.82,122.91,80.85,123.23Z"/><path class="cls-4" d="M898.45,1318.91q-6-1.35-12.07-2.8Q892.41,1317.55,898.45,1318.91Z"/><path class="cls-4" d="M800.88,1417.66c-3-.37-6-.78-8.91-1.22C794.94,1416.88,797.91,1417.28,800.88,1417.66Z"/><path class="cls-4" d="M836.84,1420.86q-9-.51-18-1.29Q827.83,1420.35,836.84,1420.86Z"/><path class="cls-4" d="M859.48,1421.79q-9-.24-18.08-.69Q850.42,1421.55,859.48,1421.79Z"/><path class="cls-4" d="M873.11,1422.07q-6.79-.09-13.58-.28Q866.31,1422,873.11,1422.07Z"/><path class="cls-5" d="M1020.64,870.53c-.86-.28-1.72-.56-2.58-.86s-1.85-.63-2.76-1l-2.76-1q-4.12-1.5-8.19-3.13l-1.65-.66c-1.29-.52-2.57-1.06-3.85-1.6l-2.6-1.12c-.85-.36-1.69-.73-2.53-1.11l-2.81-1.28-2.56-1.19q-3.14-1.47-6.23-3l-1.74-.88c-.87-.44-1.74-.88-2.6-1.34q-2.6-1.35-5.16-2.76l-2.27-1.26-2.84-1.61L965,845.28c-.62-.36-1.23-.72-1.85-1.1-1.06-.63-2.12-1.27-3.17-1.92-.83-.5-1.66-1-2.48-1.54s-1.65-1-2.47-1.58c-1-.66-2-1.32-3.06-2-.62-.4-1.23-.8-1.83-1.22-1.66-1.11-3.3-2.25-4.94-3.39s-3.1-2.2-4.63-3.34q-3.54-2.58-7-5.3l-2.29-1.81q-8.52-6.8-16.49-14.23l-1.69-1.59q-1.86-1.75-3.69-3.56l-2-2c-.75-.75-1.49-1.5-2.22-2.26l-1.66-1.71c-.55-.58-1.11-1.16-1.65-1.75s-1-1-1.47-1.57q-3.9-4.21-7.62-8.58c-.51-.59-1-1.19-1.5-1.78s-1-1.24-1.55-1.87l-1.2-1.47Q880.81,770.2,874,760c-16.19-24.23-30-52.36-55.74-66-16.53-8.76-35.8-10.22-54-14.63-80-19.37-133.22-93-177.53-162.31s-92.9-144.61-170.68-171.45c-74.46-25.68-155.88.09-229.89,27-4.41,1.6-8.84,3.22-13.29,4.82l-5.34,1.93-4.66,1.66-1.41.5c-2.22.79-4.44,1.58-6.67,2.35-2,.72-4.07,1.43-6.1,2.13l-5.41,1.85-5.42,1.82-4.55,1.51-1.56.51-4.12,1.33-1.53.48q-5,1.6-10.06,3.12l-2.76.83c-2.74.81-5.47,1.6-8.21,2.37s-5.51,1.54-8.27,2.27c-1.83.48-3.66,1-5.49,1.42l-2.78.7q-5.5,1.35-11,2.57-4.14.92-8.29,1.73a295.31,295.31,0,0,1-59.7,6.16H9.34c-1.25,0-2.51,0-3.76-.06-.93,0-1.86,0-2.79-.08L0,414.49v47.22L4.53,460c.83-.3,1.67-.61,2.51-.9q3.69-1.33,7.4-2.58l2.09-.7c2.68-.89,5.38-1.74,8.08-2.56l3.77-1.1c1.32-.38,2.65-.75,4-1.1,1.07-.29,2.14-.57,3.22-.84.72-.19,1.45-.37,2.17-.54l.94-.23L41,449q2.74-.63,5.5-1.17c.92-.19,1.85-.37,2.77-.53,1.47-.28,3-.53,4.44-.76q.77-.14,1.53-.24c1.73-.26,3.47-.49,5.21-.7l2.67-.29h.13c.92-.1,1.84-.18,2.76-.26,30.86-2.57,64.09,5.24,85.44,27.65,33.4,35.05,27.41,91.25,14.19,137.81-24,84.6-64.54,164.62-79,251.36s3.92,187.31,75.33,238.61c44.65,32.07,101.69,39.49,155.37,51.4s110.63,32.58,139.24,79.53c17.64,28.94,21.86,63.85,33.39,95.72.5,1.37,1,2.74,1.53,4.09s.93,2.42,1.42,3.61,1,2.38,1.48,3.56.93,2.19,1.42,3.27a4.91,4.91,0,0,0,.28.62c.49,1.12,1,2.23,1.52,3.34a.31.31,0,0,0,.06.13c.41.89.83,1.78,1.26,2.66.31.66.63,1.31,1,2q.33.69.69,1.38c.34.71.7,1.41,1.07,2.11s.7,1.36,1.06,2c.23.47.48.93.74,1.39.37.7.75,1.4,1.13,2.1.24.45.48.89.74,1.33.47.85.95,1.7,1.43,2.55.1.18.2.35.31.52.57,1,1.16,2,1.76,3s1.36,2.27,2.06,3.4q3.12,5.07,6.48,10c.51.75,1,1.5,1.55,2.24,1,1.49,2.08,3,3.15,4.43.53.72,1,1.44,1.59,2.15.65.89,1.32,1.78,2,2.66s1.3,1.71,2,2.56c.11.15.23.3.35.44.71.93,1.44,1.85,2.18,2.76.2.26.4.51.62.76.53.67,1.07,1.33,1.62,2s1,1.2,1.48,1.8q5.65,6.78,11.72,13.25,1.85,2,3.73,3.94c1.26,1.3,2.52,2.6,3.8,3.88,1,1,1.9,1.9,2.86,2.84s1.87,1.83,2.81,2.74a.46.46,0,0,0,.12.12c1,.92,1.92,1.84,2.89,2.75h70.09c-1.24-.7-2.47-1.42-3.7-2.14-1.4-.82-2.8-1.66-4.19-2.5-1.63-1-3.24-2-4.85-3-47.78-30-90-78.47-89.8-134.91.12-33.7,15.33-67.32,8-100.22-7.61-34.14-37.9-59.41-47.2-93.13-9.95-36,5.79-73.65,21.18-107.72,30.39-67.2,66.44-140.15,134.34-169,65.88-27.94,142.1-5.19,206.15,26.73q7.85,3.92,15.64,8,2.6,1.35,5.19,2.73l4.07,2.15q5.75,3,11.49,6.15l5.18,2.79.88.48,8.57,4.62c7.56,4.08,15.14,8.15,22.74,12.13,1.87,1,3.74,2,5.61,2.93l6.35,3.26,5.06,2.55c9.53,4.77,19.13,9.34,28.84,13.57l2.92,1.26q5.41,2.32,10.9,4.49l2.7,1.06,2.22.86q7,2.67,14.12,5,2.74.92,5.5,1.78,4.23,1.34,8.5,2.53l2.61.72V870.6ZM390.72,455.86c6.28,7.66,6,4.93,23.09,18.64a107.25,107.25,0,0,1,24,27.21,0,0,0,0,0,0,0l.5,1.1c-.21-4.22-.32-7-.37-8.49v-.09c0-.11,0-.21,0-.32-.9-.26-1.54-1.38-2-2.07-2.47-3.43-4.68-7-7.39-10.27-1.26-1.51-2.46-3.35-1.77-5.4v0c-1.21-.35-2.1-1.72-2.9-2.6l-3-3.41q-3-3.43-6-6.92c-.89-1.06-1.76-2.1-2.66-3.15-4-4.78-8.24-9.47-11.35-14.92-1.62-2.81-7.31-14.28-2.68-16.51a3.57,3.57,0,0,1,3,.33c9.19,4.1,14,13.17,19.26,21.25,1,1.52,2,3,3,4.54a28,28,0,0,1,2.26,3.88c-.17-.43-.36-.85-.54-1.29a120.38,120.38,0,0,1-6.3-18,39,39,0,0,1-.92-5.39c-.59-5.54-.07-11.79,3.19-15.89a5,5,0,0,1,8-.32,12.7,12.7,0,0,1,2.28,3c2.45,4.24,3.17,9.95,4.21,14.36a135.58,135.58,0,0,1,2.75,16.34,123.2,123.2,0,0,1,3-22.31c2.58-12.88,13.15-19.5,13.77,2.43.52,17.76-7.11,34.81-10,40.67a.71.71,0,0,0,0,.62,4.37,4.37,0,0,1,.13,2.35,3.82,3.82,0,0,0-.09.59,68.66,68.66,0,0,1-1.86,8.51c-.4,1.4-.86,2.79-1.33,4.16a23.24,23.24,0,0,1-1.57,3.87,4.78,4.78,0,0,1-.8,1.11.69.69,0,0,0-.2.54,1.55,1.55,0,0,1,0,.22v.09c.07,2.7.22,5.41.36,8.11,0,.63.06,1.28.1,1.91a2.84,2.84,0,0,1-.1,1.2.84.84,0,0,1-1.1.44c-.12-.06-.11-.32-.2-.44a.78.78,0,0,0-.46-.23c-.48-.1-.95-.21-1.43-.33-.9-.23-1.8-.48-2.7-.76a52.13,52.13,0,0,1-8.82-3.64c-9.85-5.14-17.31-12.93-22.77-20.64-1.46-2-2.76-4.09-3.94-6.07a90.82,90.82,0,0,1-8.81-19.56C389.9,454.86,390.32,455.39,390.72,455.86ZM147,823.89a90.82,90.82,0,0,1-8.81-19.56c.45.56.86,1.09,1.27,1.57,6.28,7.66,6,4.92,23.09,18.64a107.25,107.25,0,0,1,24,27.21v0l.5,1.1c-.22-4.23-.32-7.06-.37-8.5v-.08c0-.11,0-.22,0-.33-.89-.26-1.54-1.37-2-2.08-2.47-3.41-4.68-7-7.4-10.26-1.26-1.51-2.46-3.34-1.76-5.4v0c-1.21-.35-2.09-1.72-2.89-2.6-1-1.13-2-2.28-3-3.4-2-2.3-4-4.6-6-6.93L161,810.11c-4-4.78-8.26-9.47-11.36-14.92-1.61-2.82-7.32-14.28-2.69-16.5a3.59,3.59,0,0,1,3,.33c9.19,4.1,14,13.16,19.25,21.24,1,1.53,2,3,3,4.54a26.59,26.59,0,0,1,2.26,3.89c-.18-.43-.36-.87-.55-1.3a120.33,120.33,0,0,1-6.29-18,39,39,0,0,1-.92-5.39c-.59-5.54-.07-11.79,3.19-15.89a5.78,5.78,0,0,1,2.84-2,5.68,5.68,0,0,1,5.16,1.7,13.08,13.08,0,0,1,2.29,3c2.45,4.24,3.17,10,4.2,14.36a135.61,135.61,0,0,1,2.76,16.34,123,123,0,0,1,3-22.31c2.57-12.89,13.15-19.5,13.78,2.43.51,17.75-7.12,34.8-10,40.67a.79.79,0,0,0,0,.62,4.33,4.33,0,0,1,.12,2.34c0,.2-.07.4-.09.59a67,67,0,0,1-1.86,8.52c-.39,1.4-.84,2.78-1.32,4.15a24.19,24.19,0,0,1-1.56,3.88,5.45,5.45,0,0,1-.81,1.1.68.68,0,0,0-.2.54,1.7,1.7,0,0,0,0,.22v.09c.06,2.71.22,5.41.35,8.11,0,.64.07,1.27.1,1.92a2.52,2.52,0,0,1-.1,1.19.85.85,0,0,1-1.1.45c-.11-.06-.1-.32-.19-.44a.81.81,0,0,0-.47-.23l-1.42-.34c-.91-.23-1.81-.48-2.7-.76a51.32,51.32,0,0,1-8.82-3.64c-9.85-5.14-17.31-12.92-22.77-20.65C149.5,827.91,148.2,825.86,147,823.89Zm315.12,168c-4,21.28-7.14,43.23-17.35,62.33-14.46,27-41.16,43.08-70.55,49.24-28.59,6-58.29,3.09-87.14-1.55-29.94-4.82-60.29-11.76-85.88-28s-45.93-43.48-46.86-73.8c-1-31.68,18.38-59.78,33.12-87.85,17.3-32.94,28.93-68.59,36.21-105C234.24,754.31,235,701.55,235,674.26c0-8-.11-3.82-.32-25.77-.67-72.61,1-84.71-4.37-109.42a346.18,346.18,0,0,0-10.76-37.45c-7.92-22.49-11.29-24.26-14.29-35.87-4.09-15.82-7.51-50.41,11.9-65.46,18-14,45.23-8.09,63.37,5.76a115.39,115.39,0,0,1,15.67,14.71c20.34,22.61,32.75,46.44,46.34,73.45,31.81,63.25,82.05,115,112.94,178.91a337.4,337.4,0,0,1,18.36,46.61,348.74,348.74,0,0,1,14.84,79.33C493.31,865.21,474.25,927.6,462.14,991.86Zm227.25-213c-13.68,3.4-28,1.13-42.14,1.76a135.58,135.58,0,0,0-28.07,4.58c-8.91,2.33-17.75,6.55-26.75,8.35l-.36.07c-15.8,3-34.43,1.24-48.62-6.57-14.5-8-24.79-22.14-31.19-37.4s-9.3-31.71-12.16-48L485.46,618c-2.73-15.58-5.47-31.32-4.77-47.12s5.11-31.9,15.25-44c3.5-4.19,8.13-8.07,13.59-8.23,4.59-.14,8.82,2.38,12.61,5C585.71,567,611.77,653.53,679.29,690.53c17.63,9.66,39.44,17.55,46,36.57C733.33,750.63,710.74,773.54,689.39,778.84Z"/><path class="cls-6" d="M193.79,822.9a4.33,4.33,0,0,1,.12,2.34c0,.2-.07.4-.09.59a67,67,0,0,1-1.86,8.52c-.39,1.4-.84,2.78-1.32,4.15a24.19,24.19,0,0,1-1.56,3.88,5.45,5.45,0,0,1-.81,1.1.68.68,0,0,0-.2.54,1.7,1.7,0,0,0,0,.22v.09c.06,2.71.22,5.41.35,8.11,0,.64.07,1.27.1,1.92a2.52,2.52,0,0,1-.1,1.19.85.85,0,0,1-1.1.45c-.11-.06-.1-.32-.19-.44a.81.81,0,0,0-.47-.23l-1.42-.34c-.91-.23-1.81-.48-2.7-.76a51.32,51.32,0,0,1-8.82-3.64c-9.85-5.14-17.31-12.92-22.77-20.65-1.46-2-2.76-4.08-3.94-6.05a90.82,90.82,0,0,1-8.81-19.56c.45.56.86,1.09,1.27,1.57,6.28,7.66,6,4.92,23.09,18.64a107.25,107.25,0,0,1,24,27.21v0l.5,1.1c-.22-4.23-.32-7.06-.37-8.5v-.08c0-.11,0-.22,0-.33-.89-.26-1.54-1.37-2-2.08-2.47-3.41-4.68-7-7.4-10.26-1.26-1.51-2.46-3.34-1.76-5.4v0c-1.21-.35-2.09-1.72-2.89-2.6-1-1.13-2-2.28-3-3.4-2-2.3-4-4.6-6-6.93L161,810.11c-4-4.78-8.26-9.47-11.36-14.92-1.61-2.82-7.32-14.28-2.69-16.5a3.59,3.59,0,0,1,3,.33c9.19,4.1,14,13.16,19.25,21.24,1,1.53,2,3,3,4.54a26.59,26.59,0,0,1,2.26,3.89c-.18-.43-.36-.87-.55-1.3a120.33,120.33,0,0,1-6.29-18,39,39,0,0,1-.92-5.39c-.59-5.54-.07-11.79,3.19-15.89a5.78,5.78,0,0,1,2.84-2,5.68,5.68,0,0,1,5.16,1.7,13.08,13.08,0,0,1,2.29,3c2.45,4.24,3.17,10,4.2,14.36a135.61,135.61,0,0,1,2.76,16.34v0a123,123,0,0,1,3-22.31c2.57-12.89,13.15-19.5,13.78,2.43.51,17.75-7.12,34.8-10,40.67A.79.79,0,0,0,193.79,822.9Z"/><path class="cls-2" d="M187.09,801.51v0Z"/><path class="cls-6" d="M445.05,472.24c2.92-5.86,10.55-22.91,10-40.67-.62-21.93-11.19-15.31-13.77-2.43a123.2,123.2,0,0,0-3,22.31s0,0,0,0v0a135.58,135.58,0,0,0-2.75-16.34c-1-4.41-1.76-10.12-4.21-14.36a12.7,12.7,0,0,0-2.28-3,5,5,0,0,0-8,.32c-3.26,4.1-3.78,10.35-3.19,15.89a39,39,0,0,0,.92,5.39,120.38,120.38,0,0,0,6.3,18c.18.44.37.86.54,1.29a28,28,0,0,0-2.26-3.88c-1-1.51-2-3-3-4.54-5.24-8.08-10.07-17.15-19.26-21.25a3.57,3.57,0,0,0-3-.33c-4.63,2.23,1.06,13.7,2.68,16.51,3.11,5.45,7.35,10.14,11.35,14.92.9,1.05,1.77,2.09,2.66,3.15q3,3.48,6,6.92l3,3.41c.8.88,1.69,2.25,2.9,2.6v0c-.69,2.05.51,3.89,1.77,5.4,2.71,3.24,4.92,6.84,7.39,10.27.5.69,1.14,1.81,2,2.07,0,.11,0,.21,0,.32v.09c0,1.45.16,4.27.37,8.49l-.5-1.1a0,0,0,0,1,0,0,107.25,107.25,0,0,0-24-27.21c-17.13-13.71-16.81-11-23.09-18.64-.4-.47-.82-1-1.27-1.57a90.82,90.82,0,0,0,8.81,19.56c1.18,2,2.48,4,3.94,6.07,5.46,7.71,12.92,15.5,22.77,20.64a52.13,52.13,0,0,0,8.82,3.64c.9.28,1.8.53,2.7.76.48.12.95.23,1.43.33a.78.78,0,0,1,.46.23c.09.12.08.38.2.44a.84.84,0,0,0,1.1-.44,2.84,2.84,0,0,0,.1-1.2c0-.63-.07-1.28-.1-1.91-.14-2.7-.29-5.41-.36-8.11v-.09a1.55,1.55,0,0,0,0-.22.69.69,0,0,1,.2-.54,4.78,4.78,0,0,0,.8-1.11,23.24,23.24,0,0,0,1.57-3.87c.47-1.37.93-2.76,1.33-4.16a68.66,68.66,0,0,0,1.86-8.51,3.82,3.82,0,0,1,.09-.59,4.37,4.37,0,0,0-.13-2.35A.71.71,0,0,1,445.05,472.24Zm-6-16.89s0,0,0,0v0c0,.14,0,.29,0,.43C439,455.64,439,455.49,439,455.35Z"/><path class="cls-2" d="M438.32,451.45s0,0,0,0v0Z"/><path class="cls-2" d="M439.06,455.78c0-.14,0-.29-.05-.43s0,0,0,0v0C439,455.49,439.05,455.64,439.06,455.78Z"/><path class="cls-6" d="M462.14,991.86c-4,21.28-7.14,43.23-17.35,62.33-14.46,27-41.16,43.08-70.55,49.24-28.59,6-58.29,3.09-87.14-1.55-29.94-4.82-60.29-11.76-85.88-28s-45.93-43.48-46.86-73.8c-1-31.68,18.38-59.78,33.12-87.85,17.3-32.94,28.93-68.59,36.21-105C234.24,754.31,235,701.55,235,674.26c0-8-.11-3.82-.32-25.77-.67-72.61,1-84.71-4.37-109.42a346.18,346.18,0,0,0-10.76-37.45c-7.92-22.49-11.29-24.26-14.29-35.87-4.09-15.82-7.51-50.41,11.9-65.46,18-14,45.23-8.09,63.37,5.76a115.39,115.39,0,0,1,15.67,14.71c20.34,22.61,32.75,46.44,46.34,73.45,31.81,63.25,82.05,115,112.94,178.91a337.4,337.4,0,0,1,18.36,46.61,348.74,348.74,0,0,1,14.84,79.33C493.31,865.21,474.25,927.6,462.14,991.86Z"/><path class="cls-5" d="M459.27,1420.8c0,.88,0,1.77,0,2.65s0,1.78-.05,2.67q0,1-.06,2c0,1.09-.08,2.19-.14,3.28H392.75c.17-1.25.34-2.49.52-3.74l.39-2.69c.21-1.47.42-2.94.62-4.41.13-.91.26-1.82.38-2.72l.18-1.41q.2-1.44.36-2.88c.12-1,.24-1.95.34-2.93s.19-1.85.29-2.78c0-.53.09-1.07.14-1.61s.09-1,.12-1.47c.07-.88.13-1.76.19-2.64.06-1.12.12-2.23.16-3.35l0-1c0-1.71.06-3.43,0-5.15-.38-21.08-9.36-44.3-28.92-52.19-19.38-7.83-41.34,2.12-58.12,14.57-.83.61-1.64,1.23-2.46,1.86s-1.79,1.39-2.68,2.11c-.68.53-1.36,1.08-2,1.64-1.21,1-2.41,2-3.6,3.05l-.7.61c-.81.7-1.61,1.42-2.4,2.14l-.46.43c-.8.72-1.58,1.46-2.36,2.2s-1.37,1.29-2,2l-1.3,1.29c-1.35,1.34-2.68,2.71-4,4.09-.61.64-1.21,1.28-1.79,1.93l-.89,1-.88,1c-.58.64-1.15,1.29-1.71,1.94l-1,1.2c-.35.4-.69.81-1,1.21-.86,1-1.71,2-2.53,3.08-.34.41-.67.82-1,1.24-.86,1.07-1.7,2.16-2.52,3.25-.41.53-.81,1.06-1.2,1.6q-2.47,3.32-4.78,6.75c-.46.66-.9,1.32-1.33,2-.73,1.09-1.44,2.18-2.13,3.28L261.3,1408s0,0,0,0c-.59.94-1.16,1.88-1.71,2.83-.33.55-.65,1.09-1,1.64-1.08,1.85-2.11,3.71-3.12,5.59-.41.76-.82,1.52-1.21,2.29q-.25.47-.48.93l-.48.94q-.86,1.66-1.65,3.33c-.25.51-.5,1-.74,1.54q-1,2.17-2,4.37H191.44a71.22,71.22,0,0,0,1.57-16.38c-.63-21.93-11.2-15.31-13.78-2.43a117.28,117.28,0,0,0-2.76,18.81h-.65c-.58-4.3-1.33-8.59-2.33-12.84-1-4.41-1.75-10.11-4.2-14.36a13,13,0,0,0-2.29-3,5,5,0,0,0-8,.32c-3.26,4.1-3.78,10.35-3.2,15.89a39.22,39.22,0,0,0,.92,5.39,85,85,0,0,0,2.61,8.56h-2.51c-4.72-7.45-9.46-15.25-17.8-19a3.62,3.62,0,0,0-3-.33c-4.63,2.23,1.08,13.69,2.69,16.51.54.95,1.12,1.88,1.73,2.79H54c-.37-1.26-.74-2.53-1.1-3.8,0-.15-.09-.31-.13-.47-.8-2.84-1.57-5.7-2.34-8.57s-1.51-5.76-2.27-8.65c-1.68-6.48-3.36-13-5.18-19.38-.39-1.39-.79-2.79-1.2-4.18-1-3.49-2.11-7-3.27-10.43-.3-.89-.6-1.78-.91-2.67-.19-.55-.39-1.11-.59-1.67-.34-.95-.68-1.89-1-2.83s-.71-1.88-1.08-2.81-.69-1.76-1-2.64-.66-1.58-1-2.37c-.68-1.58-1.39-3.16-2.14-4.72-.37-.78-.75-1.56-1.15-2.34s-.79-1.55-1.19-2.32-.82-1.55-1.25-2.31-1-1.8-1.54-2.69c-.27-.49-.56-1-.86-1.46-.46-.77-.93-1.54-1.42-2.31l-1.28-2-.08-.11-.8-1.2-.53-.78c-.26-.37-.51-.74-.77-1.1-.38-.55-.77-1.09-1.17-1.63-.51-.7-1-1.4-1.57-2.09s-1.07-1.38-1.61-2.06c-1.37-1.69-2.78-3.34-4.23-4.93-.28-.32-.57-.64-.88-1s-.59-.63-.89-.94-.59-.63-.9-.93-.6-.62-.91-.91c-.61-.61-1.22-1.2-1.85-1.78l-.94-.87c-.31-.29-.63-.58-.95-.85-.56-.49-1.12-1-1.69-1.45l-1-.83-1.28-1v-48.5c1.14,1.09,2.31,2.16,3.48,3.22l1.21,1.09q4.53,4,9.29,7.81l2.46,1.92.24.18q1.21.95,2.46,1.86c.73.55,1.47,1.09,2.21,1.63l.42.3c.89.64,1.77,1.27,2.67,1.89q5.08,3.56,10.38,6.79l1.35.82q3.34,2,6.76,3.91c.59.33,1.19.66,1.8,1,1.44.79,2.9,1.55,4.36,2.29l1.66.83q3.91,2,7.9,3.73c1,.43,1.9.84,2.85,1.25a211.56,211.56,0,0,0,141.11,8.51c49.73-14.51,96.55-47.72,148-41.9,35.75,4,67.68,27.68,86.22,58.52C452.53,1359.6,459.27,1390.26,459.27,1420.8Z"/><path class="cls-6" d="M54,1431.44H0v-115l1.28,1,1,.83c.57.47,1.13,1,1.69,1.45l.95.85.94.87c.63.59,1.24,1.18,1.85,1.78l.91.91q.47.47.9.93c.3.31.6.62.89.94s.59.63.88,1c1.45,1.59,2.86,3.24,4.23,4.93.54.68,1.08,1.36,1.61,2.06s1.06,1.38,1.57,2.09c.4.54.79,1.08,1.17,1.63.26.36.51.73.77,1.1l.53.78.8,1.2.08.11,1.28,2c.49.77,1,1.54,1.42,2.31.3.48.59,1,.86,1.46.53.89,1.05,1.79,1.54,2.69s.84,1.53,1.25,2.31.8,1.54,1.19,2.32.78,1.56,1.15,2.34c.75,1.56,1.46,3.14,2.14,4.72.34.79.68,1.58,1,2.37s.71,1.76,1,2.64.73,1.87,1.08,2.81.69,1.88,1,2.83c.2.56.4,1.12.59,1.67.31.89.61,1.78.91,2.67,1.16,3.46,2.24,6.94,3.27,10.43.41,1.39.81,2.79,1.2,4.18,1.82,6.43,3.5,12.9,5.18,19.38.76,2.89,1.51,5.77,2.27,8.65s1.53,5.72,2.34,8.57c0,.16.08.32.13.47C53.29,1428.91,53.65,1430.18,54,1431.44Z"/><path class="cls-2" d="M52.8,1427.17c-.81-2.85-1.58-5.7-2.34-8.57C51.23,1421.47,52,1424.33,52.8,1427.17Z"/><path class="cls-6" d="M156.82,1431.44H140.48c-.61-.91-1.19-1.84-1.73-2.79-1.61-2.82-7.32-14.28-2.69-16.51a3.62,3.62,0,0,1,3,.33C147.36,1416.19,152.1,1424,156.82,1431.44Z"/><path class="cls-6" d="M175.82,1431.44H159.33a85,85,0,0,1-2.61-8.56,39.22,39.22,0,0,1-.92-5.39c-.58-5.54-.06-11.79,3.2-15.89a5,5,0,0,1,8-.32,13,13,0,0,1,2.29,3c2.45,4.25,3.16,10,4.2,14.36C174.49,1422.85,175.24,1427.14,175.82,1431.44Z"/><path class="cls-6" d="M191.44,1431.44h-15a117.28,117.28,0,0,1,2.76-18.81c2.58-12.88,13.15-19.5,13.78,2.43A71.22,71.22,0,0,1,191.44,1431.44Z"/><path class="cls-6" d="M396.47,1397.76l0,1c0,1.12-.1,2.23-.16,3.35-.06.88-.12,1.76-.19,2.64q0,.73-.12,1.47c-.05.54-.1,1.08-.14,1.61-.1.93-.19,1.86-.29,2.78s-.22,1.95-.34,2.93-.23,1.92-.36,2.88l-.18,1.41c-.12.9-.25,1.81-.38,2.72-.2,1.47-.41,2.94-.62,4.41l-.39,2.69c-.18,1.25-.35,2.49-.52,3.74H248.93q1-2.19,2-4.37c.24-.52.49-1,.74-1.54q.8-1.66,1.65-3.33l.48-.94q.23-.46.48-.93c.4-.77.8-1.53,1.21-2.29,1-1.88,2-3.74,3.12-5.59.31-.55.63-1.09,1-1.64.56-1,1.13-1.89,1.71-2.83,0,0,0,0,0,0l1.35-2.18c.69-1.1,1.4-2.19,2.13-3.28.44-.67.88-1.33,1.33-2q2.31-3.43,4.78-6.75c.39-.54.79-1.07,1.2-1.6.82-1.09,1.66-2.18,2.52-3.25.32-.42.65-.83,1-1.24.82-1,1.67-2.06,2.53-3.08.33-.4.67-.81,1-1.21l1-1.2c.56-.65,1.13-1.3,1.71-1.94l.88-1,.89-1c.59-.65,1.19-1.29,1.79-1.93,1.3-1.38,2.63-2.75,4-4.09l1.3-1.29q1-1,2-2c.78-.74,1.56-1.48,2.36-2.2l.46-.43c.79-.72,1.59-1.43,2.4-2.14l.7-.61c1.19-1,2.39-2.05,3.6-3.05l2-1.64c.89-.72,1.78-1.42,2.68-2.11s1.63-1.25,2.46-1.86c16.78-12.45,38.74-22.4,58.12-14.57,19.56,7.89,28.54,31.11,28.92,52.19C396.53,1394.33,396.52,1396.05,396.47,1397.76Z"/><path class="cls-6" d="M459.25,1423.45c0-.88,0-1.77,0-2.65,0-30.54-6.74-61.2-22.41-87.28-18.54-30.84-50.47-54.48-86.22-58.52-51.48-5.82-98.3,27.39-148,41.9a211.56,211.56,0,0,1-141.11-8.51c-1-.41-1.9-.82-2.85-1.25q-4-1.77-7.9-3.73l-1.66-.83c-1.46-.74-2.92-1.5-4.36-2.29-.61-.32-1.21-.65-1.8-1q-3.42-1.89-6.76-3.91l-1.35-.82q-5.3-3.22-10.38-6.79c-.9-.62-1.78-1.25-2.67-1.89l-.42-.3c-.74-.54-1.48-1.08-2.21-1.63s-1.65-1.23-2.46-1.86l-.24-.18L14,1280q-4.75-3.78-9.29-7.81l-1.21-1.09c-1.17-1.06-2.34-2.13-3.48-3.22V461.71L4.53,460c.83-.3,1.67-.61,2.51-.9q3.69-1.33,7.4-2.58l2.09-.7c2.68-.89,5.38-1.74,8.08-2.56l3.77-1.1c1.32-.38,2.65-.75,4-1.1,1.07-.29,2.14-.57,3.22-.84.72-.19,1.45-.37,2.17-.54l.94-.23L41,449q2.74-.63,5.5-1.17c.92-.19,1.84-.36,2.77-.53,1.47-.28,3-.53,4.44-.76q.77-.14,1.53-.24c1.73-.26,3.47-.49,5.21-.7l2.67-.29h.13c.92-.1,1.84-.18,2.76-.26,30.86-2.57,64.09,5.24,85.44,27.65,33.4,35.05,27.41,91.25,14.19,137.81-24,84.6-64.54,164.62-79,251.36s3.92,187.31,75.33,238.61c44.65,32.07,101.69,39.49,155.37,51.4s110.63,32.58,139.24,79.53c17.64,28.94,21.86,63.85,33.39,95.72.5,1.37,1,2.74,1.53,4.09s.93,2.42,1.42,3.61,1,2.38,1.48,3.56.93,2.19,1.42,3.27a4.91,4.91,0,0,0,.28.62c.48,1.12,1,2.24,1.52,3.34a.31.31,0,0,0,.06.13c.4.89.82,1.78,1.26,2.66.31.66.63,1.31,1,2q.33.69.69,1.38c.34.71.7,1.41,1.07,2.11s.69,1.36,1.06,2c.23.47.48.93.74,1.39.36.7.74,1.41,1.13,2.1.24.45.48.89.74,1.33.47.85.95,1.7,1.43,2.55.1.18.2.35.31.52.57,1,1.16,2,1.76,3s1.36,2.27,2.06,3.4q3.12,5.07,6.48,10c.51.75,1,1.5,1.55,2.24,1,1.49,2.08,3,3.15,4.43.53.72,1,1.44,1.59,2.15.65.89,1.32,1.78,2,2.66s1.3,1.71,2,2.56c.11.15.23.3.35.44.71.93,1.44,1.85,2.18,2.76.2.26.4.51.62.76.53.67,1.07,1.33,1.62,2s1,1.2,1.48,1.8q5.65,6.78,11.72,13.25,1.85,2,3.73,3.94c1.26,1.3,2.52,2.6,3.8,3.88.94,1,1.9,1.9,2.86,2.84s1.87,1.84,2.81,2.74a.46.46,0,0,0,.12.12c1,.92,1.92,1.84,2.89,2.75H459c.06-1.09.1-2.19.14-3.28q0-1,.06-2C459.23,1425.23,459.24,1424.34,459.25,1423.45Z"/><path class="cls-6" d="M689.39,778.84c-13.68,3.4-28,1.13-42.14,1.76a135.58,135.58,0,0,0-28.07,4.58c-8.91,2.33-17.75,6.55-26.75,8.35l-.36.07c-15.8,3-34.43,1.24-48.62-6.57-14.5-8-24.79-22.14-31.19-37.4s-9.3-31.71-12.16-48L485.46,618c-2.73-15.58-5.47-31.32-4.77-47.12s5.11-31.9,15.25-44c3.5-4.19,8.13-8.07,13.59-8.23,4.59-.14,8.82,2.38,12.61,5C585.71,567,611.77,653.53,679.29,690.53c17.63,9.66,39.44,17.55,46,36.57C733.33,750.63,710.74,773.54,689.39,778.84Z"/><path class="cls-7" d="M997.55,471.13h0Zm4.47,0h0Z"/><path class="cls-5" d="M769.43,242.22c63.05-28.5,143-14.25,192.27,34.3,14.63,14.4,27,30.92,42.21,44.81,1.21,1.1,2.43,2.19,3.67,3.25.37.32.73.63,1.11.94.57.48,1.14,1,1.72,1.42s1.1.88,1.65,1.31,1.26,1,1.9,1.45l.32.23c.5.38,1,.75,1.52,1.1l.82.58c.44.32.89.62,1.35.92l1,.69c.54.36,1.09.7,1.64,1l.17.11V247.94c-28.14-28.13-59.22-52.51-96.25-66.23-78.11-29-164.39-4.47-247.52.85-61,3.91-122.71-2.87-181-21.15-31.4-9.84-62.81-23.73-84.75-48.26s-32.17-61.87-17.47-91.31A76.75,76.75,0,0,1,410.57,0H322.92c-24.38,15.4-49.77,28.87-78.16,36.56C170.38,56.69,78.75,32.15,0,44.42V211.69q6.5-.12,13-.34l1.17,0,5.45-.22L21,211l5.31-.26,2.66-.15c1.46-.07,2.92-.16,4.38-.25l2.24-.14,4.75-.32q3.56-.24,7.09-.53l1.84-.15q5.81-.47,11.59-1c1.1-.1,2.21-.21,3.31-.33,2-.2,3.94-.4,5.9-.62,1.45-.16,2.9-.32,4.34-.5s2.68-.3,4-.47c1-.11,2-.24,3-.37l2.26-.28c.92-.11,1.84-.23,2.75-.36l2.19-.29L92,204.5q3.42-.48,6.82-1l4.55-.69q6.82-1.08,13.65-2.27t13.6-2.53c1.72-.33,3.44-.68,5.16-1l.46-.1,2-.41.11,0,3.84-.81a.27.27,0,0,0,.12,0l3.06-.66c1.68-.36,3.35-.73,5-1.11l2.56-.59c1.84-.41,3.69-.85,5.53-1.29s3.89-.93,5.84-1.42l1.41-.36c1.6-.39,3.19-.79,4.78-1.2l2-.52,5.09-1.34.58-.16c1.87-.5,3.75-1,5.62-1.54l2-.57c1.42-.39,2.83-.8,4.25-1.22.67-.18,1.35-.38,2-.58,1.62-.47,3.25-.95,4.87-1.44l1.54-.47q2.92-.89,5.84-1.8l.26-.08q6.47-2,12.9-4.2c43.73-14.73,91.12-34.15,134.26-17.75C398.11,175,421,227.21,461.43,255.9c48.25,34.23,113.68,30.23,168.2,53.2,77.17,32.53,121.91,113.56,190.61,161.45q2.52,1.76,5.07,3.44l1.71,1.12c1.19.78,2.38,1.55,3.58,2.3l1.44.9,2.34,1.44,1.83,1.1,2,1.2q2.63,1.53,5.29,3c1.1.61,2.21,1.22,3.32,1.81l2.73,1.45c1.32.69,2.64,1.37,4,2,1.12.57,2.25,1.12,3.38,1.67q3.34,1.64,6.72,3.16l2.84,1.27c1.2.53,2.4,1.05,3.61,1.56q1.42.62,2.85,1.2,4.86,2,9.8,3.85l3.29,1.21c1.27.46,2.55.91,3.84,1.36l3.86,1.31,1.26.41,3.85,1.24,1.56.49c2.3.72,4.61,1.4,6.92,2.07l2.61.73q3.16.89,6.35,1.71,3.42.88,6.86,1.71l3.45.81c2.3.53,4.6,1,6.92,1.52l3.48.72q5.22,1,10.49,2l5,.85c1.66.27,3.32.54,5,.79l4.65.69,3.68.5q2.38.33,4.77.63c1.87.23,3.75.46,5.62.67l2.61.29,4.19.44c1.4.15,2.8.28,4.21.41l2.1.19,4.59.4c1.81.15,3.61.29,5.43.42q8.05.58,16.17,1l3.63.17,1.69.07v-57.2l-1,0-4.5.14-4.53.13-.78,0-4,.09-1.59,0-1.82,0h-.75l-1.4,0h-3.75c-.89,0-1.79,0-2.69,0h-4.23l-2,0q-1.11,0-2.22,0h-1c-2.5-.05-5-.12-7.49-.22-9.05-.35-18.07-1-27-2.21-2.24-.29-4.48-.62-6.72-1L940,467.1c-31.78-5.54-63.2-18.53-85.37-42-27.41-29-39.4-72-72.67-94-18-11.87-43.23-19.26-48.08-40.27C729,269.64,749.54,251.21,769.43,242.22ZM86.77,139.15a.75.75,0,0,0,0,.62,4.27,4.27,0,0,1,.12,2.35c0,.2-.07.4-.09.59a66.48,66.48,0,0,1-1.85,8.51c-.41,1.41-.85,2.79-1.33,4.16A24.12,24.12,0,0,1,82,159.25a5.09,5.09,0,0,1-.8,1.11.71.71,0,0,0-.2.54,1.7,1.7,0,0,0,0,.22v.09c.07,2.7.22,5.41.36,8.12l.09,1.9a2.69,2.69,0,0,1-.09,1.2.86.86,0,0,1-1.1.45c-.12-.07-.11-.33-.2-.44a.74.74,0,0,0-.46-.24c-.48-.1-1-.21-1.43-.33-.91-.23-1.81-.48-2.7-.76a51.32,51.32,0,0,1-8.82-3.64c-9.85-5.14-17.31-12.93-22.77-20.64-1.46-2-2.76-4.09-3.94-6.07a90.82,90.82,0,0,1-8.81-19.56c.45.57.87,1.1,1.27,1.58,6.28,7.65,6,4.92,23.09,18.63a107.42,107.42,0,0,1,24,27.21v0l.5,1.1c-.21-4.22-.32-7-.37-8.49v-.09c0-.11,0-.21,0-.32-.9-.26-1.54-1.37-2-2.07-2.47-3.43-4.68-7-7.39-10.27-1.27-1.51-2.46-3.35-1.77-5.4v0c-1.22-.36-2.1-1.73-2.9-2.61-1-1.13-2-2.28-3-3.41q-3-3.44-6-6.92c-.89-1-1.76-2.1-2.66-3.15-4-4.78-8.25-9.47-11.35-14.92-1.62-2.81-7.31-14.28-2.69-16.5a3.59,3.59,0,0,1,3,.32c9.19,4.1,14,13.17,19.25,21.25,1,1.52,2,3,3,4.54a27.53,27.53,0,0,1,2.26,3.89c-.18-.44-.36-.86-.55-1.3a119.54,119.54,0,0,1-6.29-18,39.07,39.07,0,0,1-.92-5.38C59,95.37,59.54,89.12,62.8,85a5.66,5.66,0,0,1,2.85-2,5.68,5.68,0,0,1,5.16,1.7,13,13,0,0,1,2.28,3c2.45,4.25,3.17,10,4.2,14.37a135.61,135.61,0,0,1,2.76,16.34,123.23,123.23,0,0,1,3-22.32c2.58-12.88,13.15-19.5,13.77,2.43C97.33,116.24,89.7,133.29,86.77,139.15Z"/><path class="cls-6" d="M86.77,139.15c2.93-5.86,10.56-22.91,10-40.67C96.19,76.55,85.62,83.17,83,96.05a123.23,123.23,0,0,0-3,22.32s0,0,0,0,0,0,0,0v-.06A135.61,135.61,0,0,0,77.29,102c-1-4.42-1.75-10.12-4.2-14.37a13,13,0,0,0-2.28-3A5.68,5.68,0,0,0,65.65,83a5.66,5.66,0,0,0-2.85,2c-3.26,4.09-3.78,10.34-3.19,15.89a39.07,39.07,0,0,0,.92,5.38,119.54,119.54,0,0,0,6.29,18c.19.44.37.86.55,1.3a27.53,27.53,0,0,0-2.26-3.89c-1-1.51-2-3-3-4.54C56.85,109.06,52,100,42.83,95.89a3.59,3.59,0,0,0-3-.32c-4.62,2.22,1.07,13.69,2.69,16.5,3.1,5.45,7.35,10.14,11.35,14.92.9,1,1.77,2.1,2.66,3.15q3,3.48,6,6.92c1,1.13,2,2.28,3,3.41.8.88,1.68,2.25,2.9,2.61v0c-.69,2.05.5,3.89,1.77,5.4,2.71,3.24,4.92,6.84,7.39,10.27.5.7,1.14,1.81,2,2.07,0,.11,0,.21,0,.32v.09c.05,1.45.16,4.27.37,8.49l-.5-1.1v0a107.42,107.42,0,0,0-24-27.21c-17.13-13.71-16.81-11-23.09-18.63-.4-.48-.82-1-1.27-1.58A90.82,90.82,0,0,0,40,140.76c1.18,2,2.48,4,3.94,6.07,5.46,7.71,12.92,15.5,22.77,20.64a51.32,51.32,0,0,0,8.82,3.64c.89.28,1.79.53,2.7.76.47.12,1,.23,1.43.33a.74.74,0,0,1,.46.24c.09.11.08.37.2.44a.86.86,0,0,0,1.1-.45,2.69,2.69,0,0,0,.09-1.2l-.09-1.9c-.14-2.71-.29-5.42-.36-8.12v-.09a1.7,1.7,0,0,1,0-.22.71.71,0,0,1,.2-.54,5.09,5.09,0,0,0,.8-1.11,24.12,24.12,0,0,0,1.57-3.87c.48-1.37.92-2.75,1.33-4.16a66.48,66.48,0,0,0,1.85-8.51c0-.19.06-.39.09-.59a4.27,4.27,0,0,0-.12-2.35A.75.75,0,0,1,86.77,139.15Zm-6-16.89s0,0,0,0v0c0,.32.07.65.1,1C80.82,122.91,80.78,122.58,80.74,122.26Z"/><path class="cls-2" d="M80.05,118.37s0,0,0,0,0,0,0,0Z"/><path class="cls-2" d="M80.85,123.23c0-.32-.07-.65-.11-1,0,0,0,0,0,0v0C80.78,122.58,80.82,122.91,80.85,123.23Z"/><path class="cls-6" d="M322.92,0c-24.38,15.4-49.77,28.87-78.16,36.56C170.38,56.69,78.75,32.15,0,44.42V1.79C.84,1.2,1.67.6,2.5,0Z"/><path class="cls-2" d="M2.5,0C1.67.6.84,1.2,0,1.79V0Z"/><path class="cls-5" d="M931,0A366.3,366.3,0,0,1,805.53,53.39c-19.42,4.21-45.09,3.75-52.73-14.6C747.32,25.63,754.91,11.68,764.09,0H576.47a254.85,254.85,0,0,0-35.93,30.74c-9.49,9.88-18.47,21.66-19.09,35.35-1.14,25.17,25.49,42.3,49.79,49,57.4,15.83,118.5,4.8,176.47-8.81s116.84-29.83,176.1-24.09c34.68,3.36,70,16.22,97,37.64V0ZM705.21,31.37c-7,16.3-21.18,28.52-26.31,32.6a.72.72,0,0,0-.27.56,4.37,4.37,0,0,1-.89,2.17c-.11.16-.23.33-.33.5a64.58,64.58,0,0,1-5.29,6.92c-1,1.1-1.94,2.16-3,3.21a23.46,23.46,0,0,1-3,2.85,5.3,5.3,0,0,1-1.2.66.68.68,0,0,0-.41.4,1.67,1.67,0,0,0-.08.2l0,.09c-1.09,2.47-2.09,5-3.11,7.5l-.72,1.77a2.52,2.52,0,0,1-.6,1,.84.84,0,0,1-1.18,0c-.08-.11,0-.35,0-.48a.77.77,0,0,0-.33-.42c-.38-.29-.77-.59-1.15-.9-.72-.59-1.43-1.2-2.12-1.83a52.4,52.4,0,0,1-6.46-7c-6.74-8.83-10.21-19-11.89-28.35-.46-2.46-.77-4.87-1-7.16a91,91,0,0,1,.29-21.45c.18.71.33,1.36.49,2,2.45,9.6,3.32,7,13,26.66A107.33,107.33,0,0,1,659.9,87.62v1.23c1.59-3.91,2.69-6.52,3.26-7.85l0-.09c0-.1.09-.19.12-.29-.7-.62-.81-1.9-1-2.75-.79-4.14-1.27-8.34-2.35-12.42-.51-1.91-.81-4.08.68-5.64,0,0,0,0,0,0-.95-.83-1.17-2.44-1.52-3.58-.45-1.46-.89-2.93-1.31-4.38q-1.3-4.4-2.5-8.8l-1.07-4c-1.61-6-3.47-12.07-4-18.33-.28-3.23-.59-16,4.54-16.09a3.6,3.6,0,0,1,2.54,1.55c6.59,7.61,7.13,17.86,8.46,27.4.25,1.8.53,3.6.82,5.4a29.08,29.08,0,0,1,.4,4.35l.06-1.29A119.18,119.18,0,0,1,669,23.09a37.22,37.22,0,0,1,1.44-5.26c1.82-5.28,4.93-10.72,9.63-13a5.63,5.63,0,0,1,3.42-.63,5.66,5.66,0,0,1,4,3.72,12.9,12.9,0,0,1,.82,3.66c.42,4.88-1.35,10.35-2.27,14.79a138.53,138.53,0,0,1-4.42,16,122.12,122.12,0,0,1,12.14-18.94C701.55,12.75,713.93,11.24,705.21,31.37Z"/><path class="cls-6" d="M693.75,23.34a122.12,122.12,0,0,0-12.14,18.94,138.53,138.53,0,0,0,4.42-16c.92-4.44,2.69-9.91,2.27-14.79a12.9,12.9,0,0,0-.82-3.66,5.66,5.66,0,0,0-4-3.72,5.63,5.63,0,0,0-3.42.63c-4.7,2.33-7.81,7.77-9.63,13A37.22,37.22,0,0,0,669,23.09,119.18,119.18,0,0,0,667.13,42l-.06,1.29a29.08,29.08,0,0,0-.4-4.35c-.29-1.8-.57-3.6-.82-5.4C664.52,24,664,13.78,657.39,6.17a3.6,3.6,0,0,0-2.54-1.55c-5.13.06-4.82,12.86-4.54,16.09.5,6.26,2.36,12.3,4,18.33l1.07,4q1.2,4.41,2.5,8.8c.42,1.45.86,2.92,1.31,4.38.35,1.14.57,2.75,1.52,3.58,0,0,0,0,0,0-1.49,1.56-1.19,3.73-.68,5.64,1.08,4.08,1.56,8.28,2.35,12.42.16.85.27,2.13,1,2.75,0,.1-.08.19-.12.29l0,.09c-.57,1.33-1.67,3.94-3.26,7.85V87.62a107.33,107.33,0,0,0-10.26-34.83c-9.71-19.67-10.58-17.06-13-26.66-.16-.6-.31-1.25-.49-2a91,91,0,0,0-.29,21.45c.23,2.29.54,4.7,1,7.16,1.68,9.31,5.15,19.52,11.89,28.35a52.4,52.4,0,0,0,6.46,7c.69.63,1.4,1.24,2.12,1.83.38.31.77.61,1.15.9a.77.77,0,0,1,.33.42c0,.13-.09.37,0,.48a.84.84,0,0,0,1.18,0,2.52,2.52,0,0,0,.6-1l.72-1.77c1-2.51,2-5,3.11-7.5l0-.09a1.67,1.67,0,0,1,.08-.2.68.68,0,0,1,.41-.4,5.3,5.3,0,0,0,1.2-.66,23.46,23.46,0,0,0,3-2.85c1-1,2-2.11,3-3.21a64.58,64.58,0,0,0,5.29-6.92c.1-.17.22-.34.33-.5a4.37,4.37,0,0,0,.89-2.17.72.72,0,0,1,.27-.56c5.13-4.08,19.27-16.3,26.31-32.6C713.93,11.24,701.55,12.75,693.75,23.34ZM680.43,46.57l.15-.47h0C680.54,46.26,680.48,46.41,680.43,46.57Zm.83-3.3c.11-.31.21-.62.31-.93h0Z"/><path class="cls-2" d="M680.58,46.1h0c-.05.16-.11.31-.16.47Z"/><path class="cls-2" d="M681.58,42.34l-.32.93c.11-.31.21-.62.31-.93Z"/><path class="cls-6" d="M931,0A366.3,366.3,0,0,1,805.53,53.39c-19.42,4.21-45.09,3.75-52.73-14.6C747.32,25.63,754.91,11.68,764.09,0Z"/><path class="cls-6" d="M1020.83,119.83V247.94c-28.14-28.13-59.22-52.51-96.25-66.23-78.11-29-164.39-4.47-247.52.85-61,3.91-122.71-2.87-181-21.15-31.4-9.84-62.81-23.73-84.75-48.26s-32.17-61.87-17.47-91.31A76.75,76.75,0,0,1,410.57,0h165.9a254.85,254.85,0,0,0-35.93,30.74c-9.49,9.88-18.47,21.66-19.09,35.35-1.14,25.17,25.49,42.3,49.79,49,57.4,15.83,118.5,4.8,176.47-8.81s116.84-29.83,176.1-24.09C958.49,85.55,993.78,98.41,1020.83,119.83Z"/><path class="cls-6" d="M1020.83,334.37V470.61l-1,0-4.5.14-4.53.13-.78,0-4,.09-4,.06-1.69,0h-3.62c-.89,0-1.79,0-2.69,0h-1l-3.2,0-2,0q-1.11,0-2.22,0h-1c-2.5-.05-5-.12-7.49-.22-9.05-.35-18.07-1-27-2.21q-3.36-.45-6.72-1L940,467.1c-31.78-5.54-63.2-18.53-85.37-42-27.41-29-39.4-72-72.67-94-18-11.87-43.23-19.26-48.08-40.27-4.92-21.26,15.66-39.69,35.55-48.68,63.05-28.5,143-14.25,192.27,34.3,14.63,14.4,27,30.92,42.21,44.81,1.21,1.1,2.43,2.19,3.67,3.25.37.32.73.63,1.11.94.57.48,1.14,1,1.72,1.42s1.1.88,1.65,1.31,1.26,1,1.9,1.45l.32.23c.5.38,1,.75,1.52,1.1l.82.58c.44.32.89.62,1.35.92l1,.69c.54.36,1.09.7,1.64,1Z"/><path class="cls-2" d="M950.07,468.63c-2.24-.29-4.48-.62-6.72-1Q946.71,468.18,950.07,468.63Z"/><path class="cls-2" d="M993,471.15h-3.2Z"/><path class="cls-2" d="M998.13,471.13h0Z"/><path class="cls-2" d="M1006,471l-1.59,0-1.82,0h-.75l-1.4,0h-.13l1.69,0Z"/><path class="cls-6" d="M1020.83,527.81V870.6l-.19-.07-2.58-.86c-.92-.32-1.85-.63-2.76-1l-2.76-1q-4.12-1.5-8.19-3.13l-1.65-.66c-1.29-.52-2.57-1.06-3.85-1.6l-2.6-1.12c-.85-.36-1.69-.73-2.53-1.11l-2.81-1.28-2.56-1.19q-3.14-1.47-6.23-3l-1.74-.88-2.6-1.34q-2.6-1.35-5.16-2.76l-2.27-1.26-2.84-1.61L965,845.28l-1.85-1.1c-1.06-.63-2.12-1.27-3.17-1.92-.83-.51-1.66-1-2.48-1.54s-1.65-1.05-2.47-1.58c-1-.66-2-1.32-3.06-2l-1.83-1.22c-1.66-1.11-3.3-2.25-4.94-3.39s-3.1-2.21-4.63-3.34q-3.54-2.58-7-5.3l-2.29-1.81q-8.52-6.8-16.49-14.23l-1.69-1.59q-1.86-1.75-3.69-3.56l-2-2c-.75-.75-1.49-1.5-2.22-2.26l-1.66-1.71c-.55-.58-1.11-1.16-1.65-1.75s-1-1-1.47-1.57q-3.9-4.21-7.62-8.58c-.51-.59-1-1.19-1.5-1.78s-1-1.24-1.55-1.87l-1.2-1.47Q880.81,770.2,874,760c-16.19-24.23-30-52.36-55.74-66-16.53-8.76-35.8-10.22-54-14.63-80-19.37-133.22-93-177.53-162.31s-92.9-144.61-170.68-171.45c-74.46-25.68-155.88.09-229.89,27-4.41,1.6-8.84,3.22-13.29,4.82l-5.34,1.93-4.66,1.66-1.41.5c-2.22.79-4.44,1.58-6.67,2.35-2,.72-4.07,1.43-6.1,2.13l-5.41,1.85-5.42,1.82-4.55,1.51-1.56.51-4.12,1.33-1.53.48q-5,1.6-10.06,3.12l-2.76.83c-2.74.81-5.47,1.6-8.21,2.37s-5.51,1.54-8.27,2.27l-5.49,1.42-2.78.7q-5.5,1.35-11,2.57-4.14.92-8.29,1.73a295.31,295.31,0,0,1-59.7,6.16H9.34c-1.25,0-2.51,0-3.76-.06l-2.79-.08L0,414.49V211.69q6.5-.12,13-.34l1.17,0c1.82-.06,3.63-.14,5.45-.22L21,211c1.77-.08,3.54-.16,5.31-.26l2.66-.15c1.46-.07,2.92-.16,4.38-.25l2.24-.14c1.58-.1,3.17-.2,4.75-.32q3.56-.24,7.09-.53l1.84-.15q5.81-.47,11.59-1c1.1-.1,2.21-.21,3.31-.33,2-.2,3.94-.4,5.9-.62,1.45-.16,2.9-.32,4.34-.5s2.68-.3,4-.47c1-.11,2-.23,3-.37l2.26-.28c.92-.11,1.84-.23,2.75-.36l2.19-.29L92,204.5c2.27-.32,4.55-.64,6.82-1l4.55-.69q6.82-1.08,13.65-2.27t13.6-2.53c1.72-.33,3.44-.68,5.16-1l.46-.1,2-.41.11,0,3.84-.81a.27.27,0,0,0,.12,0l3.06-.66c1.68-.36,3.35-.73,5-1.11l2.56-.59c1.84-.41,3.69-.85,5.53-1.29s3.89-.93,5.84-1.42l1.41-.36c1.59-.39,3.19-.78,4.78-1.2l2-.52q2.55-.65,5.09-1.34l.58-.16c1.87-.5,3.75-1,5.62-1.54l2-.57c1.42-.39,2.83-.8,4.25-1.22.67-.18,1.35-.38,2-.58,1.63-.47,3.24-.95,4.87-1.44l1.54-.47q2.92-.89,5.84-1.8l.26-.08q6.48-2,12.9-4.2c43.73-14.73,91.12-34.15,134.26-17.75C398.11,175,421,227.21,461.43,255.9c48.25,34.23,113.68,30.23,168.2,53.2,77.17,32.53,121.91,113.56,190.61,161.45q2.52,1.76,5.07,3.44l1.71,1.12c1.19.78,2.38,1.55,3.58,2.3l1.44.9,2.34,1.44,1.83,1.1,2,1.2q2.63,1.53,5.29,3c1.1.61,2.21,1.22,3.32,1.81l2.73,1.45c1.32.69,2.64,1.37,4,2,1.12.57,2.25,1.12,3.38,1.67q3.34,1.64,6.72,3.16l2.84,1.27c1.2.53,2.4,1.05,3.61,1.56q1.42.62,2.85,1.2,4.86,2,9.8,3.85l3.29,1.21c1.27.46,2.55.91,3.84,1.36s2.57.89,3.86,1.31l1.26.41.59.2,3.26,1,1.56.49c2.3.72,4.61,1.4,6.92,2.07l2.61.73q3.16.89,6.35,1.71,3.42.88,6.86,1.71l3.45.81c2.3.53,4.6,1,6.92,1.52l3.48.72q5.22,1,10.49,2l5,.85c1.66.27,3.32.54,5,.79l4.65.69,3.68.5q2.38.33,4.77.63c1.87.23,3.75.46,5.62.67l2.61.29,4.19.44c1.4.15,2.8.28,4.21.41l2.1.19,4.59.4c1.81.15,3.61.29,5.43.42q8.05.58,16.17,1l3.63.17Z"/><path class="cls-2" d="M217.52,175.07q-6.42,2.18-12.9,4.2Q211.09,177.23,217.52,175.07Z"/><path class="cls-2" d="M898.86,508.58l-3.26-1-.59-.2Z"/><path class="cls-5" d="M777.93,1114.48c6.49-21.57,19.61-44.13,41.54-49.27,19.18-4.51,38.47,5.77,55.09,16.33,1.68,1.07,3.36,2.14,5,3.23,1.13.73,2.27,1.46,3.39,2.22s2,1.27,2.93,1.92q2.26,1.48,4.51,3c3,2,5.89,4,8.81,6,.18.11.35.24.53.37q2,1.37,3.94,2.76a.24.24,0,0,1,.09.06c1.46,1,2.92,2.06,4.37,3.11q1.76,1.24,3.49,2.52l.42.31,2.9,2.11q2.12,1.54,4.21,3.11c1.77,1.33,3.53,2.65,5.29,4s3.32,2.53,5,3.82c.65.5,1.31,1,2,1.52.88.67,1.75,1.36,2.62,2.05q2.94,2.31,5.86,4.65c2,1.56,3.88,3.13,5.81,4.72,1.75,1.42,3.48,2.86,5.21,4.31q5.19,4.34,10.29,8.76l2.37,2.07,1.76,1.55,2,1.79c.9.79,1.79,1.59,2.68,2.39,1.41,1.26,2.81,2.52,4.2,3.8q1.85,1.66,3.66,3.36c.54.48,1.06,1,1.59,1.47q1.66,1.53,3.31,3.09l.47.44c1.37,1.28,2.73,2.58,4.09,3.88s2.88,2.76,4.31,4.15q4.29,4.17,8.51,8.41l2.76,2.78c.14.14.29.29.42.44,1.24,1.25,2.46,2.5,3.68,3.76.47.48.94,1,1.39,1.44q1.5,1.54,3,3.1c.26.26.51.52.76.79l1.2,1.27q3.78,4,7.48,8V1069.71Q908.41,1018.7,796,967.64c-33.19-15.07-67.23-30.36-103.57-33.23s-76.06,9.14-96.85,39.08c-24.26,35-16.47,82.91-.56,122.38s39.13,77.06,43.7,119.37c3.73,34.57-5.33,70.46,4.42,103.83,14.2,48.6,64.36,78,113.44,90.38a354.46,354.46,0,0,0,35.38,7c3,.44,5.94.84,8.91,1.22q9,1.13,18,1.91t18,1.29l4.56.24q9,.45,18.08.69h0q6.78.18,13.58.28h0c18.25.26,36.55.13,54.82.13,12.66,0,25.3.06,37.89.37q3.39.08,6.76.19l2.36.07c1.83.06,3.66.13,5.48.21,2.17.09,4.34.18,6.51.3,1.28.06,2.56.12,3.84.2l2.46.14,3.41.21,2.4.16,4.42.32h.08c1.66.12,3.31.26,5,.4l1.76.16c1.6.14,3.19.29,4.79.45,1.8.18,3.59.36,5.39.56l.34,0v-89c-1.38-.09-2.75-.2-4.12-.31l-3.81-.3-.63,0-3.78-.32-4.11-.37-4.11-.39-4.11-.41c-2.74-.27-5.48-.57-8.21-.88l-4.1-.47c-1.1-.12-2.19-.25-3.29-.39q-2.17-.25-4.35-.54-4.35-.54-8.7-1.15c-2.77-.37-5.54-.77-8.31-1.18l-4-.6q-2-.3-4.08-.63l-4.07-.65-4.08-.68c-1.94-.32-3.87-.65-5.81-1l-4.62-.83c-2.78-.49-5.55-1-8.32-1.54-1.87-.36-3.74-.72-5.6-1.1-2.7-.53-5.4-1.07-8.09-1.64-2.16-.45-4.33-.91-6.49-1.38q-2.8-.6-5.59-1.23h0q-6-1.35-12.07-2.8c-2-.48-4-1-6-1.47s-4-1-6-1.51l-4-1q-4-1-8-2.13l-4-1.09c-2.65-.73-5.29-1.48-7.94-2.24l-4-1.15-4-1.17-3.82-1.15c-2-.61-4-1.22-6-1.85s-4-1.24-5.94-1.88c-1.3-.41-2.61-.83-3.91-1.26l-.5-.16-5.31-1.75-6-2c-2.25-.77-4.49-1.54-6.73-2.34l-1.14-.4q-3.86-1.35-7.69-2.76-12-4.37-23.86-9.12c-2.31-.93-4.62-1.86-6.93-2.81-20.07-8.25-42.86-21.52-43.69-43.21-.86-22.4,22-37.22,34.77-55.66S771.45,1136.06,777.93,1114.48Zm-55.25-80.72c-2.22,17.63-12.38,33.3-16.17,38.65a.74.74,0,0,0-.11.61,4.45,4.45,0,0,1-.24,2.34c-.06.19-.13.38-.18.57a67.1,67.1,0,0,1-3.14,8.12c-.61,1.33-1.27,2.62-2,3.9a23.2,23.2,0,0,1-2.15,3.59,4.89,4.89,0,0,1-1,1,.73.73,0,0,0-.28.5l0,.22v.09c-.35,2.68-.61,5.38-.9,8.08-.06.62-.13,1.26-.19,1.89a2.66,2.66,0,0,1-.28,1.18.87.87,0,0,1-1.16.27c-.1-.09,0-.34-.12-.47a.74.74,0,0,0-.43-.3c-.45-.18-.91-.36-1.35-.55-.87-.36-1.71-.75-2.56-1.16a52.81,52.81,0,0,1-8.15-5c-9-6.59-15.12-15.43-19.33-23.9-1.13-2.24-2.09-4.46-3-6.59a91.23,91.23,0,0,1-5.7-20.69c.36.64.69,1.22,1,1.75,5,8.53,5.13,5.78,19.95,22a107,107,0,0,1,19.56,30.58v0l.34,1.16c.43-4.2.76-7,.93-8.45v-.08c0-.11,0-.21,0-.32-.84-.4-1.31-1.6-1.69-2.37-1.91-3.76-3.55-7.66-5.73-11.28-1-1.69-1.91-3.68-.92-5.6,0,0,0,0,0,0-1.15-.53-1.81-2-2.46-3-.85-1.27-1.68-2.56-2.49-3.83-1.65-2.58-3.26-5.16-4.86-7.77l-2.13-3.51c-3.22-5.34-6.7-10.63-8.93-16.49-1.16-3-5-15.23-.11-16.72a3.6,3.6,0,0,1,2.86.77c8.45,5.47,11.83,15.17,15.77,24,.73,1.66,1.51,3.3,2.29,5a27.1,27.1,0,0,1,1.63,4.19c-.1-.45-.22-.91-.34-1.37a121.06,121.06,0,0,1-3.46-18.72,39.26,39.26,0,0,1-.07-5.46c.27-5.57,1.74-11.67,5.59-15.21a5,5,0,0,1,8,.91,12.92,12.92,0,0,1,1.81,3.28c1.76,4.57,1.59,10.32,1.94,14.84a136.62,136.62,0,0,1,.21,16.56,123.21,123.21,0,0,1,6.38-21.59C714,1016.91,725.43,1012,722.68,1033.76Z"/><path class="cls-6" d="M709.44,1029.24a123.21,123.21,0,0,0-6.38,21.59,136.62,136.62,0,0,0-.21-16.56c-.35-4.52-.18-10.27-1.94-14.84a12.92,12.92,0,0,0-1.81-3.28,5,5,0,0,0-8-.91c-3.85,3.54-5.32,9.64-5.59,15.21a39.26,39.26,0,0,0,.07,5.46,121.06,121.06,0,0,0,3.46,18.72c.12.46.24.92.34,1.37a27.1,27.1,0,0,0-1.63-4.19c-.78-1.65-1.56-3.29-2.29-5-3.94-8.79-7.32-18.49-15.77-24a3.6,3.6,0,0,0-2.86-.77c-4.92,1.49-1,13.69.11,16.72,2.23,5.86,5.71,11.15,8.93,16.49l2.13,3.51c1.6,2.61,3.21,5.19,4.86,7.77.81,1.27,1.64,2.56,2.49,3.83.65,1,1.31,2.49,2.46,3,0,0,0,0,0,0-1,1.92-.1,3.91.92,5.6,2.18,3.62,3.82,7.52,5.73,11.28.38.77.85,2,1.69,2.37,0,.11,0,.21,0,.32v.08c-.17,1.44-.5,4.25-.93,8.45l-.34-1.16v0a107,107,0,0,0-19.56-30.58c-14.82-16.19-14.92-13.44-19.95-22-.33-.53-.66-1.11-1-1.75a91.23,91.23,0,0,0,5.7,20.69c.87,2.13,1.83,4.35,3,6.59,4.21,8.47,10.38,17.31,19.33,23.9a52.81,52.81,0,0,0,8.15,5c.85.41,1.69.8,2.56,1.16.44.19.9.37,1.35.55a.74.74,0,0,1,.43.3c.07.13,0,.38.12.47a.87.87,0,0,0,1.16-.27,2.66,2.66,0,0,0,.28-1.18c.06-.63.13-1.27.19-1.89.29-2.7.55-5.4.9-8.08v-.09l0-.22a.73.73,0,0,1,.28-.5,4.89,4.89,0,0,0,1-1,23.2,23.2,0,0,0,2.15-3.59c.68-1.28,1.34-2.57,2-3.9a67.1,67.1,0,0,0,3.14-8.12c0-.19.12-.38.18-.57a4.45,4.45,0,0,0,.24-2.34.74.74,0,0,1,.11-.61c3.79-5.35,14-21,16.17-38.65C725.43,1012,714,1016.91,709.44,1029.24Zm-6.39,21.66c0,.33,0,.65,0,1,0-.33,0-.65,0-1l0,0Zm.1,3.89c0,.32,0,.65,0,1,0-.33,0-.66,0-1v0Z"/><path class="cls-2" d="M703,1050.9l0,0v0c0,.33,0,.65,0,1C703,1051.54,703,1051.22,703,1050.9Z"/><path class="cls-2" d="M703.15,1054.77v0c0,.32,0,.65,0,1,0-.33,0-.66,0-1Z"/><path class="cls-6" d="M1020.83,1204.12V1337c-1.38-.09-2.75-.2-4.12-.31l-3.81-.3-.63,0-3.78-.32-4.11-.37-4.11-.39-4.11-.41c-2.74-.27-5.48-.57-8.21-.88l-4.1-.47c-1.1-.12-2.19-.25-3.29-.39q-2.17-.25-4.35-.54-4.35-.54-8.7-1.15c-2.77-.37-5.54-.77-8.31-1.18l-4-.6q-2-.3-4.08-.63l-4.07-.65-4.08-.68c-1.94-.32-3.87-.65-5.81-1l-4.62-.83c-2.78-.49-5.55-1-8.32-1.54l-5.6-1.1q-4-.8-8.09-1.64c-2.16-.45-4.33-.91-6.49-1.38q-2.8-.6-5.59-1.23h0q-6-1.35-12.07-2.8c-2-.48-4-1-6-1.47s-4-1-6-1.51l-4-1q-4-1-8-2.13l-4-1.09c-2.65-.73-5.29-1.48-7.94-2.24l-4-1.15-4-1.17-3.82-1.15c-2-.61-4-1.22-6-1.85s-4-1.24-5.94-1.88c-1.3-.41-2.61-.83-3.91-1.26l-.5-.16-5.31-1.75-6-2q-3.37-1.15-6.73-2.34l-1.14-.4q-3.86-1.37-7.69-2.76-12-4.37-23.86-9.12c-2.31-.93-4.62-1.86-6.93-2.81-20.07-8.25-42.86-21.52-43.69-43.21-.86-22.4,22-37.22,34.77-55.66s15.62-41.89,22.1-63.47,19.61-44.13,41.54-49.27c19.18-4.51,38.47,5.77,55.09,16.33,1.68,1.07,3.36,2.14,5,3.23L883,1087c1,.62,2,1.27,2.93,1.92q2.26,1.48,4.51,3c3,2,5.89,4,8.81,6l.53.37q2,1.37,3.94,2.76a.24.24,0,0,1,.09.06c1.46,1,2.92,2.06,4.37,3.11q1.76,1.24,3.49,2.52l.42.31,2.9,2.11q2.12,1.54,4.21,3.11,2.66,2,5.29,4c1.67,1.26,3.32,2.53,5,3.82l2,1.52c.88.67,1.75,1.36,2.62,2.05q2.94,2.31,5.86,4.65c2,1.56,3.88,3.13,5.81,4.72,1.74,1.43,3.48,2.86,5.21,4.31q5.19,4.34,10.29,8.76l2.37,2.07,1.76,1.55,2,1.79c.9.79,1.79,1.59,2.68,2.39,1.4,1.26,2.81,2.53,4.2,3.8q1.85,1.66,3.66,3.36c.54.48,1.06,1,1.59,1.47q1.66,1.53,3.31,3.09l.47.44,4.09,3.88q2.16,2.07,4.31,4.15,4.29,4.17,8.51,8.41l2.76,2.78c.14.14.29.29.42.44,1.24,1.25,2.46,2.5,3.68,3.76.47.48.94,1,1.39,1.44q1.5,1.54,3,3.1c.26.26.51.52.76.79l1.2,1.27Q1017.13,1200.08,1020.83,1204.12Z"/><path class="cls-2" d="M898.45,1318.91q-6-1.35-12.07-2.8Q892.41,1317.55,898.45,1318.91Z"/><path class="cls-6" d="M595.59,973.49c-24.26,35-16.47,82.91-.56,122.38s39.13,77.06,43.7,119.37c3.73,34.57-5.33,70.46,4.42,103.83,14.2,48.6,64.36,78,113.44,90.38a354.46,354.46,0,0,0,35.38,7c3,.44,5.94.85,8.91,1.22q9,1.13,18,1.91t18,1.29l4.56.24q9,.47,18.08.69h0q6.79.2,13.58.28h0c18.25.26,36.55.13,54.82.13,12.66,0,25.3.06,37.89.37q3.39.08,6.76.19l2.36.07c1.83.06,3.66.13,5.48.21,2.17.09,4.34.18,6.51.3,1.28.06,2.56.12,3.84.2l2.46.14,3.41.21,2.4.16,4.42.32h.08c1.66.12,3.31.26,5,.4l1.76.16c1.6.14,3.19.29,4.79.45,1.8.18,3.59.36,5.39.56l.34,0v5.45h-389c-1.24-.7-2.47-1.42-3.7-2.14-1.4-.82-2.8-1.66-4.19-2.5-1.63-1-3.24-2-4.85-3-47.78-30-90-78.47-89.8-134.91.12-33.7,15.33-67.32,8-100.22-7.61-34.14-37.9-59.41-47.2-93.13-9.95-36,5.79-73.65,21.18-107.72,30.39-67.2,66.44-140.15,134.34-169,65.88-27.94,142.1-5.19,206.15,26.73q7.85,3.92,15.64,8,2.6,1.35,5.19,2.73l4.07,2.15q5.75,3,11.49,6.15l5.18,2.79.88.48,8.57,4.62c7.56,4.08,15.14,8.15,22.74,12.13,1.87,1,3.74,2,5.61,2.93l6.35,3.26,5.06,2.55c9.53,4.77,19.13,9.34,28.84,13.57l2.92,1.26q5.41,2.32,10.9,4.49c.9.36,1.8.72,2.7,1.06l2.22.86q7,2.67,14.12,5,2.74.92,5.5,1.78,4.23,1.34,8.5,2.53l2.61.72v145Q908.41,1018.7,796,967.64c-33.19-15.07-67.23-30.36-103.57-33.23S616.38,943.55,595.59,973.49Z"/><path class="cls-2" d="M800.88,1417.66c-3-.37-6-.78-8.91-1.22C794.94,1416.88,797.91,1417.28,800.88,1417.66Z"/><path class="cls-2" d="M836.84,1420.86q-9-.51-18-1.29Q827.83,1420.35,836.84,1420.86Z"/><path class="cls-2" d="M859.48,1421.79q-9-.24-18.08-.69Q850.42,1421.55,859.48,1421.79Z"/><path class="cls-2" d="M873.11,1422.07q-6.79-.09-13.58-.28Q866.31,1422,873.11,1422.07Z"/></g></g></svg>