<svg xmlns="http://www.w3.org/2000/svg" viewBox="0 0 295.98 163.95"><defs><style>.cls-1{fill:#faf4e7;}.cls-2{fill:#878039;}.cls-2,.cls-6,.cls-7{stroke:#7b7325;stroke-miterlimit:10;}.cls-2,.cls-7{stroke-width:0.74px;}.cls-3{fill:#e0b75e;}.cls-4{fill:#7b7325;}.cls-5{fill:#b5944c;}.cls-6,.cls-7{fill:none;}.cls-6{stroke-width:1.32px;}</style></defs><g id="Layer_2" data-name="Layer 2"><g id="Layer_1-2" data-name="Layer 1"><path class="cls-1" d="M294.15,116a17.9,17.9,0,0,1,1.6,10.56c-.56,5-3.3,9.81-7.83,14.34a26.57,26.57,0,0,1-3,2.55c-.38.37-.76.66-1.14,1-6.6,6-16.32,11.32-25,14.44a82.62,82.62,0,0,1-28.11,5,10.87,10.87,0,0,1-1.8-.1c-1.13.1-2.26.1-3.39.1a84.55,84.55,0,0,1-29.15-5.57,81.06,81.06,0,0,1-25-14.9c-7.17-6.32-12.73-14.53-16.88-24.72a73.34,73.34,0,0,1-2.74-8.22,78.48,78.48,0,0,1-2.45-14.79c0-.47-.09-1-.09-1.61a47.92,47.92,0,0,1-.29-5.28v-1.6a48,48,0,0,1,.29-5.29,4.56,4.56,0,0,1,.09-1.6,76.1,76.1,0,0,1,5.19-23c4.15-10.18,9.71-18.39,16.88-24.71a81.06,81.06,0,0,1,25-14.9,84.32,84.32,0,0,1,29.15-5.57c1.13,0,2.26,0,3.39.09a12.06,12.06,0,0,1,1.8-.09,82.62,82.62,0,0,1,28.11,5c8.67,3.11,18.39,8.4,25,14.43.38.38.76.66,1.14,1,.56.47,1.13.85,1.69,1.41a7.62,7.62,0,0,1,1.32,1.14c4.53,4.53,7.27,9.34,7.83,14.34a14.86,14.86,0,0,1,.23,2.56,17.3,17.3,0,0,1-1.55,7.34c-.09.19-.19.47-.28.66a19.32,19.32,0,0,1-6.89,8.11,18.5,18.5,0,0,1-10.94,2.64,3.33,3.33,0,0,1-.94-.09,17.32,17.32,0,0,1-6.32-1.51,22.12,22.12,0,0,1-5.38-3c1.54,1.22,3.57-4.53,4.23-6.71l.2-.74c.76-6.89-2.16-15.47-5.18-21.51a31.92,31.92,0,0,0-8-10.47,29.33,29.33,0,0,0-3.49-3.21c-3.4-2.64-8.21-3.67-12.83-4a29.77,29.77,0,0,0-4.06-.19c-6.6,0-10.75.95-15.66,4.91-1.22,1-2.45,2.07-3.58,3.21a44.71,44.71,0,0,0-8.21,13.11q-1.12,2.69-2,5.37a107.2,107.2,0,0,0-4.43,17.36c0,.19-.1.47-.1.66-.28,1.7-.56,3.4-.75,5.19a133.92,133.92,0,0,0-1.13,19.81q0,1.41,0,2.79a133.49,133.49,0,0,0,1.1,15c.19,1.79.47,3.49.75,5.19.1.56.19,1.22.29,1.79a107.85,107.85,0,0,0,4.24,16.22q.85,2.7,2,5.38c0,.09.1.19.1.28a43.87,43.87,0,0,0,8.11,12.83,39.74,39.74,0,0,0,3.58,3.21c4.91,4,9.06,4.9,15.66,4.9a29.77,29.77,0,0,0,4.06-.19c4.62-.28,9.43-1.32,12.83-4a28.46,28.46,0,0,0,3.49-3.2c6.7-5.48,10.09-14.06,12-22.36,1.32-5.94,2.92-13.21-3.21-17.07a22.12,22.12,0,0,1,5.38-3,16.93,16.93,0,0,1,6.32-1.51,3,3,0,0,1,.94-.1,18.57,18.57,0,0,1,10.94,2.65A19.32,19.32,0,0,1,294.15,116Z"/><path class="cls-1" d="M148.19,119c-2.35-7.36-3.32-16.1-3.32-24.69a57.65,57.65,0,0,1,.48-5.8c-1.06-.92-.92-.87-1.24-1.13-4.51-3.56-9.41-5.46-16.39-6.59a33.13,33.13,0,0,0,9.6-6.75c.5-.5,1-1,1.44-1.55a30.12,30.12,0,0,0,6.51-11.32,42.37,42.37,0,0,0,1.79-12.55A30,30,0,0,0,144.33,36,45.39,45.39,0,0,0,137,25.28a31.77,31.77,0,0,0-12.08-7.64,49.06,49.06,0,0,0-16.6-2.73H43.77c-12.54,0-27.07,0-43.77.19v4.52C12.93,23,20.28,36.22,22,59.05Q23.06,72.88,23,86.84q0,13.72-1.06,27.49c-1.7,22.83-9,35.84-22,39.24v4.72c13.68.09,25.66.19,35.94.19h84.24a39.6,39.6,0,0,0,20.66-5.29,33.84,33.84,0,0,0,13-13.3c1.42-2.73.85-1.6,1.7-4.72A95.07,95.07,0,0,1,148.19,119ZM67.54,57.35c.1-9.33.19-15.28.29-17.73l-.19-20H70a50.13,50.13,0,0,1,16.7,2.46c4.53,1.69,7.92,4.05,10.09,7.07a28.19,28.19,0,0,1,4.63,9.43,46.52,46.52,0,0,1,1.51,11,38.84,38.84,0,0,1-1.51,11.31,27.94,27.94,0,0,1-5,9.63,21.4,21.4,0,0,1-5.83,4.91A28.6,28.6,0,0,1,86,77.54a46.06,46.06,0,0,1-16.22,2.55H67.45v-2C67.45,72.64,67.46,65.75,67.54,57.35ZM110,131.78a39.13,39.13,0,0,1-5,10.85,23.3,23.3,0,0,1-9.24,8,32.07,32.07,0,0,1-13.87,2.92H67.16V114.8c0-7.83.1-17.73.29-30H81.88a31.37,31.37,0,0,1,14,3,23.23,23.23,0,0,1,9.34,8.12,36.57,36.57,0,0,1,4.9,10.94,53.37,53.37,0,0,1,1.51,12.54A47.61,47.61,0,0,1,110,131.78Z"/><path class="cls-2" d="M148.79,147.22h0a54.62,54.62,0,0,1-12.92-9.86c-8.13-8.35-13-18.55-15.92-28-.78-2.51-1.41-5-1.93-7.33a95.47,95.47,0,0,1-2.37-22.37c.27.72.51,1.38.75,2,3.75,9.68,4.33,6.86,16.89,26.13a112.55,112.55,0,0,1,15,35,0,0,0,0,0,0,0l.37,3.31Z"/><path class="cls-3" d="M132.78,62.59a.55.55,0,0,0-.08.15,3.12,3.12,0,0,0-.18.42c-1.26-.4-2.16-1.85-3-2.8-1.05-1.21-2.09-2.44-3.11-3.65q-3.09-3.68-6.11-7.4c-.9-1.13-1.79-2.25-2.7-3.37-4.08-5.11-8.41-10.13-11.53-15.92-1.62-3-7.32-15.15-2.41-17.36a3.76,3.76,0,0,1,3.09.41c9.53,4.53,14.37,14.14,19.66,22.74,1,1.63,2,3.23,3.06,4.84a27.11,27.11,0,0,1,2.55,4.82c.56,1.35,1.12,2.66,1.65,3.93q.28.66.57,1.29c-3-4.64-7.19-9.79-7.19-9.79-5.22-4.67-7.72-1-7.54,2.28s2.82,7.1,2.82,7.1l7.44,9.85A27,27,0,0,0,132.78,62.59Z"/><path class="cls-3" d="M146.15,58.72l-.78.16a7.33,7.33,0,0,0,.29-1.86,62,62,0,0,0-.79-10c-.67-4.72-1.51-8.82-1.51-8.82-1.9-8.29-8.57-7.55-11-4.27s-.7,8.39-.7,8.39c.4.89,1.38,3.32,2.45,6,1.71,4.24,3.64,9,3.64,9a6.93,6.93,0,0,0,.49,1.33,6.51,6.51,0,0,0,.58,1,1,1,0,0,0-.18,0l-.27,0-.15,0-.39-.88c-1-2.23-2.2-5-3.56-8.19h0l-.57-1.3c-.53-1.26-1.09-2.57-1.65-3.93-.08-.21-.17-.43-.26-.64-.18-.47-.37-.94-.56-1.42a125.72,125.72,0,0,1-6.15-19,40.46,40.46,0,0,1-.83-5.66c-.48-5.83.22-12.37,3.74-16.58a5.87,5.87,0,0,1,3-2A5.94,5.94,0,0,1,136.39,2a13.49,13.49,0,0,1,2.32,3.16c2.46,4.51,3.07,10.51,4,15.16a145.46,145.46,0,0,1,2.49,17.22v0c.06.69.12,1.36.17,2,.37,5,.56,10,.55,14.92C146,55.39,146.23,57.29,146.15,58.72Z"/><path class="cls-3" d="M163.3,17.12c.11,19-8.65,37-11.71,42.73a.73.73,0,0,1-.05-.09,1.4,1.4,0,0,0-.21-.26,9.93,9.93,0,0,0,.77-1.3c2.83-5.71,5.2-16.8,5.2-16.8,2.6-10.19-2.71-12.72-6.79-9.34a12.76,12.76,0,0,0-4.21,8.73s-.29,10.72-.13,14.74a9.36,9.36,0,0,0,.68,3.09c-.24,0-.47.06-.71.11.09-1.44-.19-3.34-.18-4.16,0-5-.18-10-.55-14.91,0-.69-.11-1.36-.17-2,0,0,0,0,0,0a128.78,128.78,0,0,1,3.68-23.34C152,.79,163.19-5.88,163.3,17.12Z"/><path class="cls-4" d="M151.81,62.62c0,.2-.08.41-.1.61a70.94,70.94,0,0,1-2.16,8.88c-.45,1.46-1,2.9-1.5,4.32a24.73,24.73,0,0,1-1.73,4c-.47.8-1.25,1.86-2.32,1.66s-1.73-1.48-2.27-2.28c-2.51-3.64-4.74-7.47-7.5-10.94-1.29-1.62-2.5-3.57-1.72-5.7,0,0,0,0,0,0a3.12,3.12,0,0,1,.18-.42.55.55,0,0,1,.08-.15,3,3,0,0,1,.33-.49,2.59,2.59,0,0,1,.4-.41,6.82,6.82,0,0,1,3.07-1.56l.47-.13c.18,0,.36-.08.56-.12l.21,0,.4-.07h.15a1.28,1.28,0,0,1,.27,0l.18,0c1.18-.16,2.39-.24,3.58-.35l.09,0,1.79-.25.81-.12h0l.13,0,.12,0c.26-.05.51-.11.77-.15s.47-.08.71-.11a7.18,7.18,0,0,1,1-.1,3.58,3.58,0,0,1,.45,0h.42l.49.05.46.07a2.76,2.76,0,0,1,1.23.55.69.69,0,0,1,.21.16l.18.19a1.4,1.4,0,0,1,.21.26.73.73,0,0,0,.05.09A4,4,0,0,1,151.81,62.62Z"/><path class="cls-5" d="M138.22,59.77l-.4.07-.21,0c-.2,0-.38.07-.56.12l-.47.13a6.82,6.82,0,0,0-3.07,1.56,2.59,2.59,0,0,0-.4.41,3,3,0,0,0-.33.49,27,27,0,0,1-3-2.46l-7.44-9.85s-2.63-3.81-2.82-7.1,2.32-7,7.54-2.28c0,0,4.18,5.15,7.19,9.79v0c1.35,3.15,2.6,5.95,3.56,8.18C138,59.19,138.09,59.5,138.22,59.77Z"/><path class="cls-5" d="M145.66,57a7.33,7.33,0,0,1-.29,1.86l-.12,0-.13,0h0l-.81.12-1.79.25-.09,0c-1.19.11-2.4.19-3.58.35a6.89,6.89,0,0,1-.58-1,7,7,0,0,1-.49-1.34s-1.93-4.81-3.65-9c-1.07-2.63-2-5.06-2.44-6,0,0-1.73-5.12.7-8.39s9.1-4,11,4.27c0,0,.85,4.1,1.51,8.83A61.91,61.91,0,0,1,145.66,57Z"/><path class="cls-5" d="M157.3,41.4s-2.37,11.09-5.2,16.8a9.93,9.93,0,0,1-.77,1.3l-.18-.19a.69.69,0,0,0-.21-.16,2.76,2.76,0,0,0-1.23-.55,1.43,1.43,0,0,0-.46-.07,2.81,2.81,0,0,0-.49-.05h-.42a3.58,3.58,0,0,0-.45,0,7.18,7.18,0,0,0-1,.1,9.36,9.36,0,0,1-.68-3.09c-.16-4,.13-14.74.13-14.74a12.76,12.76,0,0,1,4.21-8.73C154.59,28.68,159.9,31.21,157.3,41.4Z"/><path class="cls-3" d="M178.27,68.64c-.44,1.86-.82,3.73-1.22,5.6a27.69,27.69,0,0,1-1.57,5.21l-1.59,4q-.25.68-.51,1.32c1.13-5.42,1.77-12,1.77-12-.43-7-4.77-6.16-7-3.68s-3,7-3,7L163.57,88.3c0,.62.06,1.2.11,1.73a20.78,20.78,0,0,0,.28,2.12.53.53,0,0,0-.15,0,2,2,0,0,0-.43.17,4.07,4.07,0,0,1-.33-2.13c0-.68.14-1.37.18-1.95.11-1.6.23-3.2.36-4.78q.38-4.79.86-9.56c.14-1.43.3-2.86.44-4.29.69-6.5,1.14-13.12,3-19.43,1-3.27,5.44-15.92,10.49-14a3.79,3.79,0,0,1,1.91,2.47C183.88,48.57,180.55,58.81,178.27,68.64Z"/><path class="cls-3" d="M209.09,51.61c.06,6.33-5.1,12.47-8.34,17.51-2.13,3.31-4.42,6.5-6.82,9.6q-1.73,2.23-3.52,4.39l0,0c-.44.53-.87,1-1.32,1.57-3.22,3.79-6.59,7.47-10.09,11-.58.59-1.72,2.13-2.79,3.09l-.66-.44A7.22,7.22,0,0,0,177,97.24a61.6,61.6,0,0,0,6.46-7.67c2.85-3.82,5.13-7.34,5.13-7.34a12.91,12.91,0,0,0,.9-1.71c2.73-6.17-2-9.63-5.72-9-4,.62-6.4,5.47-6.4,5.47-.35.92-1.36,3.33-2.45,6-.52,1.26-1.07,2.57-1.58,3.79l-2.19,5.21a8.13,8.13,0,0,0-.59,1.29,7.23,7.23,0,0,0-.29,1.13.65.65,0,0,0-.15-.1,1.6,1.6,0,0,0-.23-.16l-.12-.09c.11-.29.22-.6.34-.9.68-1.71,1.46-3.77,2.34-6.06.29-.73.58-1.49.89-2.27h0q.26-.65.51-1.32l1.59-4c.29-.67.57-1.35.86-2a127,127,0,0,1,9-17.83C189,53.78,195.68,46.5,203,45.81a5.87,5.87,0,0,1,3.6.66A5.94,5.94,0,0,1,209.09,51.61Z"/><path class="cls-3" d="M217.64,81.26c-.92.94-1.87,1.85-2.84,2.72-13,11.76-29.76,17.65-35.53,19.44,0,0,0-.07,0-.1a1,1,0,0,0,0-.33,8.43,8.43,0,0,0,1.46-.39c6-2.06,15.51-8.29,15.51-8.29,9-5.42,7-11,1.74-11.41a12.76,12.76,0,0,0-9.14,3.25s-7.74,7.42-10.45,10.39a9.23,9.23,0,0,0-1.69,2.67l-.58-.42c1.07-1,2.21-2.5,2.79-3.09,3.5-3.52,6.87-7.2,10.09-11,.45-.52.88-1,1.32-1.57l0,0c2.61-2.29,5.1-4.3,7.37-6a111,111,0,0,1,11.65-8,27,27,0,0,1,4.44-2.32C223.81,62.69,231.66,66.92,217.64,81.26Z"/><path class="cls-4" d="M177.48,105.55c-.17.12-.35.23-.51.36a69.78,69.78,0,0,1-7.78,4.8c-1.34.72-2.71,1.38-4.1,2a25.25,25.25,0,0,1-4.05,1.64c-.9.24-2.2.44-2.82-.45s-.19-2.27,0-3.22c.78-4.35,1.89-8.64,2.36-13,.22-2.05.73-4.29,2.79-5.27h0a3.83,3.83,0,0,1,.43-.17l.16,0a3.42,3.42,0,0,1,.59-.12,2.69,2.69,0,0,1,.57,0,6.79,6.79,0,0,1,3.27,1l.43.24.48.31.18.11a4,4,0,0,1,.33.24l.12.09.23.16a.65.65,0,0,1,.15.1c.95.71,1.87,1.51,2.79,2.26l.08.06,1.45,1.07c.2.16.43.31.66.49l0,0,.11.08a.21.21,0,0,1,.1.06l.66.44c.2.13.39.27.58.42a7.2,7.2,0,0,1,.81.65c.13.1.24.2.34.29s.22.2.31.3.21.25.31.38.19.24.28.37a2.77,2.77,0,0,1,.49,1.26.74.74,0,0,1,0,.25V103a1.29,1.29,0,0,1,0,.33s0,.07,0,.1A4.07,4.07,0,0,1,177.48,105.55Z"/><path class="cls-5" d="M169.81,94a4,4,0,0,0-.33-.24l-.18-.11-.48-.31-.43-.24a6.79,6.79,0,0,0-3.27-1,2.69,2.69,0,0,0-.57,0,3.42,3.42,0,0,0-.59.12,27.24,27.24,0,0,1-.39-3.85l1.63-12.23s.81-4.56,3-7,6.53-3.32,7,3.68c0,0-.64,6.59-1.77,12v0c-1.25,3.19-2.33,6.06-3.22,8.32C170,93.38,169.91,93.68,169.81,94Z"/><path class="cls-5" d="M177,97.24a7.67,7.67,0,0,1-1.52,1.12.21.21,0,0,0-.1-.06l-.11-.08,0,0c-.23-.18-.46-.33-.66-.49l-1.45-1.07-.08-.06c-.92-.75-1.84-1.55-2.79-2.26a6,6,0,0,1,.29-1.12,7.09,7.09,0,0,1,.59-1.3s2-4.78,3.77-9c1.09-2.62,2.1-5,2.45-6,0,0,2.37-4.85,6.4-5.47s9.29,3.54,4.81,10.77c0,0-2.28,3.51-5.12,7.33A61.6,61.6,0,0,1,177,97.24Z"/><path class="cls-5" d="M196.29,94.31s-9.48,6.23-15.5,8.29a8.67,8.67,0,0,1-1.46.39v-.27a.74.74,0,0,0,0-.25,2.77,2.77,0,0,0-.49-1.26,1.72,1.72,0,0,0-.28-.37,2.85,2.85,0,0,0-.31-.38c-.09-.1-.2-.2-.31-.3s-.21-.19-.34-.29a7.2,7.2,0,0,0-.81-.65,8.94,8.94,0,0,1,1.69-2.68c2.71-3,10.45-10.39,10.45-10.39A12.75,12.75,0,0,1,198,82.9C203.31,83.36,205.31,88.89,196.29,94.31Z"/><path class="cls-6" d="M144.48,79.2a703.59,703.59,0,0,0,5.3,76.42c.19,1.63.41,3.27.64,4.92"/><path class="cls-6" d="M159.83,112.35s-10.79,18.77-9.41,48.19"/><path class="cls-7" d="M148.66,146.05v0C133,130.15,120.56,93.26,120.56,93.26"/></g></g></svg>