<svg xmlns="http://www.w3.org/2000/svg" viewBox="0 0 902.12 365.96"><defs><style>.cls-1{fill:#e6c47b;}.cls-2{fill:#e0b75e;}</style></defs><g id="Layer_2" data-name="Layer 2"><g id="Layer_1-2" data-name="Layer 1"><path class="cls-1" d="M902.12,48.07V242.54c-100.36,3.71-203.66,41.82-304.7,29.27-67.26-8.35-129.44-38.68-192.08-64.59s-129.95-48.07-197.1-38.86C155.47,175.59,106.8,202,65.48,235.55,41.92,254.7,20.48,276.18,0,298.62V129.37q3.56-1.83,7.19-3.54C84.24,89.54,174.4,96.05,258,112.53s166.31,42.22,251.48,42.06c84.32-.16,166.69-25.86,244.11-59.25C794.08,77.86,834.3,58,877.82,50.62A192.21,192.21,0,0,1,902.12,48.07Z"/><path class="cls-2" d="M902.12,0V48.07a192.21,192.21,0,0,0-24.3,2.55C834.3,58,794.08,77.86,753.54,95.34c-77.42,33.39-159.79,59.09-244.11,59.25C424.26,154.75,341.51,129,258,112.53s-173.71-23-250.76,13.3Q3.56,127.54,0,129.37V0Z"/><path class="cls-2" d="M902.12,242.54V366H0V298.62c20.48-22.44,41.92-43.92,65.48-63.07,41.32-33.59,90-60,142.76-67.19,67.15-9.21,134.47,13,197.1,38.86s124.82,56.24,192.08,64.59C698.46,284.36,801.76,246.25,902.12,242.54Z"/></g></g></svg>