<?xml version="1.0" encoding="utf-8"?>
<!-- Generator: Adobe Illustrator 25.2.1, SVG Export Plug-In . SVG Version: 6.00 Build 0)  -->
<svg version="1.1" id="Layer_1" xmlns="http://www.w3.org/2000/svg" xmlns:xlink="http://www.w3.org/1999/xlink" x="0px" y="0px"
	 viewBox="0 0 1200 1200" style="enable-background:new 0 0 1200 1200;" xml:space="preserve">
<style type="text/css">
	.st0{fill:#E8E9EC;}
	.st1{fill:#DCDEE2;}
	.st2{fill:#BEC1C9;}
	.st3{fill:none;stroke:#DCDEE2;stroke-width:7;stroke-miterlimit:10;}
</style>
<path class="st0" d="M1200,3v1194c0,1.7-1.3,3-3,3H3c-1.7,0-3-1.3-3-3V3c0-1.7,1.3-3,3-3h1194C1198.7,0,1200,1.3,1200,3z"/>
<g>
	<g>
		<path class="st1" d="M893.8,1109.8C893.8,1109.8,893.8,1109.8,893.8,1109.8c-20.9,1.3-41.4,1.4-61.3,0.3c-33.3-1.8-65.4-6.6-96-14
			c-110.1-26.2-203.2-84.4-276.4-147.1c-19.5-16.5-37.4-33.4-54-50.1C318,810.6,270.4,727.9,270.4,727.9c6,4.5,11.4,8.7,16.5,12.4
			c81.1,59.9,71.2,33.7,274.4,126.4c150.5,68.8,255.1,159.6,304.8,208.3c0.1,0.2,0.2,0.3,0.4,0.4v0c0,0,0,0,0.1,0c0,0,0,0,0.1,0
			c0.1,0.2,0.2,0.3,0.4,0.5c6.4,8.2,13,16.4,19.6,24.7c0,0,0,0,0,0C888.9,1103.8,891.3,1106.8,893.8,1109.8L893.8,1109.8z"/>
		<path class="st1" d="M812.4,863.1c-0.3-14-4-28.2-6.7-42c-3-14.5-6.3-28.9-10.2-43.2c-7.7-28.6-17.1-56.7-28.5-84.1
			c-0.8-1.8-1.6-3.7-2.3-5.6c-3.4-8.1-7.8-17.4-16.2-21.5c-4.7-62.8-26.6-256.1-126.2-411.3c-120.6-188-178.1-74.8-133,51.1
			c0,0,27.2,91.2,91.2,210.4c0,0,0.1,0.1,0.1,0.1c0,0.1,0.1,0.3,0.1,0.4c1,1.3,2,2.7,3,4c-1-1.3-2-2.6-3-4c-0.1-0.1-0.1-0.3-0.2-0.4
			c0-0.1-0.1-0.1-0.1-0.2c-34.2-44.6-70.5-87.8-109.9-128.1c-32.2-33-68.4-79.1-112.1-103.3c-11.3-6.3-23.1-11.1-35.5-13.8
			c-18.9-4.1-40.6-1.7-54,12.3c-8.4,8.5-12.6,20.6-14.2,32.6c-7,52.8,21.3,110.1,55.6,155.4c11.7,15.7,24.2,30,36.2,42.1
			c43.6,43.9,97.5,86.5,149.2,123.7c4,2.9,8,5.7,11.8,8.6c-12.7-8.7-26.2-15.5-40.3-22.2c-16.9-7.8-33.6-15.6-50.3-23.8
			c-88.1-43-177.8-96.8-279.5-84.3c-10.4,1.3-21.8,3.9-27.5,12.7c-28.7,43.7,81.2,113.8,110.1,129.8
			c55.7,31.3,117.4,49.9,177.4,70.6c13.2,4.5,26.4,9.1,39.6,13.6c29.4,9.9,59,19.5,88.6,28.9c14.7,4.6,29.6,9.3,44.5,13.8
			c11.6,3.5,26.5,10.8,38.9,7.5c0.1,0.1,0,0.2,0.1,0.3c4.8,21.6,24.8,31.2,43.8,37.8c40.7,14,78.9,33.9,118.4,50.7
			c8.6,3.7,21.1,10.7,30.5,6.8c1.7-0.7,3-1.6,4.2-2.7c0.5-0.5,1-1,1.5-1.6c0,0,0,0,0,0C812.1,878.7,812.6,869.8,812.4,863.1z
			 M455.9,554.2c0.4-5.2,1.6-10.5,3.6-15.6C457.5,543.7,456.3,548.9,455.9,554.2c-0.3,5.3,0.1,10.6,1,15.6
			C455.9,564.8,455.5,559.5,455.9,554.2z M458.3,575.3c0.6,2.1,1.3,4.3,2.1,6.3C459.6,579.6,458.9,577.5,458.3,575.3z M493.8,626.6
			c0,0-1-0.8-2.7-2.4C492.8,625.8,493.8,626.6,493.8,626.6c0.4,0.2,0.8,0.5,1.2,0.8C494.5,627.1,494.2,626.9,493.8,626.6z
			 M500.3,631.1c10.1,7,26.8,18.9,44.6,31.7c0.5,0.4,1.1,0.8,1.6,1.2c-0.6-0.4-1.1-0.8-1.7-1.2C527,650.1,510.4,638.2,500.3,631.1z
			 M547.3,674c-10.9-7.6-22.3-15.4-33.9-23.6c0,0,0,0,0,0c-0.4-0.3-0.9-0.7-1.3-1c0.5,0.3,0.9,0.7,1.4,1
			C525,658.5,536.4,666.4,547.3,674c3.9,2.6,7.7,5.2,11.4,7.7C554.9,679.2,551.1,676.6,547.3,674z M558.8,681.8
			C558.8,681.7,558.7,681.7,558.8,681.8L558.8,681.8C558.7,681.7,558.7,681.7,558.8,681.8c0.9,0.6,1.7,1.2,2.6,1.8
			C560.5,683,559.6,682.4,558.8,681.8z M568.3,532c-6.6-6.5-13.1-11.8-19.4-16C555.2,520.2,561.7,525.5,568.3,532
			c0,0,2.3,2.3,6.1,6.4C570.5,534.3,568.3,532,568.3,532z M586.7,525.3c2,2.6,4,5.2,6,7.9c4.1,5.4,8.1,10.9,12.1,16.4
			c-4-5.5-8-10.9-12.1-16.4C590.7,530.6,588.7,527.9,586.7,525.3z M595.1,698.8c4.4,3.1,8.4,6,11.9,8.6
			C603.5,704.8,599.4,701.9,595.1,698.8z M621.8,718C621.8,718,621.8,718,621.8,718c2.3,2.1,4.5,3.9,6.8,5.6
			C626.3,722,624.1,720.1,621.8,718C621.8,718,621.8,718,621.8,718z M630.6,730.4c-2.4-1.7-4.9-3.4-7.5-5.1
			C625.6,727,628.2,728.7,630.6,730.4c0.7,0.4,1.3,0.9,2,1.3C631.9,731.3,631.2,730.9,630.6,730.4z M628.6,723.7
			c0.9,0.7,1.8,1.3,2.7,1.9C630.4,725,629.5,724.3,628.6,723.7z M632.8,726.4c-0.2-0.1-0.5-0.3-0.7-0.5
			C632.3,726.1,632.5,726.3,632.8,726.4c0.4,0.2,0.8,0.5,1.2,0.8C633.6,727,633.2,726.7,632.8,726.4z M639.5,734.7l-1.1,0.9
			c0,0,0,0,0,0l0,0c-0.3-0.2-0.6-0.4-0.9-0.6c0.3,0.2,0.6,0.4,1,0.6L639.5,734.7c0.2-0.2,0.3-0.3,0.5-0.5
			C639.8,734.4,639.6,734.5,639.5,734.7z M641.5,732.9c-0.2,0.1-0.3,0.3-0.5,0.4C641.1,733.2,641.3,733,641.5,732.9
			c0.1-0.2,0.3-0.4,0.6-0.6C641.8,732.5,641.6,732.7,641.5,732.9z M639,730c1.2,0.6,2.5,1.1,3.7,1.7c0,0,0,0,0,0c0,0,0,0,0,0
			c-0.2,0.2-0.3,0.3-0.5,0.4c0.2-0.1,0.3-0.3,0.5-0.4C641.5,731.1,640.3,730.6,639,730z M626.5,596.5c-3.8-4.4-7.5-8.7-11.1-12.9
			C619.1,587.8,622.8,592.1,626.5,596.5c10.2,11.8,20.5,24.3,29.9,36.6C647,620.8,636.7,608.3,626.5,596.5z M692.4,691.1
			C692.4,691.1,692.3,691.1,692.4,691.1C692.3,691.1,692.3,691.1,692.4,691.1c-0.6-2.3-1.5-4.7-2.5-7.1
			C690.9,686.4,691.7,688.8,692.4,691.1c0.8-0.7,1.5-1.5,2.3-2.2c1.1-1,2.2-2.1,3.2-3.1c-6.8-12.2-18.9-26.3-23.2-33.1
			c-8-12.8-16.3-25.4-24.6-38c8.4,12.6,16.6,25.2,24.7,38c4.3,6.7,16.4,20.9,23.1,33c0,0,0,0,0,0c0,0,0,0,0,0
			c-1.1,1-2.2,2.1-3.3,3.1C693.9,689.7,693.1,690.4,692.4,691.1z M722.3,668c1.3-0.8,2.7-1.4,4.2-1.8
			C725.1,666.7,723.8,667.3,722.3,668z"/>
		<path class="st2" d="M531.4,747.4c0.5,0.3,0.9,0.7,1.4,1c0,0,0,0,0,0C532.3,748.1,531.8,747.7,531.4,747.4z"/>
		<path class="st2" d="M532.8,748.4C532.7,748.4,532.7,748.4,532.8,748.4c-0.5-0.4-0.9-0.7-1.4-1
			C531.8,747.7,532.3,748.1,532.8,748.4z"/>
		<path class="st2" d="M548,604.1c-1.8-0.6-3.5-1.1-5.2-1.5C544.5,603,546.2,603.5,548,604.1z"/>
		<path class="st2" d="M580.8,781.6c-0.9-0.6-1.7-1.2-2.6-1.8c0,0,0-0.1,0-0.1h0c0,0,0,0,0.1,0.1C579.1,780.4,579.9,781,580.8,781.6
			z"/>
		<path class="st2" d="M603.1,619.4c-1-1.3-2-2.6-3-4c-0.1-0.1-0.1-0.3-0.1-0.4c0-0.1-0.1-0.1-0.1-0.2c0,0,0.1,0.1,0.1,0.2
			c0.1,0.1,0.1,0.3,0.1,0.4C601.1,616.7,602.1,618.1,603.1,619.4z"/>
		<path class="st2" d="M624.1,647.7c-4-5.5-8-10.9-12.1-16.4c-2-2.7-4-5.3-6-7.9c2,2.6,4,5.2,6,7.9
			C616.1,636.7,620.1,642.2,624.1,647.7z"/>
		<path class="st2" d="M652,829.8c-0.7-0.4-1.3-0.9-2-1.3c-2.4-1.7-4.9-3.4-7.5-5.2c2.6,1.8,5.1,3.5,7.5,5.1
			C650.6,828.9,651.3,829.3,652,829.8z"/>
		<path class="st2" d="M653.4,825.3c-0.4-0.2-0.8-0.5-1.2-0.8c-0.2-0.1-0.5-0.3-0.7-0.5c0.2,0.1,0.5,0.3,0.7,0.4
			C652.6,824.7,653,825,653.4,825.3z"/>
		<path class="st2" d="M655.8,826.6c-0.8-0.4-1.6-0.9-2.4-1.4C654.2,825.7,655,826.2,655.8,826.6z"/>
		<path class="st2" d="M657.8,833.6L657.8,833.6c-0.3-0.2-0.6-0.4-1-0.6C657.1,833.2,657.5,833.4,657.8,833.6z"/>
		<path class="st2" d="M662.2,829.7c-0.2,0.1-0.4,0.3-0.5,0.4C661.8,830,662,829.9,662.2,829.7C662.1,829.7,662.1,829.7,662.2,829.7
			z"/>
		<path class="st2" d="M700.4,765.8c-0.9-1.5-1.9-3-2.9-4.5C698.5,762.8,699.5,764.3,700.4,765.8z"/>
		<path class="st2" d="M700.5,765.8c1.4,2.2,2.7,4.4,4,6.6C703.2,770.2,701.9,768,700.5,765.8z"/>
		<path class="st2" d="M707.3,777.8c-0.5-1-1-2-1.6-3C706.3,775.8,706.9,776.8,707.3,777.8z"/>
		<path class="st2" d="M714.1,787c-0.8,0.7-1.5,1.5-2.3,2.2c0,0,0,0,0,0C712.5,788.4,713.3,787.7,714.1,787z"/>
		<path class="st2" d="M603.1,619.4c-1-1.3-2-2.6-3-4c-0.1-0.1-0.1-0.3-0.1-0.4c0-0.1-0.1-0.1-0.1-0.2c0,0,0.1,0.1,0.1,0.2
			c0.1,0.1,0.1,0.3,0.1,0.4C601.1,616.7,602.1,618.1,603.1,619.4z"/>
		<path class="st2" d="M662.2,829.7c-0.2,0.1-0.4,0.3-0.5,0.4C661.8,830,662,829.9,662.2,829.7C662.1,829.7,662.1,829.7,662.2,829.7
			z"/>
		<path class="st2" d="M714.1,787c-0.8,0.7-1.5,1.5-2.3,2.2c0,0,0,0,0,0C712.5,788.4,713.3,787.7,714.1,787z"/>
		<path class="st2" d="M578.2,779.8c0.8,0.6,1.7,1.2,2.5,1.7C579.9,781,579,780.4,578.2,779.8c-0.1-0.1-0.1-0.1-0.1-0.1h0
			C578.1,779.7,578.1,779.7,578.2,779.8z"/>
		<path class="st2" d="M650,828.5c0.7,0.5,1.3,0.9,2,1.3C651.3,829.4,650.6,828.9,650,828.5c-2.4-1.7-4.9-3.4-7.5-5.1
			C645,825.1,647.6,826.8,650,828.5z"/>
		<path class="st2" d="M657.8,833.6L657.8,833.6c-0.3-0.2-0.6-0.4-1-0.6C657.1,833.2,657.5,833.4,657.8,833.6z"/>
		<path class="st2" d="M548,604.1c-1.8-0.6-3.5-1.1-5.2-1.5C544.5,603,546.2,603.5,548,604.1z"/>
		<path class="st2" d="M653.4,825.3c-0.4-0.2-0.8-0.5-1.2-0.8c-0.2-0.1-0.5-0.3-0.7-0.5c0.2,0.1,0.5,0.3,0.7,0.4
			C652.6,824.7,653,825,653.4,825.3z"/>
		<path class="st2" d="M655.8,826.6c-0.8-0.4-1.6-0.9-2.4-1.4C654.2,825.7,655,826.2,655.8,826.6z"/>
		<path class="st2" d="M700.4,765.8c-0.9-1.5-1.9-3-2.9-4.5C698.5,762.8,699.5,764.3,700.4,765.8z"/>
		<path class="st2" d="M1034.2,969.2c-0.2,0.3-0.4,0.6-0.6,1c0,0,0,0,0,0C1033.8,969.8,1034,969.5,1034.2,969.2z"/>
		<path class="st2" d="M1036.7,965.9c-0.2,0.2-0.3,0.4-0.4,0.6c-0.4,0.5-0.9,1-1.2,1.5c0.4-0.5,0.8-1,1.2-1.5
			C1036.4,966.3,1036.5,966.1,1036.7,965.9z"/>
		<path class="st2" d="M1037.3,965.3c-0.2,0.2-0.4,0.4-0.6,0.6C1036.9,965.7,1037.1,965.5,1037.3,965.3L1037.3,965.3z"/>
		<path class="st2" d="M1075.9,855.5c-18.9-50.3-48-107.8-48-107.8c-9-12.5-17.6-20.6-25.5-25.4c8,4.8,16.5,12.9,25.6,25.4
			c0,0,28.9,57.3,47.9,107.6C1075.9,855.3,1075.9,855.4,1075.9,855.5z"/>
		<path class="st2" d="M1076,855.5C1076,855.5,1076,855.5,1076,855.5C1075.9,855.5,1075.9,855.5,1076,855.5
			c-0.1-0.1-0.1-0.1-0.1-0.2C1075.9,855.3,1075.9,855.4,1076,855.5z"/>
		<path class="st2" d="M1082.2,887.4c-0.6-2.8-1.2-5.7-1.7-8.6c-0.1-0.8-0.3-1.5-0.4-2.3C1080.8,880.2,1081.5,883.9,1082.2,887.4z"
			/>
		<path class="st2" d="M1094.3,947.5c-0.5-2.3-1-4.6-1.4-6.9c-0.3-1.5-0.6-3-0.8-4.5c0.3,1.5,0.6,3,0.8,4.4
			C1093.3,942.9,1093.8,945.3,1094.3,947.5z"/>
		<path class="st2" d="M1096.5,936.1c-0.5-2.6-0.9-5.4-1.1-8.2C1095.6,930.7,1096,933.4,1096.5,936.1z"/>
		<path class="st2" d="M1096.5,949.9c-0.1,0-0.2,0-0.3,0l-1.4-0.1c0,0,0,0,0,0c-0.2-0.7-0.3-1.5-0.5-2.2c0.2,0.8,0.3,1.5,0.5,2.2
			l1.4,0.1C1096.3,949.9,1096.4,949.9,1096.5,949.9z"/>
		<path class="st2" d="M1099.9,948.2c-0.4-1.1-0.8-2.2-1.2-3.3C1099.1,946,1099.5,947.1,1099.9,948.2z"/>
		<path class="st2" d="M1100.6,950.1c-0.6-0.1-1.2-0.1-1.8,0c-0.5,0-1.1-0.1-1.5-0.1c0.5,0,1,0.1,1.5,0.1
			C1099.4,949.9,1100,950,1100.6,950.1C1100.6,950,1100.6,950.1,1100.6,950.1z"/>
		<path class="st2" d="M1168.9,946c-1.3,3.7-2.8,7-4.5,10h-0.1C1166.1,953.1,1167.6,949.7,1168.9,946z"/>
		<path class="st2" d="M1177.8,708.9c-0.5-0.9-1-1.8-1.5-2.6C1176.8,707.1,1177.3,708,1177.8,708.9z"/>
		<path class="st2" d="M1186.8,738.7c-0.1-0.6-0.2-1.2-0.3-1.8c-0.5-3.2-1.1-6.3-1.8-9.3C1185.5,731.1,1186.2,734.8,1186.8,738.7z"
			/>
		<path class="st1" d="M1200,886.5V635.4c-13.1,19.9-33.1,51.8-55.7,93.5c-13.3,24.3-27.4,52-41.5,82.6c4.9-17.5,9.5-35.1,13.8-52.9
			c9-37,16.7-74.3,22.5-112.1c8.8-57.5,30.3-132.4,4.7-188.3c-8.1-17.6-23-33.5-42.2-35.8c-11.9-1.5-24,2.4-34.5,8.4
			C1004.7,466,974.2,557,964.5,623c-8.7,61.2-10.3,129.9-9,193.6c0.1,6.1,0.3,12.2,0.4,18.2c-0.4-16.7-3.3-32.6-6.6-49.1
			c-3.8-18.2-7.9-36.2-11.3-54.5C919.2,635,908.3,531,837.1,457.3c-7.4-7.6-16.3-15.1-26.7-14.4c-52.2,3.4-42,133.4-37.5,166.1
			c8.5,63.3,30.7,123.8,50.3,184.2c4.4,13.2,8.6,26.5,13.1,39.8c9.7,29.5,19.8,58.9,30.2,88.2c5.1,14.5,10.4,29.2,15.7,43.8
			c1.9,5.3,3.8,11.8,6.1,18c2.7,6.9,6,13.4,11.3,17.6c0.2-0.3,0.5-0.6,0.7-0.9c-0.2,0.3-0.5,0.6-0.7,0.9c0,0,0,0,0,0s0,0,0,0
			c0,0.1-0.2,0.1-0.2,0.2c-14.4,16.8-10,38.6-3.9,57.7c13.3,41,20.4,83.4,30.7,125.1c1.1,4.7,2.2,10.9,4.2,16.4h41.2
			c8.5-7.8,16-17.1,23.7-25.6c9.8-11.1,19.3-22.5,28.4-34.2c18.2-23.4,35-47.8,50-73.3c0.9-1.8,2-3.5,3.1-5.2
			c4.4-7.7,9.2-16.7,7.4-25.9c0,0,0-0.1,0-0.1c0,0,0,0,0,0.1c23-20.2,68-62,115.6-119.5V886.5c-0.2,0.4-0.4,0.7-0.6,1
			c0,0-24.9,38.9-54.8,77.7c29.8-38.9,54.7-77.7,54.7-77.7C1199.5,887.2,1199.8,886.9,1200,886.5z M967.1,962.7
			c0,1.8,0.1,2.8,0.1,2.8c-0.1,0.6-0.1,1.2-0.2,1.8c0.1-0.6,0.1-1.2,0.2-1.8C967.1,965.5,967.1,964.5,967.1,962.7z M967.3,982.2
			c-0.1-0.9-0.2-1.9-0.3-2.9c-0.1-1-0.1-2.1-0.2-3.1c0,1.1,0.1,2.1,0.2,3.1C967.1,980.3,967.2,981.3,967.3,982.2z M966.9,967.7
			c-0.2,2.3-0.2,4.6-0.2,6.8C966.7,972.3,966.8,970,966.9,967.7z M902.9,997.4c-0.4,0.3-0.8,0.7-1.1,1
			C902.1,998,902.5,997.7,902.9,997.4c0.1-0.2,0.3-0.3,0.5-0.5C903.2,997,903,997.2,902.9,997.4z M903.3,996.8
			c0.2-0.2,0.4-0.4,0.6-0.5l0,0C903.8,996.5,903.5,996.7,903.3,996.8z M906.8,752.6c0.7,0.6,1.3,1.2,2,1.9
			C908.1,753.8,907.4,753.2,906.8,752.6z M958.2,893.4C958.2,893.4,958.2,893.3,958.2,893.4c0-0.1,0-0.1,0-0.1
			c-11.4-52.5-31.9-113.6-31.9-113.6c-4.9-9.3-9.8-16.6-14.7-22.2c5,5.6,9.9,12.9,14.8,22.2c0,0,20.3,60.9,31.8,113.4
			c0,0.1,0,0.2,0,0.2C958.2,893.3,958.2,893.3,958.2,893.4C958.2,893.3,958.2,893.3,958.2,893.4c0.3,6.2,0.6,12.3,0.9,18.2
			C958.8,905.7,958.5,899.6,958.2,893.4z M959.3,917c0-0.8-0.1-1.5-0.1-2.3c0.1,2.8,0.3,5.6,0.4,8.4
			C959.5,921.1,959.4,919,959.3,917z M960.2,933.1c0.5,9.3,1,18.2,1.4,26.6C961.1,951.3,960.7,942.4,960.2,933.1z M962.5,980
			c-0.1-1.5-0.1-3-0.2-4.5C962.4,977,962.5,978.5,962.5,980c0.1,2.3,0.3,4.7,0.4,7C962.8,984.7,962.6,982.3,962.5,980z M964.5,989.7
			L964.5,989.7l-1.4-0.3c0,0,0,0,0,0c0-0.7-0.1-1.5-0.1-2.2c0,0.8,0.1,1.5,0.2,2.3L964.5,989.7c0.1,0,0.2,0,0.3,0
			C964.7,989.7,964.6,989.7,964.5,989.7z M965,870.8c-0.7-27.6-1.3-53-1.9-62.6c0,0,0.3-9.1,3.1-21.4c-2.8,12.2-3.1,21.4-3.1,21.4
			C963.7,817.7,964.2,843.2,965,870.8c0.1,3.4,0.2,6.9,0.3,10.4C965.1,877.7,965,874.2,965,870.8z M968.9,990.5
			c-0.6-0.2-1.2-0.3-1.7-0.3c-0.5-0.1-1-0.2-1.5-0.4c0.5,0.1,1,0.2,1.5,0.3C967.6,990.1,968.3,990.3,968.9,990.5
			c-0.2-0.7-0.3-1.3-0.4-1.9c-0.3-1.1-0.5-2.3-0.7-3.5c0.2,1.2,0.5,2.3,0.7,3.5C968.6,989.2,968.7,989.8,968.9,990.5L968.9,990.5
			C968.9,990.4,968.9,990.5,968.9,990.5z M1084.8,793.8c0-0.6,0-1.2,0-1.8c0-3.3-0.2-6.4-0.4-9.4
			C1084.7,786.2,1084.8,789.9,1084.8,793.8z M1080.2,763c-0.3-1-0.7-1.9-1.1-2.8C1079.5,761.1,1079.9,762.1,1080.2,763z
			 M1015.3,727.2c-1.2,0.3-2.4,0.6-3.6,1C1012.8,727.8,1014,727.5,1015.3,727.2z M1031.1,1005.6
			C1031.1,1005.6,1031.1,1005.6,1031.1,1005.6L1031.1,1005.6c2.1-2.7,4-5.8,5.9-9.3C1035.2,999.8,1033.2,1002.9,1031.1,1005.6
			c2.5,0.4,5,0.8,7.4,1.2C1036,1006.4,1033.5,1006.1,1031.1,1005.6z M1043,1007.8c-1.4-0.3-2.9-0.6-4.3-0.9
			C1040.1,1007.1,1041.6,1007.5,1043,1007.8c0.8,0.2,1.6,0.3,2.4,0.5c0-0.9,0-1.9,0-2.9c0,1,0,2,0.1,2.9
			C1044.6,1008.2,1043.8,1008,1043,1007.8z M1046.1,994.7c0.2-1.4,0.4-2.8,0.6-4.2C1046.5,991.9,1046.3,993.3,1046.1,994.7z
			 M1067.6,1015.7c-1.2-0.6-2.5-1.3-3.7-1.8C1065.1,1014.4,1066.4,1014.9,1067.6,1015.7c1.4,0.6,2.7,1.3,3.9,2.2
			C1070.3,1017.1,1069,1016.4,1067.6,1015.7z M1075.7,854.7C1075.7,854.8,1075.7,854.8,1075.7,854.7L1075.7,854.7
			c-2.4,12.5-5.3,26.7-8.6,41.4c-7.3,33.2-16.7,69.1-27,93.6c-0.5,1.2-1,2.3-1.5,3.4c0.5-1.1,1-2.2,1.5-3.4
			c10.2-24.5,19.6-60.3,27-93.5C1070.4,881.4,1073.3,867.2,1075.7,854.7L1075.7,854.7C1075.7,854.7,1075.7,854.7,1075.7,854.7
			c4.9-25.7,7.8-43.9,7.8-43.9c0.1-0.7,0.2-1.5,0.3-2.2c-0.1,0.7-0.2,1.4-0.3,2.1C1083.5,810.8,1080.7,829,1075.7,854.7z
			 M1084.1,1034.8c0-0.2-0.1-0.4-0.1-0.7c-0.2-0.6-0.3-1.2-0.5-1.8c0.2,0.5,0.4,1.1,0.5,1.8
			C1084.1,1034.3,1084.1,1034.5,1084.1,1034.8c0.1,0.2,0.1,0.6,0.2,0.8C1084.2,1035.3,1084.2,1035,1084.1,1034.8z M1083.2,1031.7
			c0.1,0.2,0.2,0.4,0.3,0.6C1083.4,1032.1,1083.3,1031.9,1083.2,1031.7C1083.2,1031.7,1083.2,1031.7,1083.2,1031.7
			C1083.2,1031.6,1083.2,1031.6,1083.2,1031.7c3.1-2.1,6.4-4.7,9.9-7.8C1089.6,1027,1086.4,1029.6,1083.2,1031.7z M1094.6,1022.5
			c-0.1,0.1-0.3,0.3-0.4,0.4C1094.3,1022.7,1094.5,1022.6,1094.6,1022.5c1.3-1.2,2.7-2.5,4-3.8
			C1097.3,1020,1095.9,1021.2,1094.6,1022.5z M1105.2,1011.9c1.4-1.5,2.8-3,4.2-4.5C1108.1,1009,1106.7,1010.5,1105.2,1011.9z
			 M1169.7,779.5c-48.7,16.7-68.2,65-68.2,65s-2.1,5.2-5.5,13.6c3.4-8.5,5.5-13.7,5.5-13.7S1121,796.2,1169.7,779.5
			c5.5-1.9,10.9-3.1,16.1-3.5C1180.6,776.4,1175.2,777.6,1169.7,779.5z"/>
		<path class="st2" d="M1172.1,956.2c1.5,0,2.9,0.1,4.4,0.3C1175,956.4,1173.6,956.3,1172.1,956.2z"/>
		<path class="st2" d="M1034.2,969.2c-0.2,0.3-0.4,0.6-0.6,1c0,0,0,0,0,0C1033.8,969.8,1034,969.5,1034.2,969.2z"/>
		<path class="st2" d="M1036.7,965.9c-0.2,0.2-0.3,0.4-0.4,0.6c-0.4,0.5-0.9,1-1.2,1.5c0.4-0.5,0.8-1,1.2-1.5
			C1036.4,966.3,1036.5,966.1,1036.7,965.9z"/>
		<path class="st2" d="M1037.3,965.3c-0.2,0.2-0.4,0.4-0.6,0.6C1036.9,965.7,1037.1,965.5,1037.3,965.3L1037.3,965.3z"/>
		<path class="st2" d="M1096.5,949.9c-0.1,0-0.2,0-0.3,0l-1.4-0.1c0,0,0,0,0,0c0,0,0,0,0,0l1.4,0.1
			C1096.3,949.9,1096.4,949.9,1096.5,949.9z"/>
		<path class="st2" d="M1100.6,950.1c-0.6-0.1-1.2-0.1-1.8,0c-0.5,0-1.1-0.1-1.5-0.1c0.5,0,1,0.1,1.5,0.1
			C1099.4,949.9,1100,950,1100.6,950.1C1100.6,950,1100.6,950.1,1100.6,950.1z"/>
		<path class="st2" d="M1176.5,956.5c-1.4-0.1-2.9-0.2-4.4-0.3C1173.6,956.2,1175,956.3,1176.5,956.5z"/>
		<path class="st2" d="M1082.2,887.4c-0.6-2.8-1.2-5.7-1.7-8.6c-0.1-0.8-0.3-1.5-0.4-2.3C1080.8,880.2,1081.5,883.9,1082.2,887.4z"
			/>
		<path class="st2" d="M1094.3,947.5c-0.5-2.3-1-4.6-1.4-6.9c-0.3-1.5-0.6-3-0.8-4.5c0.3,1.5,0.6,3,0.8,4.4
			C1093.3,942.9,1093.8,945.3,1094.3,947.5z"/>
		<path class="st2" d="M1094.7,949.8C1094.7,949.8,1094.7,949.8,1094.7,949.8c-0.2-0.7-0.3-1.5-0.5-2.2
			C1094.4,948.3,1094.6,949.1,1094.7,949.8z"/>
		<path class="st2" d="M1096.5,936.1c-0.5-2.6-0.9-5.4-1.1-8.2C1095.6,930.7,1096,933.4,1096.5,936.1z"/>
		<path class="st2" d="M1099.9,948.2c-0.4-1.1-0.8-2.2-1.2-3.3C1099.1,946,1099.5,947.1,1099.9,948.2z"/>
		<path class="st2" d="M1168.9,946c-1.3,3.7-2.8,7-4.5,10h-0.1C1166.1,953.1,1167.6,949.7,1168.9,946z"/>
		<path class="st2" d="M1177.8,708.9c-0.5-0.9-1-1.8-1.5-2.6C1176.8,707.1,1177.3,708,1177.8,708.9z"/>
		<path class="st2" d="M1186.8,738.7c-0.1-0.6-0.2-1.2-0.3-1.8c-0.5-3.2-1.1-6.3-1.8-9.3C1185.5,731.1,1186.2,734.8,1186.8,738.7z"
			/>
		<path class="st3" d="M908.3,1200c-8.7-111.1-43.1-220.2-100.6-315.6c0,0,0,0,0,0c-4.8-7.9-9.7-15.7-14.8-23.4"/>
		<path class="st3" d="M951.8,1182.5c0.2,6.1-1.2,11.9-3.6,17.5"/>
	</g>
</g>
</svg>
